<svg xmlns="http://www.w3.org/2000/svg" viewBox="0 0 48 48"><title>04-scalpel</title><g id="_04-scalpel" data-name="04-scalpel"><path d="M33.45,19.8a4,4,0,0,1-1.05,3.8L30,26H25.42l1.12-1.15,6.51-6.66Z" style="fill:#64e1dc"/><polygon points="33.451 19.803 33.45 19.8 33.05 18.19 26.54 24.85 25.42 26 27.394 26 27.54 25.85 33.451 19.803" style="fill:#1cadb5"/><path d="M22.86,29.072l2.93,1.67-1.28,4.49a1.88,1.88,0,0,1-.48.82,1.967,1.967,0,0,1-1.84.59l-2.88-1.48,1.56-1.59a1.045,1.045,0,0,0,0-1.45,1.064,1.064,0,0,1,0-1.46L22.49,29l.18-.06A1.274,1.274,0,0,0,22.86,29.072Z" style="fill:#96ebe6"/><path d="M22.67,28.94l-.18.06-1.62,1.66a1.064,1.064,0,0,0,0,1.46,1.045,1.045,0,0,1,0,1.45l-1.56,1.59,1.982,1.019.018-.019,1.56-1.59a1.045,1.045,0,0,0,0-1.45,1.064,1.064,0,0,1,0-1.46L24.49,30h0l-1.631-.93A1.274,1.274,0,0,1,22.67,28.94Z" style="fill:#64e1dc"/><path d="M30,32l-.74,5.16A2.135,2.135,0,0,1,27.14,39a2.161,2.161,0,0,1-1.78-.95l-1.33-2a1.88,1.88,0,0,0,.48-.82l1.28-4.49,1.29.73a3.943,3.943,0,0,0,1.98.53Z" style="fill:#96ebe6"/><path d="M26.51,36.23l1.269-4.451a3.792,3.792,0,0,1-.7-.309l-1.29-.73-1.28,4.49a1.88,1.88,0,0,1-.48.82l1.33,2a2.161,2.161,0,0,0,1.78.95c.06,0,.117-.011.176-.016L26.03,37.05A1.88,1.88,0,0,0,26.51,36.23Z" style="fill:#64e1dc"/><path d="M30,26l2.4-2.4a4,4,0,0,0,1.05-3.8l-.4-1.61,5.01-5.13L47,21V40l-8.98-8.98a2.01,2.01,0,0,0-2.31-.38l-1.87.94a3.917,3.917,0,0,1-1.78.42h-3a3.943,3.943,0,0,1-1.98-.53l-1.29-.73-2.93-1.67a1.274,1.274,0,0,1-.19-.13,1.651,1.651,0,0,1-.15-2.461A1.626,1.626,0,0,1,23.68,26H30Z" style="fill:#defafa"/><path d="M35.71,27.64l-1.87.94a3.917,3.917,0,0,1-1.78.42h-3a3.943,3.943,0,0,1-1.98-.53l-1.29-.73L23,26.15a1.638,1.638,0,0,0-.331,2.79,1.274,1.274,0,0,0,.19.13l2.93,1.67,1.29.73a3.943,3.943,0,0,0,1.98.53h3a3.917,3.917,0,0,0,1.78-.42l1.87-.94a2.01,2.01,0,0,1,2.31.38L47,40V37l-8.98-8.98A2.01,2.01,0,0,0,35.71,27.64Z" style="fill:#cbf7f7"/><path d="M23.08,22.591l-.79.81-4.97,5.08-.43.441L15.35,27.9a2,2,0,0,1-.75-2.41l4.9-12.23A2,2,0,0,1,21.35,12H33l.21.21Z" style="fill:#b4f5f0"/><path d="M16.6,27.491,21.5,15.26A2,2,0,0,1,23.35,14h8.113l1.747-1.79L33,12H21.35a2,2,0,0,0-1.85,1.26L14.6,25.491a2,2,0,0,0,.75,2.41l1.162.77A2,2,0,0,1,16.6,27.491Z" style="fill:#defafa"/><polygon points="27.56 18.001 23.08 22.591 24 18.001 27.56 18.001" style="fill:#64e1dc"/><polygon points="28.487 13.999 24.583 18 27.559 18 33.21 12.21 33.21 12.209 31.463 13.999 28.487 13.999" style="fill:#64e1dc"/><path d="M16.89,28.921l.43-.44L22.29,23.4l.79-.81.769-3.838L21.08,21.59l-.79.81-2.8,2.858L16.6,27.49a2,2,0,0,0-.088,1.18L15.35,27.9a1.916,1.916,0,0,1-.248-.2h0a2.1,2.1,0,0,0,.248.2Z" style="fill:#64e1dc"/><polygon points="30.439 12 28.487 13.999 31.463 13.999 33.21 12.209 33 12 30.439 12" style="fill:#96ebe6"/><polygon points="23.849 18.752 23.08 22.59 27.559 18 24.583 18 23.849 18.752" style="fill:#1cadb5"/><path d="M38.06,13.061l-5.01,5.13-6.51,6.66L22.29,23.4l.79-.81,10.13-10.38L43.57,1.6a1.98,1.98,0,0,1,2.84,0,2.089,2.089,0,0,1,0,2.91Z" style="fill:#90a6d4"/><path d="M22.29,23.4l4.25,1.45L25.42,26H23.68a1.626,1.626,0,0,0-1.16.48,1.651,1.651,0,0,0,.15,2.461l-.18.06-1.62,1.66a1.064,1.064,0,0,0,0,1.46,1.045,1.045,0,0,1,0,1.45l-1.56,1.59-9.8,10.03a5.91,5.91,0,0,1-8.51,0l8.51-8.71,7.38-7.56.43-.441Z" style="fill:#dde4f7"/><path d="M44.57,3.6,34.21,14.209l-8.488,8.7L23.5,22.165l-.415.425-.79.81,2.214.755h0l2.036.7,1.231-1.26h0l5.279-5.4,5.01-5.131,8.35-8.55a2.074,2.074,0,0,0,.569-1.236A1.975,1.975,0,0,0,44.57,3.6Z" style="fill:#7f93bd"/><path d="M24.043,24,2.624,46.349A5.887,5.887,0,0,0,9.51,45.191l9.8-10.031,1.56-1.59a1.045,1.045,0,0,0,0-1.45,1.064,1.064,0,0,1,0-1.46L22.49,29l.18-.06a1.649,1.649,0,0,1-.15-2.46A1.626,1.626,0,0,1,23.68,26h1.74l1.12-1.15Z" style="fill:#e8eeff"/><path d="M20.87,30.66,22.49,29l.18-.06a1.618,1.618,0,0,1-.584-.94H20.68a1.626,1.626,0,0,0-1.16.48,1.649,1.649,0,0,0,.15,2.46,1.274,1.274,0,0,0,.19.13l.739.421c0-.034-.019-.066-.019-.1A1.054,1.054,0,0,1,20.87,30.66Z" style="fill:#bccced"/><ellipse cx="45" cy="3" rx="0.825" ry="1.148" transform="translate(11.069 32.71) rotate(-45.02)" style="fill:#f6fafd"/><ellipse cx="43" cy="24" rx="0.825" ry="1.148" transform="translate(-4.372 37.451) rotate(-45.02)" style="fill:#f6fafd"/><ellipse cx="33" cy="30" rx="1.148" ry="0.825" style="fill:#f6fafd"/><ellipse cx="41.003" cy="19.987" rx="1.642" ry="2.286" transform="translate(-2.118 34.862) rotate(-45.02)" style="fill:#f6fafd"/><ellipse cx="18.746" cy="32.5" rx="0.413" ry="0.574" transform="translate(-17.494 22.787) rotate(-45.02)" style="fill:#f6fafd"/></g></svg>