<svg xmlns="http://www.w3.org/2000/svg" viewBox="0 0 48 48"><title>07-cosmetic surgery</title><g id="_07-cosmetic_surgery" data-name="07-cosmetic surgery"><path d="M46.88,24c-.42-.01-1.88-.03-3.69-.2-2.96-.28-6.89-.93-8.83-2.49C32.8,23.46,28.52,25,23.5,25s-9.3-1.54-10.86-3.69a13.06,13.06,0,0,1-5.76,2.15A37.944,37.944,0,0,1,1.12,24a1.8,1.8,0,0,0,.15,1.59l1.17,1.95,1.05,1.74A22.622,22.622,0,0,0,22.91,40h2.18A22.622,22.622,0,0,0,44.51,29.28l2.22-3.69A1.8,1.8,0,0,0,46.88,24Z" style="fill:#f03049"/><path d="M46.57,23.44c-.94-1.16-2.45-3.05-3.45-4.51a13.406,13.406,0,0,1-.8-1.27C41.31,15.71,40.29,6,32.14,6H31.13A9.327,9.327,0,0,0,24,9.25,9.327,9.327,0,0,0,16.87,6H15.86C7.71,6,6.69,15.71,5.68,17.66a52.879,52.879,0,0,1-4.25,5.78,1.631,1.631,0,0,0-.31.56,37.944,37.944,0,0,0,5.76-.54,13.06,13.06,0,0,0,5.76-2.15C14.2,23.46,18.48,25,23.5,25s9.3-1.54,10.86-3.69c1.94,1.56,5.87,2.21,8.83,2.49,1.81.17,3.27.19,3.69.2A1.631,1.631,0,0,0,46.57,23.44Z" style="fill:#ff475a"/><path d="M44.729,23.917l-.219.363A22.622,22.622,0,0,1,25.09,35H22.91A22.622,22.622,0,0,1,3.49,24.28L3.262,23.9C2.2,23.979,1.409,24,1.12,24a1.8,1.8,0,0,0,.15,1.59l1.17,1.95,1.05,1.74A22.622,22.622,0,0,0,22.91,40h2.18A22.622,22.622,0,0,0,44.51,29.28l2.22-3.69A1.8,1.8,0,0,0,46.88,24C46.589,23.993,45.79,23.98,44.729,23.917Z" style="fill:#d92b42"/><path d="M7.185,19.978C8.112,18.644,9.049,12,16.529,12h.927A9.993,9.993,0,0,1,24,14.224,9.993,9.993,0,0,1,30.544,12h.927c7.481,0,8.417,6.644,9.344,7.978a9.167,9.167,0,0,0,.734.869c.25.272.537.567.837.867.272.03.545.062.8.086.827.078,1.574.123,2.189.151-.774-.981-1.62-2.088-2.259-3.021a13.406,13.406,0,0,1-.8-1.27C41.31,15.71,40.29,6,32.14,6H31.13A9.327,9.327,0,0,0,24,9.25,9.327,9.327,0,0,0,16.87,6H15.86C7.71,6,6.69,15.71,5.68,17.66a37.786,37.786,0,0,1-3.053,4.283c.825-.047,1.894-.132,3.049-.292A15.953,15.953,0,0,0,7.185,19.978Z" style="fill:#ff636e"/><path d="M46.57,23.44c-.339-.419-.754-.934-1.191-1.489-.615-.028-1.362-.073-2.189-.151-.259-.024-.532-.056-.8-.086-2.835-.319-6.256-.98-8.026-2.4C32.8,21.46,28.52,23,23.5,23s-9.3-1.54-10.86-3.69a13.06,13.06,0,0,1-5.76,2.15c-.407.073-.81.136-1.2.191-1.155.16-2.224.245-3.049.292-.439.558-.857,1.078-1.2,1.5a1.631,1.631,0,0,0-.31.56c.294,0,1.114-.022,2.2-.1h0A34.831,34.831,0,0,0,6.88,23.46a13.06,13.06,0,0,0,5.76-2.15C14.2,23.46,18.48,25,23.5,25s9.3-1.54,10.86-3.69c1.94,1.56,5.87,2.21,8.83,2.49,1.81.17,3.27.19,3.69.2A1.631,1.631,0,0,0,46.57,23.44Z" style="fill:#d92b42"/><path d="M5.283,27.41a.5.5,0,0,1-.413-.217l-.283-.413a.5.5,0,0,1,.826-.565l.282.412a.5.5,0,0,1-.412.783Z" style="fill:#edf2ff"/><path d="M25.01,37a.5.5,0,0,1,0-1h0c.327,0,.655-.007.979-.021a.5.5,0,1,1,.043,1Q25.524,37,25.01,37ZM23,37h0q-.515,0-1.025-.027a.5.5,0,0,1-.475-.524.516.516,0,0,1,.523-.475Q22.508,36,23,36a.5.5,0,0,1,0,1Zm5.015-.2a.5.5,0,0,1-.064-1c.325-.042.649-.092.97-.149a.5.5,0,0,1,.174.985q-.5.088-1.015.155A.487.487,0,0,1,28.013,36.805ZM20,36.791a.531.531,0,0,1-.068,0q-.51-.069-1.012-.161a.5.5,0,0,1,.179-.983c.32.058.644.108.968.153a.5.5,0,0,1-.067,1Zm10.97-.575a.5.5,0,0,1-.13-.983c.318-.085.631-.177.942-.276a.5.5,0,1,1,.3.952q-.487.156-.986.29A.484.484,0,0,1,30.967,36.216Zm-13.916-.028a.515.515,0,0,1-.134-.018q-.5-.136-.982-.3a.5.5,0,0,1,.309-.951c.31.1.623.2.939.282a.5.5,0,0,1-.132.982Zm16.763-.955a.5.5,0,0,1-.2-.96q.453-.194.893-.406a.5.5,0,0,1,.435.9c-.307.148-.62.29-.936.425A.505.505,0,0,1,33.814,35.233Zm-19.6-.041a.5.5,0,0,1-.2-.041q-.474-.2-.933-.429a.5.5,0,0,1,.439-.9c.293.143.589.28.891.41a.5.5,0,0,1-.2.959Zm22.28-1.338a.5.5,0,0,1-.262-.926q.419-.257.821-.532a.5.5,0,1,1,.566.824q-.423.291-.865.561A.493.493,0,0,1,36.492,33.854ZM11.544,33.8a.5.5,0,0,1-.264-.075q-.438-.273-.859-.565a.5.5,0,1,1,.57-.821q.4.278.818.537a.5.5,0,0,1-.265.924Zm27.383-1.718a.5.5,0,0,1-.326-.879q.372-.318.723-.656a.5.5,0,1,1,.693.721c-.248.237-.5.469-.765.694A.5.5,0,0,1,38.927,32.084Zm-29.8-.063a.5.5,0,0,1-.328-.123q-.39-.339-.76-.7a.5.5,0,1,1,.7-.717c.233.225.473.446.719.66a.5.5,0,0,1-.328.877Zm31.911-2.085a.494.494,0,0,1-.317-.114.5.5,0,0,1-.069-.7q.31-.375.595-.77a.5.5,0,1,1,.81.586c-.2.279-.413.553-.632.82A.5.5,0,0,1,41.033,29.936ZM7.028,29.863a.5.5,0,0,1-.389-.185q-.326-.4-.626-.823a.5.5,0,0,1,.813-.581c.189.264.386.521.59.774a.5.5,0,0,1-.388.815Z" style="fill:#edf2ff"/><path d="M42.736,27.425a.5.5,0,0,1-.425-.763l.264-.425a.5.5,0,0,1,.85.526l-.263.425A.5.5,0,0,1,42.736,27.425Z" style="fill:#edf2ff"/><path d="M41.593,22a.5.5,0,0,1-.38-.175l-.328-.387a.5.5,0,1,1,.768-.641l.32.378a.5.5,0,0,1-.38.825Z" style="fill:#edf2ff"/><path d="M40.055,20.023a.5.5,0,0,1-.421-.229l-.076-.124a5.128,5.128,0,0,1-.383-.892.5.5,0,0,1,.942-.335,4.726,4.726,0,0,0,.3.715l.058.094a.5.5,0,0,1-.42.771Zm-1.074-2.8a.5.5,0,0,1-.467-.322c-.112-.292-.233-.594-.37-.9a.5.5,0,1,1,.914-.406c.144.323.273.643.39.951a.5.5,0,0,1-.289.646A.507.507,0,0,1,38.981,17.22Zm-1.324-2.688a.5.5,0,0,1-.42-.227,8.814,8.814,0,0,0-.557-.765.5.5,0,1,1,.775-.633,9.878,9.878,0,0,1,.62.852.5.5,0,0,1-.418.773ZM35.623,12.35a.494.494,0,0,1-.292-.095,6.3,6.3,0,0,0-.787-.484A.5.5,0,1,1,35,10.882a7.355,7.355,0,0,1,.912.562.5.5,0,0,1-.292.906ZM26.067,12a.5.5,0,0,1-.231-.944,9.357,9.357,0,0,1,.966-.432.5.5,0,0,1,.355.935,8.236,8.236,0,0,0-.86.385A.5.5,0,0,1,26.067,12Zm6.829-.831a.492.492,0,0,1-.1-.01,7.769,7.769,0,0,0-.928-.13.5.5,0,0,1-.459-.538.506.506,0,0,1,.539-.459,9.011,9.011,0,0,1,1.047.147.5.5,0,0,1-.1.99ZM28.913,11.1a.5.5,0,0,1-.071-1,10,10,0,0,1,1.049-.093.5.5,0,1,1,.036,1,9.032,9.032,0,0,0-.942.084A.443.443,0,0,1,28.913,11.1Z" style="fill:#edf2ff"/><path d="M24.061,13.488a.5.5,0,0,1-.359-.153c-.107-.11-.219-.218-.334-.323a.5.5,0,0,1,.671-.741l.022.02.021-.02a.5.5,0,1,1,.671.741c-.114.1-.226.212-.332.322a.5.5,0,0,1-.36.154Z" style="fill:#edf2ff"/><path d="M8.072,20.015a.493.493,0,0,1-.267-.078.5.5,0,0,1-.155-.69l.056-.092a4.689,4.689,0,0,0,.3-.721.5.5,0,1,1,.942.335,5.078,5.078,0,0,1-.388.9l-.068.111A.5.5,0,0,1,8.072,20.015Zm1.072-2.8a.489.489,0,0,1-.179-.033.5.5,0,0,1-.288-.646c.118-.306.247-.626.391-.949a.5.5,0,0,1,.914.406c-.137.307-.259.61-.371.9A.5.5,0,0,1,9.144,17.21Zm1.327-2.688a.5.5,0,0,1-.418-.773,9.819,9.819,0,0,1,.621-.851.5.5,0,0,1,.774.634,8.607,8.607,0,0,0-.558.764A.5.5,0,0,1,10.471,14.522Zm2.036-2.179a.5.5,0,0,1-.292-.906,7.312,7.312,0,0,1,.912-.56.5.5,0,1,1,.46.888,6.543,6.543,0,0,0-.789.484A.5.5,0,0,1,12.507,12.343ZM22.062,12a.51.51,0,0,1-.231-.056,7.832,7.832,0,0,0-.858-.386.5.5,0,0,1,.356-.935,9.052,9.052,0,0,1,.965.434.5.5,0,0,1-.232.943Zm-6.826-.837a.5.5,0,0,1-.1-.991,9.048,9.048,0,0,1,1.047-.145.5.5,0,0,1,.079,1,8.017,8.017,0,0,0-.93.129A.466.466,0,0,1,15.236,11.167Zm3.983-.071a.436.436,0,0,1-.072-.005,9.1,9.1,0,0,0-.943-.085.5.5,0,0,1-.481-.518.479.479,0,0,1,.518-.481,10,10,0,0,1,1.049.094.5.5,0,0,1-.071.995Z" style="fill:#edf2ff"/><path d="M6.528,22a.5.5,0,0,1-.381-.824l.321-.38a.5.5,0,0,1,.767.642l-.327.387A.5.5,0,0,1,6.528,22Z" style="fill:#edf2ff"/><ellipse cx="33.544" cy="14" rx="0.825" ry="1.148" transform="translate(-0.07 27.831) rotate(-45.02)" style="fill:#f6fafd"/><ellipse cx="34.34" cy="30.102" rx="0.825" ry="1.148" transform="translate(-11.226 33.114) rotate(-45.02)" style="fill:#f6fafd"/><ellipse cx="36.798" cy="28.089" rx="1.642" ry="2.286" transform="translate(-9.082 34.263) rotate(-45.02)" style="fill:#f6fafd"/><ellipse cx="10.746" cy="28.5" rx="0.574" ry="0.413" transform="translate(-17.001 15.936) rotate(-44.98)" style="fill:#f6fafd"/></g></svg>