<svg xmlns="http://www.w3.org/2000/svg" viewBox="0 0 48 48"><title>08-cosmetic surgery</title><g id="_08-cosmetic_surgery" data-name="08-cosmetic surgery"><path d="M23.5,39.5l-1.008,0A.5.5,0,0,1,22,38.989a.472.472,0,0,1,.507-.492l.993,0a.5.5,0,0,1,0,1Zm2,0a.5.5,0,0,1-.008-1c.325-.005.653-.015.983-.032A.488.488,0,0,1,27,38.94a.5.5,0,0,1-.475.524c-.341.017-.681.028-1.017.033Zm-5-.1-.041,0c-.335-.027-.672-.06-1.01-.1a.5.5,0,0,1-.442-.552.507.507,0,0,1,.552-.442c.329.036.656.068.981.094a.5.5,0,0,1-.04,1Zm7.991-.1a.5.5,0,0,1-.055-1q.488-.054.978-.123a.5.5,0,1,1,.14.99c-.337.047-.673.09-1.008.127A.507.507,0,0,1,28.492,39.3Zm-10.968-.28a.635.635,0,0,1-.085-.007q-.5-.086-1-.185a.5.5,0,0,1-.393-.588.5.5,0,0,1,.588-.392c.324.064.649.124.972.179a.5.5,0,0,1-.084.993Zm13.932-.181a.5.5,0,0,1-.1-.99c.322-.064.643-.132.964-.206a.5.5,0,1,1,.223.975c-.33.075-.661.146-.991.211A.473.473,0,0,1,31.456,38.843ZM14.587,38.4a.486.486,0,0,1-.125-.015q-.492-.128-.979-.266a.5.5,0,0,1,.276-.961c.316.09.633.177.952.258a.5.5,0,0,1-.124.984Zm19.785-.26a.5.5,0,0,1-.137-.981q.475-.135.945-.284a.5.5,0,1,1,.3.953q-.483.153-.973.293A.5.5,0,0,1,34.372,38.137Zm-22.658-.606a.5.5,0,0,1-.165-.028q-.48-.166-.952-.346a.5.5,0,1,1,.357-.935q.457.175.924.337a.5.5,0,0,1-.164.972Zm25.506-.34a.5.5,0,0,1-.178-.967q.463-.177.915-.365a.5.5,0,1,1,.385.923q-.466.2-.944.376A.487.487,0,0,1,37.22,37.191ZM8.928,36.42a.506.506,0,0,1-.206-.044q-.466-.211-.919-.436a.5.5,0,1,1,.443-.9q.438.218.889.422a.5.5,0,0,1-.207.955Zm31.044-.426a.5.5,0,0,1-.222-.948q.443-.219.873-.451a.5.5,0,1,1,.474.88q-.444.24-.9.467A.487.487,0,0,1,39.972,35.994ZM6.265,35.04a.5.5,0,0,1-.253-.069q-.445-.262-.869-.538a.5.5,0,0,1,.544-.839q.407.264.833.515a.5.5,0,0,1-.255.931Zm36.317-.524a.5.5,0,0,1-.273-.919q.414-.27.808-.55a.5.5,0,0,1,.582.812q-.412.3-.846.577A.5.5,0,0,1,42.582,34.516ZM3.789,33.349a.5.5,0,0,1-.31-.109q-.408-.325-.788-.661a.5.5,0,1,1,.665-.747q.359.318.745.626a.5.5,0,0,1-.312.891Zm41.184-.64a.5.5,0,0,1-.333-.874q.367-.326.7-.665a.5.5,0,0,1,.712.7q-.359.361-.749.71A.5.5,0,0,1,44.973,32.709ZM1.621,31.284a.5.5,0,0,1-.38-.175Q.9,30.71.6,30.294a.5.5,0,0,1,.808-.588q.279.382.6.752a.5.5,0,0,1-.379.826ZM47,30.5a.494.494,0,0,1-.353-.146.5.5,0,1,1,.772-.08.554.554,0,0,1-.065.08A.5.5,0,0,1,47,30.5Z" style="fill:#a7bfe8"/><path d="M47,20.5a.5.5,0,0,1-.41-.214l-.569-.826a.5.5,0,1,1,.822-.569l.567.823A.5.5,0,0,1,47,20.5ZM1.717,19.841l-.846-.534c.188-.272.372-.538.575-.826a.5.5,0,1,1,.817.579C2.061,19.344,1.88,19.606,1.717,19.841Zm43.535-1.783a.5.5,0,0,1-.4-.194c-.192-.248-.4-.5-.615-.764a.5.5,0,1,1,.766-.643c.227.271.44.537.64.795a.5.5,0,0,1-.395.806Zm-42.2-.386a.5.5,0,0,1-.39-.813c.206-.256.423-.518.652-.783a.5.5,0,0,1,.757.654q-.332.384-.629.755A.5.5,0,0,1,3.056,17.672Zm40.227-1.88a.5.5,0,0,1-.357-.149c-.223-.228-.457-.456-.7-.682a.5.5,0,1,1,.68-.732c.255.236.5.475.733.713a.5.5,0,0,1-.007.707A.494.494,0,0,1,43.283,15.792ZM5.066,15.447a.5.5,0,0,1-.35-.857q.361-.352.75-.7a.5.5,0,1,1,.664.748c-.248.219-.486.442-.714.665A.5.5,0,0,1,5.066,15.447Zm35.97-1.639a.5.5,0,0,1-.3-.1q-.383-.291-.791-.566a.5.5,0,1,1,.559-.829c.288.193.566.393.836.6a.5.5,0,0,1-.3.9ZM24,13.8a.5.5,0,0,1-.348-.141l-.182-.176a.5.5,0,0,1-.014-.707.5.5,0,0,1,.507-.131c.08-.076.161-.15.24-.224a.5.5,0,1,1,.677.737c-.177.162-.354.329-.533.5A.5.5,0,0,1,24,13.8ZM7.36,13.516a.5.5,0,0,1-.291-.907q.413-.3.851-.575a.5.5,0,0,1,.537.845c-.277.175-.546.357-.806.543A.5.5,0,0,1,7.36,13.516Zm14.949-1.2a.5.5,0,0,1-.3-.1,9.351,9.351,0,0,0-.781-.538.5.5,0,0,1,.522-.852,10.289,10.289,0,0,1,.865.594.5.5,0,0,1-.3.9Zm16.193-.1a.492.492,0,0,1-.228-.056c-.284-.145-.575-.284-.874-.414a.5.5,0,1,1,.4-.917q.479.209.932.442a.5.5,0,0,1-.229.945ZM26.09,12.025a.5.5,0,0,1-.285-.911,9.475,9.475,0,0,1,.9-.552.5.5,0,0,1,.473.881,8.011,8.011,0,0,0-.8.494A.5.5,0,0,1,26.09,12.025ZM9.938,11.989a.5.5,0,0,1-.214-.951q.46-.219.944-.413a.5.5,0,0,1,.371.929q-.454.182-.888.387A.487.487,0,0,1,9.938,11.989ZM35.721,11.1a.513.513,0,0,1-.139-.02q-.459-.132-.936-.236a.5.5,0,1,1,.212-.978q.512.111,1,.253a.5.5,0,0,1-.137.981Zm-22.968-.129a.5.5,0,0,1-.122-.985q.494-.125,1.009-.22a.5.5,0,1,1,.181.983c-.321.06-.636.128-.945.207A.517.517,0,0,1,12.753,10.973Zm6.919-.056a.517.517,0,0,1-.149-.022,7.946,7.946,0,0,0-.912-.225.5.5,0,0,1,.183-.983,8.946,8.946,0,0,1,1.026.253.5.5,0,0,1-.148.977Zm9.129-.131a.5.5,0,0,1-.119-.986,9.752,9.752,0,0,1,1.035-.2.5.5,0,1,1,.134.991,8.98,8.98,0,0,0-.93.175A.493.493,0,0,1,28.8,10.786Zm3.976-.227-.043,0q-.474-.041-.967-.053a.5.5,0,0,1-.488-.512.532.532,0,0,1,.513-.488q.523.014,1.027.057a.5.5,0,0,1-.042,1Zm-17.063-.035a.5.5,0,0,1-.026-1c.3-.016.609-.025.922-.025h.111a.5.5,0,0,1,.493.507.513.513,0,0,1-.506.493h-.1q-.441,0-.868.023Z" style="fill:#a7bfe8"/><path d="M23.293.293l-3,3,1.414,1.414L23,3.414V7h2V3.414l1.293,1.293,1.414-1.414-3-3A1,1,0,0,0,23.293.293Z" style="fill:#4f7fff"/><path d="M43,3.414V7h2V3.414l1.293,1.293,1.414-1.414-3-3a1,1,0,0,0-1.414,0l-3,3,1.414,1.414Z" style="fill:#4f7fff"/><path d="M3.293.293l-3,3L1.707,4.707,3,3.414V7H5V3.414L6.293,4.707,7.707,3.293l-3-3A1,1,0,0,0,3.293.293Z" style="fill:#4f7fff"/><path d="M25,44.586V41H23v3.586l-1.293-1.293-1.414,1.414,3,3a1,1,0,0,0,1.414,0l3-3-1.414-1.414Z" style="fill:#4f7fff"/><path d="M5,44.586V41H3v3.586L1.707,43.293.293,44.707l3,3a1,1,0,0,0,1.414,0l3-3L6.293,43.293Z" style="fill:#4f7fff"/><path d="M45,44.586V41H43v3.586l-1.293-1.293-1.414,1.414,3,3a1,1,0,0,0,1.414,0l3-3-1.414-1.414Z" style="fill:#4f7fff"/><path d="M44.707,46.707a1,1,0,0,1-1.414,0l-2.5-2.5-.5.5,3,3a1,1,0,0,0,1.414,0l3-3-.5-.5Z" style="fill:#759bff"/><path d="M24.707,46.707a1,1,0,0,1-1.414,0l-2.5-2.5-.5.5,3,3a1,1,0,0,0,1.414,0l3-3-.5-.5Z" style="fill:#759bff"/><path d="M4.707,46.707a1,1,0,0,1-1.414,0l-2.5-2.5-.5.5,3,3a1,1,0,0,0,1.414,0l3-3-.5-.5Z" style="fill:#759bff"/><path d="M44.707,1.293l2.5,2.5.5-.5-3-3a1,1,0,0,0-1.414,0l-3,3,.5.5,2.5-2.5A1,1,0,0,1,44.707,1.293Z" style="fill:#759bff"/><path d="M24.707,1.293l2.5,2.5.5-.5-3-3a1,1,0,0,0-1.414,0l-3,3,.5.5,2.5-2.5A1,1,0,0,1,24.707,1.293Z" style="fill:#759bff"/><path d="M4.707,1.293l2.5,2.5.5-.5-3-3a1,1,0,0,0-1.414,0l-3,3,.5.5,2.5-2.5A1,1,0,0,1,4.707,1.293Z" style="fill:#759bff"/><path d="M1.012,25c.16.01,2.02.16,4.409.16,3.74,0,8.78-.36,10.58-2.16a13.212,13.212,0,0,0,8,3,12.023,12.023,0,0,0,4.81-1.06A13.989,13.989,0,0,0,32,23c2.94,2.94,14.549,2.04,14.989,2a.764.764,0,0,1-.26.53l-2.22,2.17c-4,3.9-11.4,6.3-19.418,6.3H22.91c-8.019,0-15.419-2.4-19.418-6.3l-2.22-2.17A.764.764,0,0,1,1.012,25Z" style="fill:#f03049"/><path d="M25.09,31H22.91C15.2,31,8.073,28.778,3.98,25.141,2.321,25.1,1.138,25.008,1.012,25a.764.764,0,0,0,.26.53l2.22,2.17c4,3.9,11.4,6.3,19.418,6.3h2.18c8.019,0,15.419-2.4,19.418-6.3l2.22-2.17a.764.764,0,0,0,.26-.53c-.134.012-1.315.1-2.97.143C39.924,28.778,32.8,31,25.09,31Z" style="fill:#d92b42"/><path d="M1.432,24.26A27.259,27.259,0,0,0,5,21c1.02-1.14,4.86-5,13-5a9.2,9.2,0,0,1,6,1.91,10.755,10.755,0,0,1,2.55-1.39A10.066,10.066,0,0,1,30,16c8.139,0,11.979,3.86,13,5a27.259,27.259,0,0,0,3.569,3.26A.847.847,0,0,1,47,25h-.01c-.44.04-12.049.94-14.989-2a13.989,13.989,0,0,1-3.189,1.94A12.023,12.023,0,0,1,24,26a13.212,13.212,0,0,1-8-3c-1.8,1.8-6.84,2.16-10.58,2.16-2.389,0-4.249-.15-4.409-.16H1A.847.847,0,0,1,1.432,24.26Z" style="fill:#ff475a"/><path d="M5,24c1.02-1.14,4.86-5,13-5a9.2,9.2,0,0,1,6,1.91,10.755,10.755,0,0,1,2.55-1.39A10.066,10.066,0,0,1,30,19c8.139,0,11.979,3.86,13,5,.271.3.663.706,1.111,1.141,1.606-.04,2.746-.129,2.878-.141H47a.847.847,0,0,0-.43-.74A27.259,27.259,0,0,1,43,21c-1.02-1.14-4.86-5-13-5a10.066,10.066,0,0,0-3.45.52A10.755,10.755,0,0,0,24,17.91,9.2,9.2,0,0,0,18,16C9.861,16,6.021,19.86,5,21a27.259,27.259,0,0,1-3.569,3.26A.847.847,0,0,0,1,25h.01c.123.008,1.267.1,2.88.139C4.339,24.705,4.73,24.3,5,24Z" style="fill:#ff636e"/><path d="M46.568,24.26c-.09-.065-.185-.14-.278-.211C43.671,24.209,34.557,24.557,32,22a13.989,13.989,0,0,1-3.189,1.94A12.023,12.023,0,0,1,24,25a13.212,13.212,0,0,1-8-3c-1.8,1.8-6.84,2.16-10.58,2.16-1.589,0-2.931-.066-3.708-.113-.094.072-.19.147-.281.213A.847.847,0,0,0,1,25h.01c.16.01,2.02.16,4.409.16,3.74,0,8.78-.36,10.58-2.16a13.212,13.212,0,0,0,8,3,12.023,12.023,0,0,0,4.81-1.06A13.989,13.989,0,0,0,32,23c2.94,2.94,14.549,2.04,14.989,2H47A.847.847,0,0,0,46.568,24.26Z" style="fill:#d92b42"/><ellipse cx="34" cy="20" rx="0.825" ry="1.148" transform="translate(-4.18 29.913) rotate(-45.02)" style="fill:#f6fafd"/><ellipse cx="15" cy="28" rx="1.148" ry="0.825" transform="translate(-15.402 18.797) rotate(-44.98)" style="fill:#f6fafd"/><ellipse cx="38.003" cy="20.987" rx="1.642" ry="2.286" transform="translate(-3.705 33.033) rotate(-45.02)" style="fill:#f6fafd"/><ellipse cx="11.746" cy="27.5" rx="0.574" ry="0.413" transform="translate(-16.001 16.351) rotate(-44.98)" style="fill:#f6fafd"/></g></svg>