<svg xmlns="http://www.w3.org/2000/svg" viewBox="0 0 48 48"><title>09-filler</title><g id="_09-filler" data-name="09-filler"><path d="M46.88,31c-.42-.01-1.88-.03-3.69-.2-2.96-.28-6.89-.93-8.83-2.49C32.8,30.46,28.52,32,23.5,32s-9.3-1.54-10.86-3.69a13.06,13.06,0,0,1-5.76,2.15A37.944,37.944,0,0,1,1.12,31a1.8,1.8,0,0,0,.15,1.59l1.17,1.95,1.05,1.74A22.622,22.622,0,0,0,22.91,47h2.18A22.622,22.622,0,0,0,44.51,36.28l2.22-3.69A1.8,1.8,0,0,0,46.88,31Z" style="fill:#f03049"/><path d="M46.57,30.44c-.94-1.16-2.45-3.05-3.45-4.51a13.406,13.406,0,0,1-.8-1.27C41.31,22.71,40.29,13,32.14,13H31.13A9.327,9.327,0,0,0,24,16.25,9.327,9.327,0,0,0,16.87,13H15.86C7.71,13,6.69,22.71,5.68,24.66a52.879,52.879,0,0,1-4.25,5.78,1.631,1.631,0,0,0-.31.56,37.944,37.944,0,0,0,5.76-.54,13.06,13.06,0,0,0,5.76-2.15C14.2,30.46,18.48,32,23.5,32s9.3-1.54,10.86-3.69c1.94,1.56,5.87,2.21,8.83,2.49,1.81.17,3.27.19,3.69.2A1.631,1.631,0,0,0,46.57,30.44Z" style="fill:#ff475a"/><path d="M44.729,30.917l-.219.363A22.622,22.622,0,0,1,25.09,42H22.91A22.622,22.622,0,0,1,3.49,31.28L3.262,30.9C2.2,30.979,1.409,31,1.12,31a1.8,1.8,0,0,0,.15,1.59l1.17,1.95,1.05,1.74A22.622,22.622,0,0,0,22.91,47h2.18A22.622,22.622,0,0,0,44.51,36.28l2.22-3.69A1.8,1.8,0,0,0,46.88,31C46.589,30.993,45.79,30.98,44.729,30.917Z" style="fill:#d92b42"/><path d="M7.185,26.978C8.112,25.644,9.049,19,16.529,19h.927A9.993,9.993,0,0,1,24,21.224,9.993,9.993,0,0,1,30.544,19h.927c7.481,0,8.417,6.644,9.344,7.978a9.167,9.167,0,0,0,.734.869c.25.272.537.567.837.867.272.03.545.062.8.086.827.078,1.574.123,2.189.151-.774-.981-1.62-2.088-2.259-3.021a13.406,13.406,0,0,1-.8-1.27C41.31,22.71,40.29,13,32.14,13H31.13A9.327,9.327,0,0,0,24,16.25,9.327,9.327,0,0,0,16.87,13H15.86C7.71,13,6.69,22.71,5.68,24.66a37.786,37.786,0,0,1-3.053,4.283c.825-.047,1.894-.132,3.049-.292A15.953,15.953,0,0,0,7.185,26.978Z" style="fill:#ff636e"/><path d="M46.57,30.44c-.339-.419-.754-.934-1.191-1.489-.615-.028-1.362-.073-2.189-.151-.259-.024-.532-.056-.8-.086-2.835-.319-6.256-.98-8.026-2.4C32.8,28.46,28.52,30,23.5,30s-9.3-1.54-10.86-3.69a13.06,13.06,0,0,1-5.76,2.15c-.407.073-.81.136-1.2.191-1.155.16-2.224.245-3.049.292-.44.558-.857,1.078-1.2,1.5a1.631,1.631,0,0,0-.31.56c.294,0,1.114-.022,2.2-.1h0A34.831,34.831,0,0,0,6.88,30.46a13.06,13.06,0,0,0,5.76-2.15C14.2,30.46,18.48,32,23.5,32s9.3-1.54,10.86-3.69c1.94,1.56,5.87,2.21,8.83,2.49,1.81.17,3.27.19,3.69.2A1.631,1.631,0,0,0,46.57,30.44Z" style="fill:#d92b42"/><ellipse cx="33.544" cy="21" rx="0.825" ry="1.148" transform="translate(-5.021 29.883) rotate(-45.02)" style="fill:#f6fafd"/><ellipse cx="34.34" cy="37.102" rx="0.825" ry="1.148" transform="translate(-16.178 35.166) rotate(-45.02)" style="fill:#f6fafd"/><ellipse cx="36.798" cy="35.089" rx="1.642" ry="2.286" transform="translate(-14.033 36.315) rotate(-45.02)" style="fill:#f6fafd"/><ellipse cx="10.746" cy="35.5" rx="0.574" ry="0.413" transform="translate(-21.949 17.985) rotate(-44.98)" style="fill:#f6fafd"/><rect x="16" y="33.02" width="6" height="2.004" rx="1" ry="1" style="fill:#d92b42"/><path d="M12.771,5.743a1.867,1.867,0,0,1-.7,2.518L10.919,8.8,5.568,11.31l-1.149.54a1.844,1.844,0,0,1-2.37-1.081,1.859,1.859,0,0,1,.7-2.508L4.792,7.3l3.57-1.672L10.4,4.672A1.849,1.849,0,0,1,12.771,5.743Z" style="fill:#dde4f7"/><polygon points="6.696 2.032 8.362 5.631 4.792 7.303 3.125 3.714 6.696 2.032" style="fill:#a7bfe8"/><path d="M17.584,23.167a2,2,0,0,1-.187,1.927,1.864,1.864,0,0,1-.765.7l-1.781.836a1.911,1.911,0,0,1-1.024.142,2,2,0,0,1-1.594-1.1L11.4,23.881,9.739,20.292H9.728L8.072,16.7l-2.5-5.393L10.919,8.8Z" style="fill:#4f7fff"/><polygon points="11.192 14.247 7.693 15.887 8.072 16.703 8.552 17.742 12.081 16.088 11.192 14.247" style="fill:#dde4f7"/><polygon points="12.858 17.839 9.354 19.481 9.728 20.292 9.739 20.292 10.219 21.334 13.748 19.68 12.858 17.839" style="fill:#dde4f7"/><polygon points="14.524 21.431 11.022 23.073 11.395 23.881 11.883 24.927 15.413 23.272 14.524 21.431" style="fill:#dde4f7"/><polygon points="0.889 6.028 0 4.187 8.933 0 9.823 1.841 0.889 6.028" style="fill:#dde4f7"/><path d="M17.4,25.094l1.377,2.977-1.78.847-1.791.836-1.376-2.978a1.911,1.911,0,0,0,1.024-.142l1.781-.836A1.864,1.864,0,0,0,17.4,25.094Z" style="fill:#ccd7f2"/><path d="M17.932,28.633a.948.948,0,0,0-.088-.12l-.85.4-.97.453a.837.837,0,0,0,.026.11l2.083,4.49c.005.011.014.019.02.03L20,33.09Z" style="fill:#e8eeff"/><polygon points="10.919 8.802 5.568 11.31 6.468 13.247 11.769 10.636 10.919 8.802" style="fill:#3161e3"/><path d="M3.788,10.3l2.039-.958L9.4,7.67l2.039-.958a1.611,1.611,0,0,1,1.536.133,2.255,2.255,0,0,0-.2-1.1A1.849,1.849,0,0,0,10.4,4.672l-2.039.959L4.792,7.3l-2.039.958a1.859,1.859,0,0,0-.7,2.508,2.192,2.192,0,0,0,.834.945A1.652,1.652,0,0,1,3.788,10.3Z" style="fill:#edf2ff"/><polygon points="3.608 4.754 3.997 5.591 7.569 3.917 7.181 3.079 3.608 4.754" style="fill:#90a6d4"/><polygon points="12.308 20.355 10.219 21.334 9.739 20.292 11.022 23.073 13.11 22.094 12.308 20.355" style="fill:#3161e3"/><polygon points="10.64 16.763 8.552 17.742 9.354 19.481 11.443 18.502 10.64 16.763" style="fill:#3161e3"/><polygon points="9.782 14.908 8.537 12.228 6.468 13.247 8.072 16.703 7.693 15.887 9.782 14.908" style="fill:#3161e3"/><path d="M14.3,24.656l-.331-.708-2.089.979L11.4,23.881l.838,1.794a2,2,0,0,0,1.594,1.1,1.911,1.911,0,0,0,1.024-.142l1.781-.836a1.581,1.581,0,0,0,.253-.174,1.915,1.915,0,0,1-.988.133A2,2,0,0,1,14.3,24.656Z" style="fill:#3161e3"/><polygon points="10.142 15.684 9.782 14.908 7.693 15.887 8.072 16.703 8.552 17.742 10.64 16.763 10.142 15.684" style="fill:#a7bfe8"/><polygon points="12.308 20.355 11.809 19.273 11.798 19.273 11.443 18.502 9.354 19.481 9.728 20.292 9.739 20.292 10.219 21.334 12.308 20.355" style="fill:#a7bfe8"/><polygon points="13.972 23.948 13.465 22.861 13.11 22.094 11.022 23.073 11.395 23.881 11.883 24.927 13.972 23.948" style="fill:#a7bfe8"/><polygon points="7.657 10.331 5.568 11.31 6.468 13.247 8.537 12.228 7.657 10.331" style="fill:#2448a8"/><path d="M17.844,28.513h0l.93-.442L17.4,25.094a1.864,1.864,0,0,1-.765.7l-.854.4,1.247,2.7Z" style="fill:#e8eeff"/><path d="M19.151,33.509,20,33.09l-2.068-4.457a.948.948,0,0,0-.088-.12l-.819.389Z" style="fill:#f7f9ff"/></g></svg>