<svg xmlns="http://www.w3.org/2000/svg" viewBox="0 0 48 48"><title>11-filler</title><g id="_11-filler" data-name="11-filler"><path d="M47.066,30.723v-.039c-.678,6.476-21.2,7.006-24.33,7.006-9.376,0-15.664-3.729-18.165-8.655a2.128,2.128,0,0,0-1.913-1.158A2.171,2.171,0,0,0,.947,28.7a2.073,2.073,0,0,0-.416,1.561,9.1,9.1,0,0,0,3.52,5.365C3.418,37.877.5,38.671.5,38.671c3.568,1.7,5.6.063,6.045-1.31.379.221.776.433,1.182.639.173,1.862-3.542,4.694-3.542,4.694,4,.431,6.334-1.937,6.514-3.4a34.053,34.053,0,0,0,3.987,1.234c-.56,2.2-3.452,4.971-3.452,4.971,3.434.37,6.218-2.325,7.186-4.258,1.127.158,2.271.267,3.421.325.479,1.671,1.219,5.036-.3,5.884,0,0,3.736,1.022,4.054-5.89a40.881,40.881,0,0,0,5.132-.653c.439,1.943,2.507,4.983,6.135,4.592,0,0-3.068-2.944-3.487-5.176.674-.17,1.338-.356,2-.557.52,1.471,2.507,3.306,5.983,2.931,0,0-2.7-2.057-3.388-3.817.385-.148.756-.3,1.127-.464.721,1.352,3.456,2.89,6.959,1.22,0,0-3.7-.89-4.051-2.666C44.894,35.258,46.887,33.144,47.066,30.723Z" style="fill:#192b44"/><path d="M47.066,30.683c-.678,6.476-21.2,7.006-24.33,7.006-9.376,0-15.664-3.729-18.165-8.654a2.128,2.128,0,0,0-1.913-1.158A2.171,2.171,0,0,0,.947,28.7a2.1,2.1,0,0,0-.433,1.151c.04,0,.079-.013.119-.013A2.131,2.131,0,0,1,2.547,31c2.5,4.926,10.848,8.654,20.224,8.654,8.04,0,23.206-2.3,24.254-8.613.015-.105.033-.209.041-.316Z" style="fill:#415372"/><path d="M47.066,14.131c-.314-.255-5.538-4.366-19.4-5.249C16.914,8.2,8.459,13.189,4.946,15.7a2.2,2.2,0,0,1-3.038-.481L.8,13.562A1.652,1.652,0,0,1,1,11.443C3.123,9.206,9.4,4.33,23.586,4.33,41.578,4.33,46.853,13.729,47.066,14.131Z" style="fill:#192b44"/><path d="M3.022,14.386c2.126-2.237,8.4-7.113,22.589-7.113,10.451,0,16.605,3.171,19.974,5.908a11.256,11.256,0,0,1,1.481.95c-.213-.4-5.488-9.8-23.48-9.8C9.4,4.33,3.124,9.206,1,11.443a1.652,1.652,0,0,0-.2,2.119L1.908,15.22a1.914,1.914,0,0,0,.657.6A1.659,1.659,0,0,1,3.022,14.386Z" style="fill:#415372"/><path d="M47.056,30.664v.019c-.678,6.476-21.2,7.006-24.331,7.006-9.375,0-15.663-3.729-18.164-8.654a2.129,2.129,0,0,0-1.913-1.158h.891S2.526,16.1,18.726,15.122C18.726,15.122,44.859,16.094,47.056,30.664Z" style="fill:#ffcdbe"/><path d="M40.282,37.885a41.282,41.282,0,0,1-16.493,3.728h-.021a38.727,38.727,0,0,1-7.188-.677,34.519,34.519,0,0,1-7.047-2.1,23.294,23.294,0,0,1-4-2.1C2.769,34.912.906,32.685.521,30.261A2.075,2.075,0,0,1,.936,28.7a2.175,2.175,0,0,1,1.712-.824,2.129,2.129,0,0,1,1.913,1.158c2.5,4.925,8.789,8.654,18.164,8.654,3.129,0,23.653-.53,24.331-7.006v.039C46.843,33.6,44.079,36.04,40.282,37.885Z" style="fill:#192b44"/><path d="M47.066,30.664c-2.2-14.57-28.33-15.542-28.33-15.542C9.908,15.657,6.2,19.4,4.642,22.689c.265-.277.553-.55.864-.816,2.154-2.349,5.851-4.4,12.218-4.788,0,0,26.133.971,28.33,15.541v.019c0,.033-.013.065-.017.1a3.505,3.505,0,0,0,1.029-2.059Z" style="fill:#ffeee5"/><path d="M22.736,33.764c-9.376,0-15.664-3.728-18.165-8.654a2.035,2.035,0,0,0-.585-.682,10.62,10.62,0,0,0-.437,3.449H2.658a2.128,2.128,0,0,1,1.913,1.158c2.5,4.925,8.789,8.654,18.165,8.654,3.128,0,23.652-.53,24.33-7.006v-.019a12.126,12.126,0,0,0-.608-2.354C42.951,33.319,25.593,33.764,22.736,33.764Z" style="fill:#ffbeaa"/><path d="M25.808,29.839c0,1.56,1.877,2.9,4.594,3.535.722-.066,1.464-.143,2.219-.233Z" style="fill:#ffbeaa"/><polygon points="29.913 27.876 28.845 32.783 28.845 32.783 31.74 28.724 30.879 28.328 29.913 27.876" style="fill:#ccd7f2"/><path d="M45.5,10.864a1.813,1.813,0,0,1-2.318,1.04l-1.124-.52L36.821,8.971,35.7,8.451a1.784,1.784,0,0,1-.689-2.424A1.818,1.818,0,0,1,37.328,5l1.994.922,3.492,1.609,1.995.923A1.774,1.774,0,0,1,45.5,10.864Z" style="fill:#dde4f7"/><path d="M44.809,8.451l-1.995-.923L39.322,5.919,37.328,5a1.818,1.818,0,0,0-2.319,1.03,2.137,2.137,0,0,0-.2,1.061,1.6,1.6,0,0,1,1.5-.129l2,.922L41.8,9.491l1.994.922a1.587,1.587,0,0,1,.885,1.36,2.12,2.12,0,0,0,.816-.909A1.774,1.774,0,0,0,44.809,8.451Z" style="fill:#edf2ff"/><polygon points="40.952 2.456 44.444 4.075 42.814 7.528 39.322 5.919 40.952 2.456" style="fill:#a7bfe8"/><path d="M32.975,26.131a1.9,1.9,0,0,0,1,.137l-1.346,2.865-1.752-.8-1.741-.814,1.346-2.865a1.811,1.811,0,0,0,.75.677Z" style="fill:#bccced"/><polygon points="42.055 11.384 36.821 8.971 36.012 10.688 41.307 12.969 42.055 11.384" style="fill:#2448a8"/><path d="M36.012,10.688,30.3,22.8a1.9,1.9,0,0,0,.182,1.854,1.811,1.811,0,0,0,.75.677l1.741.8a1.9,1.9,0,0,0,1,.137,1.954,1.954,0,0,0,1.559-1.06l.82-1.726,1.62-3.454h.01L39.6,16.574l1.7-3.605Z" style="fill:#3161e3"/><polygon points="35.685 15.978 39.134 17.579 39.605 16.574 39.973 15.795 36.561 14.208 35.685 15.978" style="fill:#bccced"/><polygon points="34.057 19.442 37.504 21.034 37.976 20.028 37.986 20.028 38.35 19.251 34.929 17.67 34.057 19.442" style="fill:#bccced"/><polygon points="32.441 22.901 35.901 24.44 36.356 23.482 36.743 22.656 33.285 21.118 32.441 22.901" style="fill:#bccced"/><path d="M31.234,25.326a1.811,1.811,0,0,1-.75-.677l-1.346,2.865,1.546.723L32,25.681Z" style="fill:#ccd7f2"/><path d="M32.975,26.131,32,25.681l-1.318,2.556.2.091,1.752.8,1.346-2.865A1.9,1.9,0,0,1,32.975,26.131Z" style="fill:#e8eeff"/><polygon points="46.632 6.305 37.896 2.273 38.764 0.5 47.5 4.532 46.632 6.305" style="fill:#dde4f7"/><polygon points="40.477 3.464 39.917 4.654 43.41 6.266 43.971 5.077 40.477 3.464" style="fill:#90a6d4"/><polygon points="40.012 10.442 39.24 12.078 41.307 12.969 42.055 11.384 40.012 10.442" style="fill:#3161e3"/><polygon points="35.461 20.091 34.687 21.742 36.743 22.656 36.356 23.482 37.976 20.028 37.504 21.034 35.461 20.091" style="fill:#4f7fff"/><path d="M33.511,24.227a1.957,1.957,0,0,1-1.559,1.06,1.9,1.9,0,0,1-.967-.128,1.5,1.5,0,0,0,.249.167l.768.355.973.45a1.9,1.9,0,0,0,1,.137,1.954,1.954,0,0,0,1.559-1.06l.365-.768-2.057-.914Z" style="fill:#4f7fff"/><polygon points="37.094 16.632 36.308 18.308 38.35 19.251 37.986 20.028 39.605 16.574 39.134 17.579 37.094 16.632" style="fill:#4f7fff"/><polygon points="37.933 14.846 39.973 15.795 39.605 16.574 41.307 12.969 39.24 12.078 37.933 14.846" style="fill:#4f7fff"/><polygon points="37.933 14.846 37.581 15.593 37.094 16.632 39.134 17.579 39.605 16.574 39.973 15.795 37.933 14.846" style="fill:#dde4f7"/><polygon points="36.308 18.308 35.961 19.047 35.951 19.047 35.461 20.091 37.504 21.034 37.976 20.028 37.986 20.028 38.35 19.251 36.308 18.308" style="fill:#dde4f7"/><polygon points="34.687 21.742 34.331 22.5 33.844 23.526 35.901 24.44 36.356 23.482 36.743 22.656 34.687 21.742" style="fill:#dde4f7"/><ellipse cx="41" cy="32" rx="0.825" ry="1.148" transform="translate(-10.617 38.382) rotate(-45.02)" style="fill:#f6fafd"/><ellipse cx="41.003" cy="27.987" rx="1.642" ry="2.286" transform="translate(-7.777 37.207) rotate(-45.02)" style="fill:#f6fafd"/><ellipse cx="38.746" cy="30.5" rx="0.413" ry="0.574" transform="translate(-10.217 36.348) rotate(-45.02)" style="fill:#f6fafd"/><ellipse cx="36.746" cy="37.5" rx="0.413" ry="0.574" transform="translate(-15.754 36.985) rotate(-45.02)" style="fill:#f6fafd"/><ellipse cx="3.746" cy="29.5" rx="0.413" ry="0.574" transform="translate(-19.769 11.297) rotate(-45.02)" style="fill:#f6fafd"/><ellipse cx="35.746" cy="38.5" rx="0.413" ry="0.574" transform="translate(-16.755 36.571) rotate(-45.02)" style="fill:#f6fafd"/></g></svg>