<svg xmlns="http://www.w3.org/2000/svg" viewBox="0 0 48 48"><title>12-cosmetic surgery</title><g id="_12-cosmetic_surgery" data-name="12-cosmetic surgery"><path d="M47.5,30.9v-.04C46.815,37.461,26.1,38,22.943,38,13.48,38,7.134,34.2,4.609,29.18A2.146,2.146,0,0,0,2.678,28a2.182,2.182,0,0,0-1.727.84,2.125,2.125,0,0,0-.419,1.59A9.277,9.277,0,0,0,4.085,35.9C3.445,38.192.5,39,.5,39c3.6,1.734,5.655.063,6.1-1.336.383.225.783.441,1.193.651.175,1.9-3.575,4.785-3.575,4.785,4.034.439,6.393-1.975,6.575-3.469a34.073,34.073,0,0,0,4.024,1.258c-.565,2.245-3.484,5.067-3.484,5.067,3.466.377,6.276-2.37,7.253-4.34,1.138.161,2.292.271,3.453.331.484,1.7,1.231,5.133-.3,6,0,0,3.771,1.042,4.092-6a40.8,40.8,0,0,0,5.18-.666c.443,1.981,2.53,5.079,6.191,4.681,0,0-3.1-3-3.519-5.276q1.02-.26,2.017-.567c.524,1.5,2.53,3.369,6.039,2.987,0,0-2.721-2.1-3.42-3.891.388-.151.763-.311,1.138-.473.728,1.378,3.488,2.945,7.023,1.243,0,0-3.737-.907-4.088-2.716C45.308,35.523,47.319,33.369,47.5,30.9Z" style="fill:#192b44"/><path d="M47.5,30.86C46.815,37.46,26.1,38,22.943,38,13.48,38,7.134,34.2,4.609,29.18A2.146,2.146,0,0,0,2.678,28a2.182,2.182,0,0,0-1.727.84,2.156,2.156,0,0,0-.437,1.173c.04,0,.08-.013.12-.013a2.148,2.148,0,0,1,1.932,1.18C5.09,36.2,13.515,40,22.978,40c8.116,0,23.422-2.348,24.481-8.778.014-.107.033-.214.041-.322Z" style="fill:#415372"/><path d="M47.49,30.84v.02C46.805,37.46,26.09,38,22.933,38,13.469,38,7.123,34.2,4.6,29.18A2.147,2.147,0,0,0,2.668,28h.9S2.545,16,18.9,15C18.9,15,45.272,15.99,47.49,30.84Z" style="fill:#ffcdbe"/><path d="M40.653,38.2A41.337,41.337,0,0,1,24.006,42h-.021a38.788,38.788,0,0,1-7.256-.69,34.567,34.567,0,0,1-7.112-2.14A23.414,23.414,0,0,1,5.58,37.03C2.79,35.17.91,32.9.522,30.43a2.125,2.125,0,0,1,.419-1.59A2.182,2.182,0,0,1,2.668,28,2.147,2.147,0,0,1,4.6,29.18C7.123,34.2,13.469,38,22.933,38c3.157,0,23.872-.54,24.557-7.14v.04C47.275,33.83,44.485,36.32,40.653,38.2Z" style="fill:#192b44"/><path d="M47.5,30.84C45.282,15.99,18.906,15,18.906,15c-8.911.545-12.657,4.356-14.225,7.712a11.769,11.769,0,0,1,.872-.831C7.727,19.486,11.458,17.393,17.884,17c0,0,26.377.99,28.594,15.84v.02c0,.033-.012.065-.017.1a3.583,3.583,0,0,0,1.039-2.1Z" style="fill:#ffeee5"/><path d="M22.943,34C13.48,34,7.134,30.2,4.609,25.18a2.091,2.091,0,0,0-.59-.7A10.923,10.923,0,0,0,3.577,28h-.9a2.146,2.146,0,0,1,1.931,1.18C7.134,34.2,13.48,38,22.943,38c3.158,0,23.872-.54,24.557-7.14v-.02a12.4,12.4,0,0,0-.614-2.4C43.347,33.547,25.827,34,22.943,34Z" style="fill:#ffbeaa"/><ellipse cx="41.377" cy="32.202" rx="0.837" ry="1.165" transform="translate(-10.742 37.912) rotate(-44.144)" style="fill:#f6fafd"/><ellipse cx="41.38" cy="28.111" rx="1.665" ry="2.318" transform="translate(-7.893 36.758) rotate(-44.144)" style="fill:#f6fafd"/><ellipse cx="39.102" cy="30.674" rx="0.418" ry="0.582" transform="translate(-10.32 35.895) rotate(-44.144)" style="fill:#f6fafd"/><ellipse cx="37.084" cy="37.808" rx="0.418" ry="0.582" transform="translate(-15.859 36.504) rotate(-44.144)" style="fill:#f6fafd"/><ellipse cx="3.776" cy="29.654" rx="0.418" ry="0.582" transform="translate(-19.587 11.004) rotate(-44.144)" style="fill:#f6fafd"/><ellipse cx="36.074" cy="38.827" rx="0.418" ry="0.582" transform="translate(-16.854 36.089) rotate(-44.144)" style="fill:#f6fafd"/><path d="M47,13.99c-.31-.26-5.471-4.45-19.164-5.35-10.622-.7-18.973,4.39-22.444,6.95a2.13,2.13,0,0,1-3-.49l-1.1-1.69a1.725,1.725,0,0,1,.2-2.16C3.592,8.97,9.793,4,23.806,4,41.579,4,46.79,13.58,47,13.99Z" style="fill:#192b44"/><path d="M3.491,14.25C5.592,11.97,11.793,7,25.805,7c10.324,0,16.4,3.231,19.732,6.021A11,11,0,0,1,47,13.99C46.79,13.58,41.579,4,23.805,4,9.793,4,3.592,8.97,1.491,11.25a1.725,1.725,0,0,0-.2,2.16l1.1,1.69a1.922,1.922,0,0,0,.649.608A1.728,1.728,0,0,1,3.491,14.25Z" style="fill:#415372"/><path d="M18,29.586V24H16v5.586l-1.293-1.293-1.414,1.414,3,3a1,1,0,0,0,1.414,0l3-3-1.414-1.414Z" style="fill:#4f7fff"/><path d="M34.707,18.293l-3-3a1,1,0,0,0-1.414,0l-3,3,1.414,1.414L30,18.414V24h2V18.414l1.293,1.293Z" style="fill:#4f7fff"/><rect x="30" y="26" width="2" height="2" style="fill:#376dff"/><rect x="16" y="20" width="2" height="2" style="fill:#376dff"/><path d="M17.707,31.707a1,1,0,0,1-1.414,0l-2.5-2.5-.5.5,3,3a1,1,0,0,0,1.414,0l3-3-.5-.5Z" style="fill:#759bff"/><path d="M31.707,16.293l2.5,2.5.5-.5-3-3a1,1,0,0,0-1.414,0l-3,3,.5.5,2.5-2.5A1,1,0,0,1,31.707,16.293Z" style="fill:#759bff"/></g></svg>