<svg xmlns="http://www.w3.org/2000/svg" viewBox="0 0 48 48"><title>13-breast augmentation</title><g id="_13-breast_augmentation" data-name="13-breast augmentation"><circle cx="20" cy="21" r="2" style="fill:#faa68e"/><path d="M31,36c-7.06,1-13.23-13-10.2-16C23.99,16.84,30.88,1,30.88,1H47V47H28Z" style="fill:#ffbeaa"/><path d="M37,33s-15.435-.008-16.923-11.39C19.343,26.3,24.831,36.874,31,36,31,36,37,36,37,33Z" style="fill:#faa68e"/><path d="M31,36,28,47h4l3.7-12.036A11.313,11.313,0,0,1,31,36Z" style="fill:#ffdecf"/><path d="M29.59,31.737C25.423,28.3,22.729,22.05,24.8,20,27.99,16.84,34.88,1,34.88,1h-4S23.99,16.84,20.8,20a2.835,2.835,0,0,0-.723,1.61C20.851,27.533,25.4,30.372,29.59,31.737Z" style="fill:#ffdecf"/><path d="M26,39.5a7.056,7.056,0,0,1-1.069-.082.5.5,0,1,1,.151-.988A6.087,6.087,0,0,0,26,38.5a.5.5,0,0,1,0,1Zm-2.9-.645a.483.483,0,0,1-.2-.043,9.414,9.414,0,0,1-.938-.478.5.5,0,1,1,.5-.865,9.142,9.142,0,0,0,.842.429.5.5,0,0,1-.2.957Zm-2.521-1.606a.5.5,0,0,1-.321-.116q-.392-.328-.77-.693a.5.5,0,0,1,.7-.72c.234.226.473.442.717.645a.5.5,0,0,1-.321.884Zm-2.1-2.137a.5.5,0,0,1-.385-.18c-.216-.261-.428-.53-.634-.8a.5.5,0,1,1,.8-.6c.2.261.4.518.605.767a.5.5,0,0,1-.384.819Zm-1.752-2.435a.5.5,0,0,1-.424-.235q-.271-.431-.527-.875a.5.5,0,0,1,.868-.5q.245.427.505.842a.5.5,0,0,1-.157.69A.507.507,0,0,1,16.724,32.677ZM15.271,30.05a.5.5,0,0,1-.45-.282q-.223-.464-.427-.926a.5.5,0,1,1,.915-.4c.13.3.268.6.412.893a.5.5,0,0,1-.45.718ZM14.11,27.281a.5.5,0,0,1-.471-.332q-.174-.489-.323-.97a.5.5,0,0,1,.955-.3c.1.307.2.618.311.93a.5.5,0,0,1-.3.639A.491.491,0,0,1,14.11,27.281Zm-.821-2.887a.5.5,0,0,1-.49-.4c-.072-.35-.132-.69-.178-1.018a.5.5,0,0,1,.99-.14c.044.308.1.626.168.954a.5.5,0,0,1-.388.592A.518.518,0,0,1,13.289,24.394Zm-.27-2.981h-.035a.5.5,0,0,1-.464-.534,5.17,5.17,0,0,1,.183-1.089.5.5,0,0,1,.96.279,4.206,4.206,0,0,0-.145.88A.5.5,0,0,1,13.019,21.413ZM14.3,18.791a.5.5,0,0,1-.389-.813c.188-.234.388-.5.6-.78a.5.5,0,0,1,.8.595c-.22.3-.428.568-.623.811A.5.5,0,0,1,14.3,18.791Zm1.763-2.437a.5.5,0,0,1-.414-.779c.181-.267.365-.545.552-.829a.5.5,0,1,1,.836.548q-.284.433-.559.84A.5.5,0,0,1,16.058,16.354Zm1.64-2.519a.5.5,0,0,1-.423-.767l.531-.846a.5.5,0,1,1,.849.528l-.534.852A.5.5,0,0,1,17.7,13.835Zm1.582-2.557a.5.5,0,0,1-.427-.759l.519-.858a.5.5,0,0,1,.857.516l-.521.861A.5.5,0,0,1,19.28,11.278ZM20.827,8.7a.493.493,0,0,1-.255-.07.5.5,0,0,1-.175-.685l.509-.861a.5.5,0,0,1,.861.507l-.51.864A.5.5,0,0,1,20.827,8.7ZM22.346,6.1a.5.5,0,0,1-.432-.75l.5-.867a.5.5,0,0,1,.866.5l-.5.869A.5.5,0,0,1,22.346,6.1Zm1.5-2.608a.5.5,0,0,1-.434-.747l.494-.872a.5.5,0,1,1,.87.492l-.5.874A.5.5,0,0,1,23.844,3.5Z" style="fill:#a7bfe8"/><path d="M4.707,29.707,3.293,28.293l-3,3a1,1,0,0,0,0,1.414l3,3,1.414-1.414L3.414,33H7V31H3.414Z" style="fill:#4f7fff"/><path d="M4.707,9.707,3.293,8.293l-3,3a1,1,0,0,0,0,1.414l3,3,1.414-1.414L3.414,13H7V11H3.414Z" style="fill:#4f7fff"/><path d="M1.293,11.293l2.5-2.5-.5-.5-3,3a1,1,0,0,0,0,1.414l3,3,.5-.5-2.5-2.5A1,1,0,0,1,1.293,11.293Z" style="fill:#759bff"/><path d="M1.293,31.293l2.5-2.5-.5-.5-3,3a1,1,0,0,0,0,1.414l3,3,.5-.5-2.5-2.5A1,1,0,0,1,1.293,31.293Z" style="fill:#759bff"/><rect x="9" y="31" width="2" height="2" style="fill:#3161e3"/><rect x="9" y="11" width="2" height="2" style="fill:#3161e3"/><ellipse cx="24" cy="19" rx="0.825" ry="1.148" transform="translate(-6.404 22.546) rotate(-45.02)" style="fill:#f6fafd"/><ellipse cx="22.746" cy="20.5" rx="0.413" ry="0.574" transform="translate(-7.833 22.099) rotate(-45.02)" style="fill:#f6fafd"/></g></svg>