<svg xmlns="http://www.w3.org/2000/svg" viewBox="0 0 48 48"><title>14-silicone breasts</title><g id="_14-silicone_breasts" data-name="14-silicone breasts"><path d="M4.707,29.707,3.293,28.293l-3,3a1,1,0,0,0,0,1.414l3,3,1.414-1.414L3.414,33H7V31H3.414Z" style="fill:#4f7fff"/><path d="M4.707,9.707,3.293,8.293l-3,3a1,1,0,0,0,0,1.414l3,3,1.414-1.414L3.414,13H7V11H3.414Z" style="fill:#4f7fff"/><path d="M1.293,11.293l2.5-2.5-.5-.5-3,3a1,1,0,0,0,0,1.414l3,3,.5-.5-2.5-2.5A1,1,0,0,1,1.293,11.293Z" style="fill:#759bff"/><path d="M1.293,31.293l2.5-2.5-.5-.5-3,3a1,1,0,0,0,0,1.414l3,3,.5-.5-2.5-2.5A1,1,0,0,1,1.293,31.293Z" style="fill:#759bff"/><rect x="9" y="31" width="2" height="2" style="fill:#3161e3"/><rect x="9" y="11" width="2" height="2" style="fill:#3161e3"/><path d="M20,24c0-7,5-9,11-13A12.918,12.918,0,0,0,37,1H47V47H33V37.3a3,3,0,0,0-2.08-2.85C26.05,32.87,20,31.83,20,24ZM33.64,14a8.383,8.383,0,0,0-6.11,3.01A9.479,9.479,0,0,0,25,23c0,3.98,3.87,9,8.64,9A3.113,3.113,0,0,0,37,29.2V16.8a2.582,2.582,0,0,0-.98-1.98A3.706,3.706,0,0,0,33.64,14Z" style="fill:#ff6e7c"/><path d="M34.92,34.45C30.05,32.87,24,31.83,24,24c0-7,5-9,11-13A12.918,12.918,0,0,0,41,1H37a12.918,12.918,0,0,1-6,10c-6,4-11,6-11,13,0,7.83,6.05,8.87,10.92,10.45A3,3,0,0,1,33,37.3V47h4V37.3A3,3,0,0,0,34.92,34.45Z" style="fill:#f25a6b"/><path d="M33,1h4a12.918,12.918,0,0,1-6,10c-6,4-11,6-11,13,0,7.83,6.05,8.87,10.92,10.45A3,3,0,0,1,33,37.3V47H28V40.3a3,3,0,0,0-2.08-2.85C21.48,36.01,15.93,32.53,15,26a2,2,0,0,1,0-4c.55-5.43,3.61-7.41,9-11A29.142,29.142,0,0,0,33,1Z" style="fill:#ffcdbe"/><path d="M30.92,34.45C26.05,32.87,20,31.83,20,24c0-7,5-9,11-13A12.918,12.918,0,0,0,37,1H35a16.4,16.4,0,0,1-7,10c-6,4-11,6-11,13,0,7.83,6.05,8.87,10.92,10.45A3,3,0,0,1,30,37.3V47h3V37.3A3,3,0,0,0,30.92,34.45Z" style="fill:#ffbeaa"/><path d="M37,16.8V29.2A3.113,3.113,0,0,1,33.64,32C28.87,32,25,26.98,25,23a9.479,9.479,0,0,1,2.53-5.99A8.383,8.383,0,0,1,33.64,14a3.706,3.706,0,0,1,2.38.82A2.582,2.582,0,0,1,37,16.8Z" style="fill:#759bff"/><path d="M27,21a9.183,9.183,0,0,1,1.979-5.318A10.244,10.244,0,0,0,27.53,17.01,9.479,9.479,0,0,0,25,23c0,3.98,3.87,9,8.64,9a3.269,3.269,0,0,0,3.284-2.213A3.952,3.952,0,0,1,35.64,30C30.87,30,27,24.98,27,21Z" style="fill:#4f7fff"/><ellipse cx="34" cy="22" rx="0.825" ry="1.148" transform="translate(-5.595 30.499) rotate(-45.02)" style="fill:#f6fafd"/><ellipse cx="33.003" cy="17.987" rx="1.642" ry="2.286" transform="translate(-3.049 28.617) rotate(-45.02)" style="fill:#f6fafd"/><ellipse cx="29.746" cy="25.5" rx="0.413" ry="0.574" transform="translate(-9.318 28.516) rotate(-45.02)" style="fill:#f6fafd"/></g></svg>