<svg xmlns="http://www.w3.org/2000/svg" viewBox="0 0 48 48"><title>15-breast augmentation</title><g id="_15-breast_augmentation" data-name="15-breast augmentation"><path d="M38.05,31.39a5.171,5.171,0,0,1-1.07.73L35,47H13L11.02,32.12a5.171,5.171,0,0,1-1.07-.73L8,47H1V18c0-8,9.18-5.59,14-8,4-2,4-9,4-9H29s0,7,4,9c4.82,2.41,14,0,14,8V47H40ZM34,27a1,1,0,1,0-1,1A1,1,0,0,0,34,27ZM16,27a1,1,0,1,0-1,1A1,1,0,0,0,16,27Z" style="fill:#ffbeaa"/><path d="M15,12c4-2,4-11,4-11s0,7-4,9c-4.82,2.41-14,0-14,8v4C1,14,10.18,14.41,15,12Z" style="fill:#ffdecf"/><path d="M33,10c-4-2-4-9-4-9s0,9,4,11c4.82,2.41,14,2,14,10V18C47,10,37.82,12.41,33,10Z" style="fill:#ffdecf"/><path d="M33,33a7,7,0,0,1-7-7,5.486,5.486,0,0,1,.3-1.557A6.6,6.6,0,0,0,24,29a7,7,0,0,0,7,7,8.257,8.257,0,0,0,3.98-.88,5.171,5.171,0,0,0,1.07-.73,5.281,5.281,0,0,0,.736-.815l.194-1.455A8.257,8.257,0,0,1,33,33Z" style="fill:#faa68e"/><path d="M13.015,35.12A8.257,8.257,0,0,0,17,36a7,7,0,0,0,7-7,6.6,6.6,0,0,0-2.3-4.557A5.486,5.486,0,0,1,22,26a7,7,0,0,1-7,7,8.257,8.257,0,0,1-3.975-.878l.2,1.462a5.33,5.33,0,0,0,.73.806A5.171,5.171,0,0,0,13.015,35.12Z" style="fill:#faa68e"/><path d="M39.84,25A11.832,11.832,0,0,0,37.1,19.105c.107.977.319,2.6.738,4.895a6.666,6.666,0,0,1-1.79,6.39,5.171,5.171,0,0,1-1.07.73A8.257,8.257,0,0,1,31,32a6.984,6.984,0,0,1-2.072-.312A6.957,6.957,0,0,0,33,33a8.257,8.257,0,0,0,3.98-.88,5.171,5.171,0,0,0,1.07-.73A6.666,6.666,0,0,0,39.84,25Z" style="fill:#ffdecf"/><path d="M16.923,32a8.257,8.257,0,0,1-3.98-.88,5.171,5.171,0,0,1-1.07-.73A6.666,6.666,0,0,1,10.083,24c.406-2.226.618-3.818.728-4.8A11.587,11.587,0,0,0,8.083,25a6.666,6.666,0,0,0,1.79,6.39,5.171,5.171,0,0,0,1.07.73,8.257,8.257,0,0,0,3.98.88A6.96,6.96,0,0,0,19,31.688,6.984,6.984,0,0,1,16.923,32Z" style="fill:#ffdecf"/><path d="M9.873,31.39a5.35,5.35,0,0,1-1.1-1.353L5,47H8L9.943,31.445C9.921,31.426,9.9,31.41,9.873,31.39Z" style="fill:#faa68e"/><path d="M38.07,31.39a5.354,5.354,0,0,0,1.1-1.353L42.943,47h-3L38,31.445C38.022,31.426,38.049,31.41,38.07,31.39Z" style="fill:#faa68e"/><path d="M22,24.071a.5.5,0,0,1-.5-.5,2.392,2.392,0,0,0-.143-.809.5.5,0,0,1,.941-.337,3.384,3.384,0,0,1,.2,1.146A.5.5,0,0,1,22,24.071Zm-1.309-2.6a.5.5,0,0,1-.337-.13,5.977,5.977,0,0,0-.729-.565.5.5,0,1,1,.554-.833,7.226,7.226,0,0,1,.849.658.5.5,0,0,1-.337.87Zm-2.57-1.515a.494.494,0,0,1-.18-.033q-.435-.168-.907-.3a.5.5,0,1,1,.279-.96q.515.148.988.332a.5.5,0,0,1-.18.966Zm-2.9-.734a.549.549,0,0,1-.07-.005c-.315-.045-.635-.08-.962-.1a.5.5,0,0,1-.461-.536.492.492,0,0,1,.536-.461c.349.026.692.063,1.027.11a.5.5,0,0,1-.07,1Z" style="fill:#d47f6c"/><path d="M26,24.071a.5.5,0,0,1-.5-.5,3.384,3.384,0,0,1,.2-1.146.5.5,0,1,1,.941.337,2.392,2.392,0,0,0-.143.809A.5.5,0,0,1,26,24.071Zm1.309-2.6a.5.5,0,0,1-.337-.87,7.226,7.226,0,0,1,.849-.658.5.5,0,1,1,.554.833,5.977,5.977,0,0,0-.729.565A.5.5,0,0,1,27.309,21.474Zm2.57-1.515a.5.5,0,0,1-.18-.966q.474-.183.988-.332a.5.5,0,1,1,.279.96q-.471.137-.907.3A.494.494,0,0,1,29.879,19.959Zm2.9-.734a.5.5,0,0,1-.07-1c.335-.047.678-.084,1.027-.11a.5.5,0,0,1,.075,1c-.327.024-.647.059-.962.1A.549.549,0,0,1,32.781,19.225Z" style="fill:#d47f6c"/><path d="M33.288,36h-.029q-.524-.03-1.01-.07a.5.5,0,1,1,.082-1q.474.038.984.068a.5.5,0,0,1-.027,1Zm-2.983-.3a.549.549,0,0,1-.08-.006c-.355-.057-.692-.121-1.009-.19a.5.5,0,1,1,.213-.977c.3.066.618.125.955.179a.5.5,0,0,1-.079.994Zm-2.894-.76a.475.475,0,0,1-.19-.039,6.6,6.6,0,0,1-.963-.483.5.5,0,1,1,.523-.851,5.869,5.869,0,0,0,.821.411.5.5,0,0,1-.191.962Zm-2.223-1.89a.5.5,0,0,1-.462-.309,3.016,3.016,0,0,1-.226-1.165.5.5,0,1,1,1,0,2.008,2.008,0,0,0,.15.783.5.5,0,0,1-.27.653A.521.521,0,0,1,25.188,33.045Z" style="fill:#d47f6c"/><path d="M13.712,36a.5.5,0,0,1-.029-1c.34-.021.669-.043.986-.068a.5.5,0,0,1,.082,1q-.486.041-1.009.07Zm2.982-.3a.5.5,0,0,1-.079-.994c.337-.054.655-.113.956-.179a.5.5,0,0,1,.213.977c-.318.069-.654.133-1.01.19A.529.529,0,0,1,16.694,35.7Zm2.895-.76a.5.5,0,0,1-.191-.962,5.923,5.923,0,0,0,.821-.411.5.5,0,1,1,.523.851,6.6,6.6,0,0,1-.963.483A.475.475,0,0,1,19.589,34.935Zm2.223-1.89a.5.5,0,0,1-.461-.691,2.041,2.041,0,0,0,.149-.783.5.5,0,1,1,1,0,3.023,3.023,0,0,1-.226,1.165A.5.5,0,0,1,21.812,33.045Z" style="fill:#d47f6c"/><circle cx="15" cy="27" r="1" style="fill:#faa68e"/><circle cx="33" cy="27" r="1" style="fill:#faa68e"/><ellipse cx="43" cy="16" rx="0.825" ry="1.148" transform="translate(1.287 35.106) rotate(-45.02)" style="fill:#f6fafd"/><ellipse cx="38" cy="25" rx="0.825" ry="1.148" transform="translate(-6.545 34.208) rotate(-45.02)" style="fill:#f6fafd"/><ellipse cx="37.746" cy="27.5" rx="0.413" ry="0.574" transform="translate(-8.388 34.761) rotate(-45.02)" style="fill:#f6fafd"/><ellipse cx="10" cy="25" rx="0.825" ry="1.148" transform="translate(-14.752 14.402) rotate(-45.02)" style="fill:#f6fafd"/><ellipse cx="9.746" cy="27.5" rx="0.413" ry="0.574" transform="translate(-16.595 14.955) rotate(-45.02)" style="fill:#f6fafd"/></g></svg>