<svg xmlns="http://www.w3.org/2000/svg" viewBox="0 0 48 48"><title>16-nose augmentation</title><g id="_16-nose_augmentation" data-name="16-nose augmentation"><path d="M44.78,31.179A12.254,12.254,0,0,1,47,39a8.051,8.051,0,0,1-8.41,8,8.615,8.615,0,0,1-4.99-1.8l-7.2-5.4a4,4,0,0,0-4.8,0l-7.2,5.4A8.615,8.615,0,0,1,9.41,47,8.051,8.051,0,0,1,1,39a12.254,12.254,0,0,1,2.22-7.82,25.791,25.791,0,0,0,1.53-2.71c1.71-3.5,5.82-12.149,7.03-16.549a14.67,14.67,0,0,1,.92-2.58C14.99,4.56,19.29,1,24,1s9.01,3.56,11.3,8.34a14.67,14.67,0,0,1,.92,2.58c1.21,4.4,5.32,13.049,7.03,16.549A25.791,25.791,0,0,0,44.78,31.179ZM36.15,36.9c1.36-.7,1.05-4.81-.69-9.17s-4.25-7.33-5.61-6.63-1.05,4.81.69,9.17S34.79,37.6,36.15,36.9Zm-18.69-6.63c1.74-4.36,2.05-8.47.69-9.17s-3.87,2.27-5.61,6.63-2.05,8.47-.69,9.17S15.72,34.629,17.46,30.269Z" style="fill:#ffcdbe"/><path d="M38.59,43a8.615,8.615,0,0,1-4.99-1.8l-7.2-5.4a4,4,0,0,0-4.8,0l-7.2,5.4A8.615,8.615,0,0,1,9.41,43a8.092,8.092,0,0,1-8.268-6.521A19.889,19.889,0,0,0,1,39a8.051,8.051,0,0,0,8.41,8,8.615,8.615,0,0,0,4.99-1.8l7.2-5.4a4,4,0,0,1,4.8,0l7.2,5.4A8.615,8.615,0,0,0,38.59,47,8.051,8.051,0,0,0,47,39a19.889,19.889,0,0,0-.142-2.521A8.092,8.092,0,0,1,38.59,43Z" style="fill:#ffbeaa"/><path d="M4.75,32.469c1.71-3.5,5.82-12.149,7.03-16.549a14.67,14.67,0,0,1,.92-2.58C14.99,8.56,19.29,5,24,5s9.01,3.56,11.3,8.34a14.67,14.67,0,0,1,.92,2.58c1.21,4.4,5.32,13.049,7.03,16.549a25.791,25.791,0,0,0,1.53,2.71,11.694,11.694,0,0,1,2.078,5.3A8.054,8.054,0,0,0,47,39a12.254,12.254,0,0,0-2.22-7.82,25.791,25.791,0,0,1-1.53-2.71c-1.71-3.5-5.82-12.149-7.03-16.549a14.67,14.67,0,0,0-.92-2.58C33.01,4.56,28.71,1,24,1S14.99,4.56,12.7,9.34a14.67,14.67,0,0,0-.92,2.58c-1.21,4.4-5.32,13.049-7.03,16.549a25.791,25.791,0,0,1-1.53,2.71A12.254,12.254,0,0,0,1,39a8.054,8.054,0,0,0,.142,1.479,11.694,11.694,0,0,1,2.078-5.3A25.791,25.791,0,0,0,4.75,32.469Z" style="fill:#ffeee5"/><path d="M18.609,20.213a2.067,2.067,0,0,0-1.725-.053c-2.081.778-4.089,4.231-5.275,7.2h0c-1.68,4.211-2.466,9.269-.219,10.424a1.939,1.939,0,0,0,.891.214,2.359,2.359,0,0,0,.835-.16c2.081-.778,4.089-4.231,5.275-7.2C20.071,26.428,20.857,21.37,18.609,20.213Z" style="fill:#586889"/><path d="M36.391,27.363c-1.186-2.972-3.194-6.425-5.275-7.2a2.074,2.074,0,0,0-1.726.053c-2.247,1.157-1.461,6.215.219,10.424,1.186,2.972,3.194,6.425,5.275,7.2a2.359,2.359,0,0,0,.835.16,1.945,1.945,0,0,0,.89-.213C38.857,36.631,38.071,31.573,36.391,27.363Z" style="fill:#586889"/><path d="M18.15,21.1c1.36.7,1.05,4.81-.69,9.17s-4.25,7.33-5.61,6.63-1.05-4.81.69-9.17S16.79,20.4,18.15,21.1Z" style="fill:#2b3e5b"/><path d="M35.46,27.73c1.74,4.36,2.05,8.47.69,9.17s-3.87-2.27-5.61-6.63-2.05-8.47-.69-9.17S33.72,23.37,35.46,27.73Z" style="fill:#2b3e5b"/><path d="M16.047,10.1a.5.5,0,0,0-.665.24l-.426.905a.5.5,0,0,0,.239.666.51.51,0,0,0,.213.047.5.5,0,0,0,.452-.287l.426-.905A.5.5,0,0,0,16.047,10.1Z" style="fill:#d47f6c"/><path d="M13.853,15.681a.5.5,0,0,0-.647.286l-.366.927a.5.5,0,0,0,.279.649.492.492,0,0,0,.186.036.5.5,0,0,0,.465-.315l.368-.936A.5.5,0,0,0,13.853,15.681Z" style="fill:#d47f6c"/><path d="M17.318,7.823c-.263.248-.508.509-.726.76a.5.5,0,1,0,.756.655A9.271,9.271,0,0,1,18,8.551a.5.5,0,0,0-.686-.728Z" style="fill:#d47f6c"/><path d="M12.737,18.47a.5.5,0,0,0-.653.269l-.388.92a.5.5,0,0,0,.92.391l.39-.926A.5.5,0,0,0,12.737,18.47Z" style="fill:#d47f6c"/><path d="M23.168,8.284a4.483,4.483,0,0,0-.725-.857.5.5,0,0,0-.672.741,3.472,3.472,0,0,1,.563.667.5.5,0,1,0,.834-.551Z" style="fill:#d47f6c"/><path d="M20.358,6.515a3.007,3.007,0,0,0-1.181.12.5.5,0,1,0,.306.952,2.007,2.007,0,0,1,.789-.076.5.5,0,0,0,.086-1Z" style="fill:#d47f6c"/><path d="M14.849,12.848a.5.5,0,0,0-.63.321c-.1.3-.2.609-.319.934a.5.5,0,0,0,.3.639.485.485,0,0,0,.167.029.5.5,0,0,0,.471-.333q.178-.5.328-.96A.5.5,0,0,0,14.849,12.848Z" style="fill:#d47f6c"/><path d="M4.057,37.5a.5.5,0,0,0-.529.47c-.019.322-.028.664-.028,1.028a.5.5,0,0,0,1,0c0-.343.009-.665.026-.97A.5.5,0,0,0,4.057,37.5Z" style="fill:#d47f6c"/><path d="M6.287,32.014a.5.5,0,0,0-.691.148c-.194.3-.372.584-.538.863a.5.5,0,0,0,.859.512c.16-.269.333-.545.519-.832A.5.5,0,0,0,6.287,32.014Z" style="fill:#d47f6c"/><path d="M7.792,29.42a.5.5,0,0,0-.675.212c-.15.29-.308.575-.471.856a.5.5,0,0,0,.181.684.5.5,0,0,0,.251.067.5.5,0,0,0,.433-.249q.256-.442.493-.895A.5.5,0,0,0,7.792,29.42Z" style="fill:#d47f6c"/><path d="M11.561,21.234a.5.5,0,0,0-.659.259l-.4.913a.5.5,0,0,0,.914.406l.405-.92A.5.5,0,0,0,11.561,21.234Z" style="fill:#d47f6c"/><path d="M4.778,34.6a.5.5,0,0,0-.643.293,9.366,9.366,0,0,0-.312,1.01.5.5,0,0,0,.971.239,7.919,7.919,0,0,1,.278-.9A.5.5,0,0,0,4.778,34.6Z" style="fill:#d47f6c"/><path d="M9.091,26.71a.5.5,0,0,0-.666.236l-.431.9a.5.5,0,0,0,.9.431l.431-.9A.5.5,0,0,0,9.091,26.71Z" style="fill:#d47f6c"/><path d="M10.347,23.982a.5.5,0,0,0-.662.246l-.417.91a.5.5,0,1,0,.908.418l.417-.911A.5.5,0,0,0,10.347,23.982Z" style="fill:#d47f6c"/><path d="M24,24.854a.5.5,0,0,0-.5.5v1a.5.5,0,0,0,1,0v-1A.5.5,0,0,0,24,24.854Z" style="fill:#d47f6c"/><path d="M24,27.854a.5.5,0,0,0-.5.5v1a.5.5,0,0,0,1,0v-1A.5.5,0,0,0,24,27.854Z" style="fill:#d47f6c"/><path d="M24,30.854a.5.5,0,0,0-.5.5v1a.5.5,0,0,0,1,0v-1A.5.5,0,0,0,24,30.854Z" style="fill:#d47f6c"/><path d="M24,21.854a.5.5,0,0,0-.5.5v1a.5.5,0,0,0,1,0v-1A.5.5,0,0,0,24,21.854Z" style="fill:#d47f6c"/><path d="M30.682,7.823A.5.5,0,0,0,30,8.551a9.271,9.271,0,0,1,.656.687.5.5,0,0,0,.378.173.5.5,0,0,0,.378-.828C31.19,8.332,30.945,8.071,30.682,7.823Z" style="fill:#d47f6c"/><path d="M40.006,27.85l-.431-.9a.5.5,0,1,0-.9.43l.431.9a.5.5,0,1,0,.9-.431Z" style="fill:#d47f6c"/><path d="M38.732,25.138l-.417-.91a.5.5,0,1,0-.908.417l.417.911a.5.5,0,0,0,.908-.418Z" style="fill:#d47f6c"/><path d="M37.5,22.406l-.4-.913a.5.5,0,0,0-.918.4l.405.92a.5.5,0,1,0,.914-.406Z" style="fill:#d47f6c"/><path d="M40.883,29.632A.5.5,0,1,0,40,30.1q.237.453.493.895a.5.5,0,0,0,.433.249.5.5,0,0,0,.251-.067.5.5,0,0,0,.181-.684C41.191,30.207,41.033,29.922,40.883,29.632Z" style="fill:#d47f6c"/><path d="M36.3,19.659l-.388-.92a.5.5,0,1,0-.922.385l.39.926a.5.5,0,1,0,.92-.391Z" style="fill:#d47f6c"/><path d="M42.942,33.025c-.166-.279-.344-.564-.538-.863a.5.5,0,0,0-.84.543c.186.287.359.563.519.832a.5.5,0,1,0,.859-.512Z" style="fill:#d47f6c"/><path d="M44.472,37.971a.5.5,0,1,0-1,.058c.017.3.026.627.026.97a.5.5,0,0,0,1,0C44.5,38.635,44.491,38.293,44.472,37.971Z" style="fill:#d47f6c"/><path d="M43.811,36.51a.5.5,0,0,0,.366-.6,9.366,9.366,0,0,0-.312-1.01.5.5,0,0,0-.937.35,7.919,7.919,0,0,1,.278.9.5.5,0,0,0,.6.366Z" style="fill:#d47f6c"/><path d="M24,15.854a.5.5,0,0,0-.5.5v1a.5.5,0,0,0,1,0v-1A.5.5,0,0,0,24,15.854Z" style="fill:#d47f6c"/><path d="M25.557,7.427a4.483,4.483,0,0,0-.725.857.5.5,0,1,0,.834.551,3.472,3.472,0,0,1,.563-.667.5.5,0,0,0-.672-.741Z" style="fill:#d47f6c"/><path d="M24.46,13.16a.5.5,0,0,0-.961.194l0,.012v.988a.5.5,0,0,0,1,0v-1A.478.478,0,0,0,24.46,13.16Z" style="fill:#d47f6c"/><path d="M24.583,9.9a.493.493,0,0,0-.583.273.5.5,0,0,0-.583-.273.5.5,0,0,0-.342.619c.091.317.163.632.22.93a.5.5,0,0,0,.49.406.619.619,0,0,0,.095-.008A.55.55,0,0,0,24,11.8a.55.55,0,0,0,.12.049.619.619,0,0,0,.095.008.5.5,0,0,0,.49-.406c.057-.3.129-.613.22-.93A.5.5,0,0,0,24.583,9.9Z" style="fill:#d47f6c"/><path d="M24,18.854a.5.5,0,0,0-.5.5v1a.5.5,0,0,0,1,0v-1A.5.5,0,0,0,24,18.854Z" style="fill:#d47f6c"/><path d="M35.16,16.894l-.366-.927a.5.5,0,1,0-.932.361l.368.936a.5.5,0,0,0,.465.315.492.492,0,0,0,.186-.036A.5.5,0,0,0,35.16,16.894Z" style="fill:#d47f6c"/><path d="M34.1,14.1c-.116-.325-.222-.638-.319-.934a.5.5,0,0,0-.951.309q.149.457.328.96a.5.5,0,0,0,.471.333.485.485,0,0,0,.167-.029A.5.5,0,0,0,34.1,14.1Z" style="fill:#d47f6c"/><path d="M28.823,6.635a2.96,2.96,0,0,0-1.181-.12.5.5,0,0,0,.086,1,1.945,1.945,0,0,1,.789.076.5.5,0,1,0,.306-.952Z" style="fill:#d47f6c"/><path d="M33.044,11.246l-.426-.905a.5.5,0,1,0-.9.426l.426.905a.5.5,0,0,0,.452.287.51.51,0,0,0,.213-.047A.5.5,0,0,0,33.044,11.246Z" style="fill:#d47f6c"/><path d="M47,16.056H43.414l1.293-1.221L43.293,13.5l-3,2.832a.907.907,0,0,0,0,1.336l3,2.832,1.414-1.335-1.293-1.221H47Z" style="fill:#4f7fff"/><path d="M41.293,16.332l2.5-2.36-.5-.472-3,2.832a.907.907,0,0,0,0,1.336l3,2.832.5-.472-2.5-2.36A.907.907,0,0,1,41.293,16.332Z" style="fill:#759bff"/><path d="M4.707,13.5,3.293,14.835l1.293,1.221H1v1.888H4.586L3.293,19.165,4.707,20.5l3-2.832a.907.907,0,0,0,0-1.336Z" style="fill:#4f7fff"/><path d="M7.707,16.332l-3-2.832-.5.472,2.5,2.36a.907.907,0,0,1,0,1.336l-2.5,2.36.5.472,3-2.832A.907.907,0,0,0,7.707,16.332Z" style="fill:#759bff"/></g></svg>