<svg xmlns="http://www.w3.org/2000/svg" viewBox="0 0 48 48"><title>17-nose augmentation</title><g id="_17-nose_augmentation" data-name="17-nose augmentation"><path d="M17,19c.06,6-5.8,12.16-8.63,15.22a4.6,4.6,0,0,0,.21,6.64A5.75,5.75,0,0,0,10.06,42H12s0-3,2-3c1.96,0,1.36,3.42,3.51,5.78A8.853,8.853,0,0,1,13,46a9,9,0,0,1-9-9,14.7,14.7,0,0,1,.43-3,9.754,9.754,0,0,1,1.51-3.33C7.75,28.07,11.73,25.13,14,20a7.042,7.042,0,0,0,.41-1.29Z" style="fill:#faa68e"/><path d="M44,37a9,9,0,0,1-13.51,7.79C32.64,42.43,32.04,39,34,39c2,0,2,3,2,3h2a5.541,5.541,0,0,0,1.47-1.14,4.588,4.588,0,0,0,.22-6.64C36.86,31.16,31,25,31.06,19l2.4-.84A9.436,9.436,0,0,0,34,20c2.27,5.13,6.25,8.07,8.06,10.67A9.754,9.754,0,0,1,43.57,34,14.7,14.7,0,0,1,44,37Z" style="fill:#faa68e"/><path d="M30.49,44.79C29.36,46.04,27.46,47,24,47s-5.37-.96-6.49-2.22C15.36,42.42,15.96,39,14,39c-2,0-2,3-2,3H10.06a5.75,5.75,0,0,1-1.48-1.14,4.6,4.6,0,0,1-.21-6.64C11.2,31.16,17.06,25,17,19l-2.59-.29C15.66,13.68,16,1,16,1h5V36a3,3,0,0,0,6,0V1h5s.32,11.82,1.46,17.16l-2.4.84c-.06,6,5.8,12.16,8.63,15.22a4.588,4.588,0,0,1-.22,6.64A5.541,5.541,0,0,1,38,42H36s0-3-2-3C32.04,39,32.64,42.43,30.49,44.79Z" style="fill:#ffbeaa"/><path d="M27,3V36a3,3,0,0,1-6,0V1h6Z" style="fill:#ffcdbe"/><path d="M17.51,44.78C15.36,42.42,15.96,39,14,39c-2,0-2,3-2,3h-.08a5.772,5.772,0,0,0,.59.78A8.853,8.853,0,0,1,8,44c-.236,0-.467-.017-.7-.035A8.963,8.963,0,0,0,13,46,8.853,8.853,0,0,0,17.51,44.78Z" style="fill:#e09380"/><path d="M35.49,42.79a5.832,5.832,0,0,0,.6-.79H36s0-3-2-3c-1.96,0-1.36,3.43-3.51,5.79A9,9,0,0,0,40.7,43.965c-.231.018-.462.035-.7.035A8.945,8.945,0,0,1,35.49,42.79Z" style="fill:#e09380"/><path d="M38,42.5a.5.5,0,0,1-.166-.972,2.28,2.28,0,0,0,.663-.451.5.5,0,0,1,.664.748,3.167,3.167,0,0,1-1,.647A.508.508,0,0,1,38,42.5Zm2.229-1.972a.5.5,0,0,1-.411-.786,3.678,3.678,0,0,0,.414-.776.5.5,0,0,1,.932.365,4.73,4.73,0,0,1-.525.983A.5.5,0,0,1,40.229,40.528Zm.76-2.84a.5.5,0,0,1-.5-.465,4.242,4.242,0,0,0-.156-.881.5.5,0,0,1,.961-.276,5.322,5.322,0,0,1,.193,1.086.5.5,0,0,1-.464.535Zm-1.1-2.741a.5.5,0,0,1-.386-.182c-.058-.069-.117-.137-.179-.2l-.476-.516a.5.5,0,1,1,.734-.678l.474.512c.076.08.149.164.218.25a.5.5,0,0,1-.385.817Zm-2.022-2.219a.5.5,0,0,1-.373-.167q-.327-.367-.666-.76a.5.5,0,0,1,.758-.653c.222.258.44.506.654.747a.5.5,0,0,1-.373.833ZM35.93,30.434a.5.5,0,0,1-.392-.19q-.312-.393-.62-.8a.5.5,0,0,1,.8-.6c.2.265.4.526.606.782a.5.5,0,0,1-.391.811Zm-1.772-2.421a.5.5,0,0,1-.416-.223c-.188-.282-.372-.569-.55-.858a.5.5,0,1,1,.852-.524c.172.28.35.555.53.827a.5.5,0,0,1-.138.694A.508.508,0,0,1,34.158,28.013Zm-1.519-2.588a.5.5,0,0,1-.447-.276q-.231-.461-.438-.927a.5.5,0,0,1,.916-.4c.13.3.268.591.416.882a.5.5,0,0,1-.223.671A.486.486,0,0,1,32.639,25.425Zm-1.116-2.781a.5.5,0,0,1-.48-.36q-.145-.5-.252-1.007a.5.5,0,0,1,.979-.206q.1.468.234.933a.5.5,0,0,1-.341.62A.488.488,0,0,1,31.523,22.644ZM31.06,19.69a.5.5,0,0,1-.5-.5v-.1a.54.54,0,0,1,.5-.545.464.464,0,0,1,.5.455v.19A.5.5,0,0,1,31.06,19.69Z" style="fill:#d47f6c"/><path d="M10.06,42.5a.5.5,0,0,1-.166-.028,3.159,3.159,0,0,1-1-.646.5.5,0,1,1,.663-.748,2.292,2.292,0,0,0,.665.45.5.5,0,0,1-.166.972ZM7.828,40.532a.5.5,0,0,1-.411-.215,4.758,4.758,0,0,1-.523-.984.5.5,0,1,1,.931-.363,3.786,3.786,0,0,0,.414.777.5.5,0,0,1-.411.785ZM7.069,37.69H7.033a.5.5,0,0,1-.464-.534,5.5,5.5,0,0,1,.192-1.085.5.5,0,0,1,.963.274,4.357,4.357,0,0,0-.157.882A.5.5,0,0,1,7.069,37.69Zm1.1-2.741a.5.5,0,0,1-.386-.818c.072-.087.147-.173.225-.255l.468-.5a.5.5,0,1,1,.736.676l-.475.513c-.065.07-.125.138-.182.208A.5.5,0,0,1,8.168,34.949Zm2.021-2.219a.5.5,0,0,1-.373-.833q.321-.36.655-.746a.5.5,0,0,1,.758.653c-.226.261-.449.515-.667.759A.5.5,0,0,1,10.189,32.73Zm1.938-2.294a.5.5,0,0,1-.392-.811c.2-.256.406-.517.607-.782a.5.5,0,1,1,.8.6q-.308.408-.62.8A.5.5,0,0,1,12.127,30.436ZM13.9,28.017a.507.507,0,0,1-.277-.084.5.5,0,0,1-.139-.694c.181-.272.359-.548.531-.827a.5.5,0,1,1,.851.524c-.178.289-.361.576-.55.858A.5.5,0,0,1,13.9,28.017Zm1.52-2.588a.506.506,0,0,1-.225-.054.5.5,0,0,1-.221-.671q.219-.438.415-.882a.5.5,0,0,1,.916.4q-.207.468-.438.927A.5.5,0,0,1,15.42,25.429Zm1.115-2.783a.477.477,0,0,1-.139-.02.5.5,0,0,1-.341-.619q.137-.465.234-.933a.5.5,0,0,1,.979.206q-.108.5-.252,1.006A.5.5,0,0,1,16.535,22.646Zm.464-3a.464.464,0,0,1-.5-.456v-.117a.542.542,0,0,1,.5-.531h.006A.464.464,0,0,1,17.5,19v.105A.541.541,0,0,1,17,19.649Z" style="fill:#d47f6c"/><path d="M24.709,39.416a.5.5,0,0,1-.118-.985,2.556,2.556,0,0,0,.763-.327.5.5,0,1,1,.54.841,3.477,3.477,0,0,1-1.067.456A.483.483,0,0,1,24.709,39.416Zm-1.954-.187a.5.5,0,0,1-.208-.046,3.484,3.484,0,0,1-.961-.651.5.5,0,1,1,.689-.724,2.54,2.54,0,0,0,.688.466.5.5,0,0,1-.208.955Zm4.081-1.747a.489.489,0,0,1-.163-.027.5.5,0,0,1-.31-.636A2.5,2.5,0,0,0,26.5,36a.5.5,0,0,1,1,0,3.511,3.511,0,0,1-.191,1.146A.5.5,0,0,1,26.836,37.482Zm-5.808-.556a.5.5,0,0,1-.494-.431A3.55,3.55,0,0,1,20.5,36v-.569a.5.5,0,0,1,1,0V36a2.428,2.428,0,0,0,.024.356.5.5,0,0,1-.425.565A.565.565,0,0,1,21.028,36.926ZM27,34.5a.5.5,0,0,1-.5-.5V33a.5.5,0,0,1,1,0v1A.5.5,0,0,1,27,34.5Zm-6-.572a.5.5,0,0,1-.5-.5v-1a.5.5,0,0,1,1,0v1A.5.5,0,0,1,21,33.928ZM27,31.5a.5.5,0,0,1-.5-.5V30a.5.5,0,0,1,1,0v1A.5.5,0,0,1,27,31.5Zm-6-.572a.5.5,0,0,1-.5-.5v-1a.5.5,0,1,1,1,0v1A.5.5,0,0,1,21,30.928ZM27,28.5a.5.5,0,0,1-.5-.5V27a.5.5,0,0,1,1,0v1A.5.5,0,0,1,27,28.5Zm-6-.572a.5.5,0,0,1-.5-.5v-1a.5.5,0,1,1,1,0v1A.5.5,0,0,1,21,27.928ZM27,25.5a.5.5,0,0,1-.5-.5V24a.5.5,0,0,1,1,0v1A.5.5,0,0,1,27,25.5Zm-6-.572a.5.5,0,0,1-.5-.5v-1a.5.5,0,1,1,1,0v1A.5.5,0,0,1,21,24.928ZM27,22.5a.5.5,0,0,1-.5-.5V21a.5.5,0,0,1,1,0v1A.5.5,0,0,1,27,22.5Zm-6-.572a.5.5,0,0,1-.5-.5v-1a.5.5,0,1,1,1,0v1A.5.5,0,0,1,21,21.928ZM27,19.5a.5.5,0,0,1-.5-.5V18a.5.5,0,0,1,1,0v1A.5.5,0,0,1,27,19.5Zm-6-.572a.5.5,0,0,1-.5-.5v-1a.5.5,0,1,1,1,0v1A.5.5,0,0,1,21,18.928ZM27,16.5a.5.5,0,0,1-.5-.5V15a.5.5,0,0,1,1,0v1A.5.5,0,0,1,27,16.5Zm-6-.572a.5.5,0,0,1-.5-.5v-1a.5.5,0,1,1,1,0v1A.5.5,0,0,1,21,15.928ZM27,13.5a.5.5,0,0,1-.5-.5V12a.5.5,0,0,1,1,0v1A.5.5,0,0,1,27,13.5Zm-6-.572a.5.5,0,0,1-.5-.5v-1a.5.5,0,1,1,1,0v1A.5.5,0,0,1,21,12.928ZM27,10.5a.5.5,0,0,1-.5-.5V9a.5.5,0,0,1,1,0v1A.5.5,0,0,1,27,10.5Zm-6-.572a.5.5,0,0,1-.5-.5v-1a.5.5,0,1,1,1,0v1A.5.5,0,0,1,21,9.928ZM27,7.5a.5.5,0,0,1-.5-.5V6a.5.5,0,0,1,1,0V7A.5.5,0,0,1,27,7.5Zm-6-.572a.5.5,0,0,1-.5-.5v-1a.5.5,0,0,1,1,0v1A.5.5,0,0,1,21,6.928ZM27,4.5a.5.5,0,0,1-.5-.5V3a.5.5,0,0,1,1,0V4A.5.5,0,0,1,27,4.5Zm-6-.572a.5.5,0,0,1-.5-.5V3a.5.5,0,0,1,1,0v.428A.5.5,0,0,1,21,3.928Z" style="fill:#d47f6c"/><ellipse cx="20" cy="43" rx="0.825" ry="1.148" transform="translate(-24.553 26.752) rotate(-45.02)" style="fill:#f6fafd"/><ellipse cx="28.746" cy="42.5" rx="0.574" ry="0.413" transform="translate(-21.629 32.757) rotate(-44.98)" style="fill:#f6fafd"/></g></svg>