<svg xmlns="http://www.w3.org/2000/svg" viewBox="0 0 48 48"><title>18-nose augmentation</title><g id="_18-nose_augmentation" data-name="18-nose augmentation"><path d="M8.707,25.293,7.293,26.707,8.586,28H5v2H8.586L7.293,31.293l1.414,1.414,3-3a1,1,0,0,0,0-1.414Z" style="fill:#4f7fff"/><path d="M7.293,11.293l1.414,1.414,3-3a1,1,0,0,0,0-1.414l-3-3L7.293,6.707,8.586,8H5v2H8.586Z" style="fill:#4f7fff"/><path d="M8.707,25.293l-.5.5,2.5,2.5a1,1,0,0,1,0,1.414l-2.5,2.5.5.5,3-3a1,1,0,0,0,0-1.414Z" style="fill:#759bff"/><path d="M10.707,9.707l-2.5,2.5.5.5,3-3a1,1,0,0,0,0-1.414l-3-3-.5.5,2.5,2.5A1,1,0,0,1,10.707,9.707Z" style="fill:#759bff"/><rect x="1" y="28" width="2" height="2" style="fill:#4f7fff"/><rect x="1" y="8" width="2" height="2" style="fill:#4f7fff"/><path d="M47,1V39c0,4.42-4.28,8-8,8-4.04,0-7-1.68-7-5l-.1-.1A6.8,6.8,0,0,0,31,43c-2,3-8,4-8,4H21c-5.52,0-10-2.48-10-8C11,31,27.1,1,47,1Z" style="fill:#ffbeaa"/><path d="M38.67,41.99a3.4,3.4,0,0,0-.262-.508,3.958,3.958,0,0,0-1.251-1.172,3.09,3.09,0,0,0-1.014-.3C36.1,40.008,36.049,40,36,40a6.3,6.3,0,0,0-4.1,1.9l.1.1c0,3.32,2.96,5,7,5a6.468,6.468,0,0,0,1.469-.178,15.283,15.283,0,0,0-2.061-5.34A3.4,3.4,0,0,1,38.67,41.99Z" style="fill:#faa68e"/><path d="M35.143,42.011a3.09,3.09,0,0,1,1.014.3,3.958,3.958,0,0,1,1.251,1.172A12.077,12.077,0,0,1,39,47h0a6.468,6.468,0,0,0,1.469-.178,15.283,15.283,0,0,0-2.061-5.34,3.4,3.4,0,0,1,.262.508,3.4,3.4,0,0,0-.262-.508,3.958,3.958,0,0,0-1.251-1.172,3.09,3.09,0,0,0-1.014-.3C36.1,40.008,36.049,40,36,40a6.3,6.3,0,0,0-4.1,1.9l.1.1a4.915,4.915,0,0,0,.1.959A6.184,6.184,0,0,1,35,42C35.049,42,35.1,42.008,35.143,42.011Z" style="fill:#e09380"/><path d="M40.625,30H41c3.19,0,6,4.03,6,9V1.768Z" style="fill:#faa68e"/><path d="M26,44c-5.52,0-10-2.318-10-7.478C16,29.681,29.473,5.649,47,1.6V1C27.1,1,11,31,11,39c0,5.52,4.48,8,10,8h2s5.518-.927,7.731-3.654A22.239,22.239,0,0,1,28,44Z" style="fill:#ffcdbe"/><path d="M41,30l-2.363.945L38.625,31H39c3.19,0,6,4.03,6,9a8.179,8.179,0,0,1-3.815,6.612C44.214,45.578,47,42.566,47,39,47,34.03,44.19,30,41,30Z" style="fill:#ffcdbe"/><path d="M16,36.5a.5.5,0,0,1-.5-.5,5.644,5.644,0,0,1,.117-1.088.5.5,0,0,1,.981.193,4.7,4.7,0,0,0-.1.9A.5.5,0,0,1,16,36.5Zm.686-2.9a.5.5,0,0,1-.467-.681c.118-.3.251-.621.395-.947a.5.5,0,1,1,.914.406q-.207.466-.376.9A.5.5,0,0,1,16.686,33.6Zm1.266-2.726a.488.488,0,0,1-.233-.058.5.5,0,0,1-.209-.675q.231-.438.487-.892a.5.5,0,0,1,.871.491q-.249.441-.473.867A.5.5,0,0,1,17.952,30.871Zm1.5-2.6a.5.5,0,0,1-.425-.763q.261-.423.538-.854a.5.5,0,0,1,.842.539c-.18.284-.358.564-.53.84A.5.5,0,0,1,19.453,28.267ZM21.1,25.751a.493.493,0,0,1-.284-.088.5.5,0,0,1-.128-.7q.282-.411.577-.826a.5.5,0,1,1,.816.577q-.29.411-.569.816A.5.5,0,0,1,21.1,25.751Zm1.75-2.442a.5.5,0,0,1-.4-.8q.3-.4.607-.8a.5.5,0,0,1,.8.607q-.3.4-.6.794A.5.5,0,0,1,22.848,23.309Zm1.838-2.377a.5.5,0,0,1-.39-.813q.313-.392.635-.782a.5.5,0,1,1,.771.636q-.317.384-.627.772A.5.5,0,0,1,24.686,20.932ZM26.6,18.62a.5.5,0,0,1-.379-.826q.327-.381.66-.76a.5.5,0,1,1,.752.659q-.33.375-.653.752A.5.5,0,0,1,26.6,18.62Zm2-2.249a.5.5,0,0,1-.369-.839c.229-.248.457-.494.688-.738a.5.5,0,0,1,.727.687c-.227.241-.454.484-.678.728A.5.5,0,0,1,28.6,16.371ZM30.673,14.2a.5.5,0,0,1-.356-.852c.238-.24.475-.477.714-.712a.5.5,0,0,1,.7.714q-.352.346-.7.7A.5.5,0,0,1,30.673,14.2ZM32.83,12.1a.5.5,0,0,1-.34-.866q.372-.346.745-.681a.5.5,0,0,1,.668.744q-.367.33-.733.669A.5.5,0,0,1,32.83,12.1Zm2.251-1.99a.5.5,0,0,1-.321-.883q.392-.328.781-.642a.5.5,0,0,1,.627.779q-.384.307-.766.629A.5.5,0,0,1,35.081,10.114Zm2.361-1.856a.5.5,0,0,1-.3-.9q.417-.3.828-.587a.5.5,0,1,1,.568.823q-.4.276-.806.572A.5.5,0,0,1,37.442,8.258Zm2.5-1.662a.5.5,0,0,1-.255-.93q.448-.267.89-.5a.5.5,0,1,1,.473.881q-.421.226-.853.483A.5.5,0,0,1,39.942,6.6Zm2.681-1.347a.5.5,0,0,1-.186-.964q.5-.2.977-.349a.5.5,0,1,1,.3.954q-.444.139-.9.323A.488.488,0,0,1,42.623,5.249Zm2.891-.73a.5.5,0,0,1-.038-1c.177-.014.352-.021.524-.021a.5.5,0,0,1,0,1c-.146,0-.3.006-.447.018Z" style="fill:#d47f6c"/></g></svg>