<svg xmlns="http://www.w3.org/2000/svg" viewBox="0 0 48 48"><title>19-nose augmentation</title><g id="_19-nose_augmentation" data-name="19-nose augmentation"><path d="M14.707,1.707,13.293.293l-3,3a1,1,0,0,0,0,1.414l3,3,1.414-1.414L13.414,5H17V3H13.414Z" style="fill:#4f7fff"/><rect x="19" y="3" width="2" height="2" style="fill:#4f7fff"/><path d="M4.707,18.707,3.293,17.293l-3,3a1,1,0,0,0,0,1.414l3,3,1.414-1.414L3.414,22H7V20H3.414Z" style="fill:#4f7fff"/><rect x="9" y="20" width="2" height="2" style="fill:#4f7fff"/><path d="M11.293,3.293l2.5-2.5-.5-.5-3,3a1,1,0,0,0,0,1.414l3,3,.5-.5-2.5-2.5A1,1,0,0,1,11.293,3.293Z" style="fill:#759bff"/><path d="M1.293,20.293l2.5-2.5-.5-.5-3,3a1,1,0,0,0,0,1.414l3,3,.5-.5-2.5-2.5A1,1,0,0,1,1.293,20.293Z" style="fill:#759bff"/><path d="M13.689,27.5a.486.486,0,0,1-.283-.089.5.5,0,0,1-.127-.7c.1-.15.209-.3.319-.447a.5.5,0,1,1,.806.591q-.156.213-.3.424A.5.5,0,0,1,13.689,27.5Zm1.555-2a.5.5,0,0,1-.382-.823c.213-.251.435-.505.666-.765a.5.5,0,0,1,.746.666q-.338.378-.648.745A.5.5,0,0,1,15.244,25.5Zm2.015-2.223a.5.5,0,0,1-.363-.843c.226-.239.459-.48.7-.726a.5.5,0,1,1,.715.7q-.355.363-.689.714A.5.5,0,0,1,17.259,23.278Zm2.1-2.146a.5.5,0,0,1-.364-.843c.218-.231.433-.475.645-.727a.5.5,0,0,1,.766.643q-.338.4-.683.77A.5.5,0,0,1,19.355,21.132ZM21.238,18.8a.491.491,0,0,1-.287-.091.5.5,0,0,1-.121-.7q.281-.4.554-.815a.5.5,0,1,1,.835.549q-.282.429-.572.842A.5.5,0,0,1,21.238,18.8Zm1.613-2.531a.5.5,0,0,1-.432-.751q.249-.429.487-.863a.5.5,0,1,1,.876.483c-.163.3-.329.591-.5.882A.5.5,0,0,1,22.851,16.267Zm1.422-2.647a.488.488,0,0,1-.224-.053.5.5,0,0,1-.222-.671q.222-.442.434-.889a.5.5,0,1,1,.9.431q-.216.454-.443.907A.5.5,0,0,1,24.273,13.62ZM25.546,10.9a.486.486,0,0,1-.2-.043.5.5,0,0,1-.255-.659q.2-.459.394-.912a.5.5,0,1,1,.921.391c-.13.3-.263.615-.4.925A.5.5,0,0,1,25.546,10.9ZM26.7,8.13a.5.5,0,0,1-.465-.684c.125-.315.244-.625.36-.927a.5.5,0,0,1,.645-.29.5.5,0,0,1,.289.645q-.174.461-.364.939A.5.5,0,0,1,26.7,8.13Zm1.052-2.816a.492.492,0,0,1-.167-.028.5.5,0,0,1-.3-.639c.117-.33.226-.645.328-.941a.5.5,0,0,1,.946.324q-.153.45-.331.951A.5.5,0,0,1,27.753,5.314Zm.955-2.85a.488.488,0,0,1-.15-.023.5.5,0,0,1-.328-.627c.189-.6.288-.948.289-.952a.5.5,0,0,1,.962.276s-.1.354-.3.975A.5.5,0,0,1,28.708,2.464Z" style="fill:#a7bfe8"/><path d="M47,1V39c0-4.97-2.81-9-6-9,0,0,4-16,4-29Z" style="fill:#faa68e"/><path d="M39,42s.93,3.72-1.7,4.89C34.16,46.47,32,44.83,32,42l-.1-.1A6.3,6.3,0,0,1,36,40,3.366,3.366,0,0,1,39,42Z" style="fill:#faa68e"/><path d="M39,42a3.366,3.366,0,0,0-3-2,6.3,6.3,0,0,0-4.1,1.9l.1.1a4.939,4.939,0,0,0,.095.961A6.183,6.183,0,0,1,35,42a3.366,3.366,0,0,1,3,2,6.68,6.68,0,0,1,.089,2.375C39.719,44.889,39,42,39,42Z" style="fill:#e09380"/><path d="M41,30s4-16,4-29H34a37.891,37.891,0,0,1-3.06,13.98c-2.49,5.92-6.29,10.75-10.58,11.01v.03C15.13,26.3,11,30.09,11,37A10,10,0,0,0,21,47h2s6-1,8-4a6.8,6.8,0,0,1,.9-1.1A6.3,6.3,0,0,1,36,40a3.366,3.366,0,0,1,3,2s.93,3.72-1.7,4.89A13.245,13.245,0,0,0,39,47c3.72,0,8-3.58,8-8C47,34.03,44.19,30,41,30Z" style="fill:#ffbeaa"/><path d="M13.64,36c0-6.91,5.13-7.7,10.36-7.98v-.03c4.29-.26,8.09-5.09,10.58-11.01A48.441,48.441,0,0,0,37.64,1H34a37.891,37.891,0,0,1-3.06,13.98c-2.49,5.92-6.29,10.75-10.58,11.01v.03C15.13,26.3,11,30.09,11,37a10.006,10.006,0,0,0,7.126,9.576A14.124,14.124,0,0,1,13.64,36Z" style="fill:#ffdecf"/><ellipse cx="23" cy="29" rx="0.825" ry="1.148" transform="translate(-13.771 24.77) rotate(-45.02)" style="fill:#f6fafd"/><ellipse cx="20.003" cy="29.987" rx="1.642" ry="2.286" transform="translate(-15.347 22.939) rotate(-45.02)" style="fill:#f6fafd"/><ellipse cx="41.746" cy="33.5" rx="0.413" ry="0.574" transform="translate(-11.459 39.349) rotate(-45.02)" style="fill:#f6fafd"/></g></svg>