<svg xmlns="http://www.w3.org/2000/svg" viewBox="0 0 48 48"><title>20-weight</title><g id="_20-weight" data-name="20-weight"><path d="M45,21s1.6.8,1.94,6a18.821,18.821,0,0,0-4.26.53C32.59,29.97,25,40,25,40H23S15.46,30.03,5.42,27.56A18.6,18.6,0,0,0,1.06,27C1.4,21.8,3,21,3,21c0,1.66,9.39,3,21,3S45,22.66,45,21Z" style="fill:#759bff"/><path d="M46.94,27c.04.61.06,1.27.06,2,0,0-.57,12-2,18H41.1c1.09-4.6,1.68-13.91,1.9-18l-.32-1.47A18.821,18.821,0,0,1,46.94,27Z" style="fill:#ffdecf"/><path d="M37.1,1H41s0,7,1.71,10A21.222,21.222,0,0,1,45,21c0,1.66-9.39,3-21,3S3,22.66,3,21A21.222,21.222,0,0,1,5.29,11C7,8,7,1,7,1H37.1Z" style="fill:#ffbeaa"/><path d="M24,25c11.61,0,21-1.34,21-3,0-.3-.01-.618-.022-.937C44.74,22.694,35.46,24,24,24S3.26,22.694,3.022,21.063C3.01,21.382,3,21.7,3,22,3,23.66,12.39,25,24,25Z" style="fill:#4f7fff"/><path d="M42.68,27.53,43,29c-.22,4.09-.81,13.4-1.9,18H26l-1-7S32.59,29.97,42.68,27.53Z" style="fill:#ffbeaa"/><path d="M23,40l-1,7H7C5.9,42.4,5.31,33.09,5.1,29l.32-1.44C15.46,30.03,23,40,23,40Z" style="fill:#ffbeaa"/><path d="M7,47H3C1.57,41,1,29,1,29c0-.73.02-1.39.06-2a18.6,18.6,0,0,1,4.36.56L5.1,29C5.31,33.09,5.9,42.4,7,47Z" style="fill:#ffdecf"/><path d="M9.429,1H7S7,8,5.29,11A21.222,21.222,0,0,0,3,21c0,.565,1.109,1.091,3,1.542A28.052,28.052,0,0,1,7.963,11.87C9.429,8.609,9.429,1,9.429,1Z" style="fill:#ffdecf"/><path d="M45,21a21.222,21.222,0,0,0-2.29-10C41,8,41,1,41,1H38.571s0,7.609,1.466,10.87A28.052,28.052,0,0,1,42,22.542C43.891,22.091,45,21.565,45,21Z" style="fill:#ffdecf"/><path d="M42.976,29.435A19.489,19.489,0,0,1,47,29c0-.73-.02-1.39-.06-2a18.821,18.821,0,0,0-4.26.53L43,29C42.993,29.135,42.984,29.29,42.976,29.435Z" style="fill:#ffbeaa"/><path d="M42.976,29.435c.008-.145.017-.3.024-.435l-.32-1.47C32.59,29.97,25,40,25,40l.3,2.1C26.807,39.116,33.912,31.347,42.976,29.435Z" style="fill:#faa68e"/><path d="M5.42,27.56,5.1,29c.007.141.016.3.024.456C14.141,31.4,21.2,39.127,22.7,42.1L23,40S15.46,30.03,5.42,27.56Z" style="fill:#faa68e"/><path d="M5.1,29l.32-1.44A18.6,18.6,0,0,0,1.06,27c-.04.61-.06,1.27-.06,2a19.474,19.474,0,0,1,4.124.456C5.116,29.3,5.107,29.141,5.1,29Z" style="fill:#ffbeaa"/><path d="M7,47.5a.5.5,0,0,1-.486-.384c-.075-.311-.147-.644-.217-1a.5.5,0,1,1,.98-.2c.068.338.138.659.209.959a.5.5,0,0,1-.369.6A.479.479,0,0,1,7,47.5Zm-.556-2.951a.5.5,0,0,1-.494-.425c-.05-.324-.1-.658-.144-1a.5.5,0,1,1,.99-.137c.046.335.094.663.142.984a.5.5,0,0,1-.494.575ZM6.05,41.572a.5.5,0,0,1-.5-.442l-.111-1a.5.5,0,0,1,1-.106l.109.991a.5.5,0,0,1-.439.554A.563.563,0,0,1,6.05,41.572Zm-.309-2.988a.5.5,0,0,1-.5-.454l-.09-1a.5.5,0,0,1,1-.086l.09.995a.5.5,0,0,1-.452.544Zm-.253-2.992a.5.5,0,0,1-.5-.462l-.074-1a.5.5,0,0,1,.463-.534.489.489,0,0,1,.534.464l.074,1a.5.5,0,0,1-.46.537Zm-.21-3a.5.5,0,0,1-.5-.468l-.062-1a.5.5,0,0,1,.47-.528.485.485,0,0,1,.528.469l.062,1a.5.5,0,0,1-.467.532Zm-.174-3a.5.5,0,0,1-.5-.478l.5-.022-.5-.068a.5.5,0,0,1,1-.06l0,.105a.5.5,0,0,1-.477.523Z" style="fill:#d47f6c"/><path d="M6.36,21.5a.5.5,0,0,1-.491-.593l.189-.985a.494.494,0,0,1,.587-.395.5.5,0,0,1,.4.586l-.189.98A.5.5,0,0,1,6.36,21.5Zm.593-2.942a.472.472,0,0,1-.106-.012.5.5,0,0,1-.384-.594c.071-.328.144-.657.22-.984a.5.5,0,0,1,.975.226c-.075.322-.147.647-.217.969A.5.5,0,0,1,6.953,18.558Zm.705-2.917a.52.52,0,0,1-.134-.018.5.5,0,0,1-.349-.615c.1-.348.193-.676.289-.98a.5.5,0,1,1,.953.3c-.093.29-.186.606-.278.94A.5.5,0,0,1,7.658,15.641ZM8.6,12.749a.436.436,0,0,1-.15-.027.462.462,0,0,1-.31-.6l.032-.087.314-.848a.5.5,0,0,1,.94.343l-.317.855A.566.566,0,0,1,8.6,12.749Zm1.01-2.78a.514.514,0,0,1-.153-.024.5.5,0,0,1-.323-.629c.1-.306.2-.62.288-.942a.5.5,0,1,1,.961.277c-.1.332-.2.656-.3.97A.5.5,0,0,1,9.614,9.969ZM10.4,7.076a.5.5,0,0,1-.489-.606c.068-.314.131-.634.19-.962a.5.5,0,1,1,.984.176c-.06.339-.127.673-.2,1A.5.5,0,0,1,10.4,7.076Zm.47-2.961a.436.436,0,0,1-.051,0,.5.5,0,0,1-.447-.547c.032-.319.059-.644.079-.978a.506.506,0,0,1,.53-.468.5.5,0,0,1,.468.53c-.021.346-.049.685-.082,1.016A.5.5,0,0,1,10.871,4.115Z" style="fill:#d47f6c"/><path d="M41.1,47.5a.455.455,0,0,1-.116-.014.5.5,0,0,1-.371-.6c.071-.3.14-.622.206-.96a.494.494,0,0,1,.588-.394.5.5,0,0,1,.394.587c-.07.352-.141.685-.216,1A.5.5,0,0,1,41.1,47.5Zm.551-2.952a.474.474,0,0,1-.075-.006.5.5,0,0,1-.42-.569c.049-.321.1-.65.142-.985a.5.5,0,0,1,.991.137q-.07.511-.144,1A.5.5,0,0,1,41.652,44.548Zm.391-2.977a.544.544,0,0,1-.057,0,.5.5,0,0,1-.44-.553l.11-.992a.5.5,0,0,1,.994.106l-.11,1A.5.5,0,0,1,42.043,41.571Zm.309-2.986-.047,0a.5.5,0,0,1-.452-.544l.09-1a.5.5,0,0,1,.542-.454.5.5,0,0,1,.454.542l-.09,1A.5.5,0,0,1,42.352,38.585Zm.252-2.994a.248.248,0,0,1-.038,0,.5.5,0,0,1-.461-.536l.075-1a.5.5,0,1,1,1,.072l-.074,1A.5.5,0,0,1,42.6,35.591Zm.213-3h-.033a.5.5,0,0,1-.467-.531l.063-1a.5.5,0,0,1,1,.061l-.063,1A.5.5,0,0,1,42.817,32.594Zm.179-3h-.031a.5.5,0,0,1-.469-.53l.5.031-.495-.112a.494.494,0,0,1,.516-.484.5.5,0,0,1,.484.516c0,.005-.005.105-.006.11A.5.5,0,0,1,43,29.6Z" style="fill:#d47f6c"/><path d="M41.74,21.5a.5.5,0,0,1-.491-.407l-.188-.98a.5.5,0,1,1,.981-.191l.189.985a.5.5,0,0,1-.4.584A.488.488,0,0,1,41.74,21.5Zm-.593-2.942a.5.5,0,0,1-.488-.395c-.07-.322-.142-.647-.217-.969a.5.5,0,0,1,.975-.226c.076.327.149.656.22.984a.5.5,0,0,1-.384.594A.472.472,0,0,1,41.147,18.558Zm-.7-2.917a.5.5,0,0,1-.481-.368c-.092-.334-.185-.65-.278-.94a.5.5,0,0,1,.953-.3c.1.3.193.632.289.98a.5.5,0,0,1-.349.615A.52.52,0,0,1,40.442,15.641Zm-1.423-3.169.469-.175-.5.088-.317-.855a.5.5,0,0,1,.94-.343l.314.848-.436.262Zm-.533-2.5a.5.5,0,0,1-.476-.348c-.1-.314-.2-.638-.3-.97a.5.5,0,1,1,.961-.277c.093.322.19.636.288.942a.5.5,0,0,1-.323.629A.514.514,0,0,1,38.486,9.969ZM37.7,7.076a.5.5,0,0,1-.488-.393c-.07-.326-.137-.66-.2-1A.5.5,0,0,1,38,5.508c.059.328.122.648.19.962a.5.5,0,0,1-.489.606Zm-.47-2.961a.5.5,0,0,1-.5-.45c-.033-.331-.061-.67-.082-1.016a.5.5,0,1,1,1-.062c.02.334.047.659.079.978a.5.5,0,0,1-.448.547A.407.407,0,0,1,37.229,4.115Z" style="fill:#d47f6c"/><ellipse cx="24" cy="20" rx="1" ry="2" style="fill:#faa68e"/><ellipse cx="13" cy="18" rx="0.825" ry="1.148" transform="translate(-8.922 14.472) rotate(-45.02)" style="fill:#f6fafd"/><ellipse cx="10.003" cy="18.987" rx="1.642" ry="2.286" transform="translate(-10.498 12.641) rotate(-45.02)" style="fill:#f6fafd"/><ellipse cx="39.746" cy="19.5" rx="0.413" ry="0.574" transform="translate(-2.143 33.83) rotate(-45.02)" style="fill:#f6fafd"/></g></svg>