<svg xmlns="http://www.w3.org/2000/svg" viewBox="0 0 48 48"><title>21-weight</title><g id="_21-weight" data-name="21-weight"><path d="M46,23s.43.18.82,4C34.73,27.12,25,39,25,39H23S13.27,27.12,1.18,27c.39-3.82.82-4,.82-4,0,1.66,9.84,2,22,2S46,24.66,46,23Z" style="fill:#759bff"/><path d="M46,23c0,1.66-9.84,2-22,2S2,24.66,2,23c0-3,2.28-9,4-12S8,1,8,1H40s.28,7,2,10S46,20,46,23Z" style="fill:#ffbeaa"/><path d="M5.316,24.3c.205-1.215.367-1.3.367-1.3,0-3,1.9-9,3.33-12S10.678,1,10.678,1H8S7.72,8,6,11,2,20,2,23C2,23.583,3.216,24,5.316,24.3Z" style="fill:#ffdecf"/><path d="M42.317,23s.162.087.367,1.3C44.784,24,46,23.583,46,23c0-3-2.28-9-4-12S40,1,40,1H37.322s.233,7,1.665,10S42.317,20,42.317,23Z" style="fill:#ffdecf"/><path d="M24,26c12.16,0,22-.34,22-2a7.982,7.982,0,0,0-.051-.811C45.217,24.686,35.682,25,24,25S2.783,24.686,2.051,23.189A7.982,7.982,0,0,0,2,24C2,25.66,11.84,26,24,26Z" style="fill:#4f7fff"/><path d="M46.94,28.28a19.051,19.051,0,0,1-.22,4.71c-.53,3.22-1.64,9.67-2.68,14.01H27l-2-8s9.73-11.88,21.82-12C46.86,27.39,46.9,27.81,46.94,28.28Z" style="fill:#ffbeaa"/><path d="M23,39l-2,8H3.96C2.92,42.66,1.81,36.21,1.28,32.99a19.051,19.051,0,0,1-.22-4.71c.04-.47.08-.89.12-1.28C13.27,27.12,23,39,23,39Z" style="fill:#ffbeaa"/><path d="M11.127,21.5a3.161,3.161,0,0,1-.851-.115.5.5,0,0,1,.272-.963,2.457,2.457,0,0,0,.59.078H11.4a.5.5,0,1,1,0,1h-.275Zm24.275,0h-1a.5.5,0,0,1,0-1h1a.5.5,0,0,1,0,1Zm-3,0h-1a.5.5,0,0,1,0-1h1a.5.5,0,0,1,0,1Zm-3,0h-1a.5.5,0,0,1,0-1h1a.5.5,0,0,1,0,1Zm-3,0h-1a.5.5,0,0,1,0-1h1a.5.5,0,0,1,0,1Zm-3,0h-1a.5.5,0,0,1,0-1h1a.5.5,0,0,1,0,1Zm-3,0h-1a.5.5,0,0,1,0-1h1a.5.5,0,0,1,0,1Zm-3,0h-1a.5.5,0,0,1,0-1h1a.5.5,0,0,1,0,1Zm-3,0h-1a.5.5,0,0,1,0-1h1a.5.5,0,1,1,0,1ZM37.4,21.448a.5.5,0,0,1-.1-.99,1.957,1.957,0,0,0,.728-.308.5.5,0,0,1,.567.825,2.945,2.945,0,0,1-1.1.463A.462.462,0,0,1,37.4,21.448ZM8.866,20.2a.5.5,0,0,1-.418-.225,5.228,5.228,0,0,1-.5-.986.5.5,0,0,1,.934-.359,4.228,4.228,0,0,0,.4.8.5.5,0,0,1-.143.692A.494.494,0,0,1,8.866,20.2Zm30.645-.71a.5.5,0,0,1-.459-.7,5.864,5.864,0,0,0,.288-.872.5.5,0,0,1,.971.242,6.717,6.717,0,0,1-.341,1.024A.5.5,0,0,1,39.511,19.494ZM8,17.365a.5.5,0,0,1-.5-.481l0-.179a6.055,6.055,0,0,1,.07-.911.5.5,0,0,1,.989.15A5.112,5.112,0,0,0,8.5,16.7l0,.142a.5.5,0,0,1-.482.518Zm31.957-.8a.5.5,0,0,1-.495-.441,5.579,5.579,0,0,0-.185-.9.5.5,0,0,1,.961-.278A6.571,6.571,0,0,1,40.457,16a.5.5,0,0,1-.437.555A.409.409,0,0,1,39.96,16.562ZM8.612,14.448a.522.522,0,0,1-.159-.025.5.5,0,0,1-.315-.634l.317-.948a.5.5,0,1,1,.949.318l-.317.948A.5.5,0,0,1,8.612,14.448Zm30.52-.762a.5.5,0,0,1-.475-.343l-.061-.186a.5.5,0,1,1,.949-.314l.061.185a.5.5,0,0,1-.317.632A.479.479,0,0,1,39.132,13.686Z" style="fill:#d47f6c"/><ellipse cx="24" cy="17" rx="1" ry="2" style="fill:#faa68e"/><path d="M43.949,28.28c.026.367.04.734.046,1.1a22.807,22.807,0,0,1,2.981-.354c-.01-.249-.015-.5-.036-.747-.04-.47-.08-.89-.12-1.28a19.342,19.342,0,0,0-2.953.266C43.894,27.582,43.922,27.912,43.949,28.28Z" style="fill:#ffbeaa"/><path d="M44,29.381a22.471,22.471,0,0,1-.238,3.609c-.46,3.22-1.426,9.67-2.33,14.01H44.04c1.04-4.34,2.15-10.79,2.68-14.01a19.425,19.425,0,0,0,.256-3.963A22.807,22.807,0,0,0,44,29.381Z" style="fill:#ffdecf"/><path d="M4.051,28.28c.027-.368.055-.7.082-1.014A19.342,19.342,0,0,0,1.18,27c-.04.39-.08.81-.12,1.28-.021.249-.026.5-.036.747a22.807,22.807,0,0,1,2.981.354C4.011,29.014,4.025,28.647,4.051,28.28Z" style="fill:#ffbeaa"/><path d="M4.005,29.381a22.807,22.807,0,0,0-2.981-.354A19.425,19.425,0,0,0,1.28,32.99C1.81,36.21,2.92,42.66,3.96,47H6.573c-.9-4.34-1.87-10.79-2.33-14.01A22.471,22.471,0,0,1,4.005,29.381Z" style="fill:#ffdecf"/><path d="M43.867,27.266C33.185,29.015,25,39,25,39l.432,1.727C27.316,37.359,35.2,30.99,44,29.381c-.006-.367-.02-.734-.046-1.1S43.894,27.582,43.867,27.266Z" style="fill:#faa68e"/><path d="M4.005,29.381C12.8,30.99,20.684,37.359,22.568,40.727L23,39S14.815,29.015,4.133,27.266c-.027.316-.055.646-.082,1.014S4.011,29.014,4.005,29.381Z" style="fill:#faa68e"/><ellipse cx="44" cy="32" rx="0.825" ry="1.148" transform="translate(-9.737 40.504) rotate(-45.02)" style="fill:#f6fafd"/><ellipse cx="6.003" cy="21.987" rx="1.642" ry="2.286" transform="translate(-13.793 10.691) rotate(-45.02)" style="fill:#f6fafd"/><ellipse cx="43.746" cy="20.5" rx="0.413" ry="0.574" transform="translate(-1.677 36.953) rotate(-45.02)" style="fill:#f6fafd"/><path d="M23.293,7.293l-3,3,1.414,1.414L23,10.414V14h2V10.414l1.293,1.293,1.414-1.414-3-3A1,1,0,0,0,23.293,7.293Z" style="fill:#4f7fff"/><path d="M24.707,8.293l2.5,2.5.5-.5-3-3a1,1,0,0,0-1.414,0l-3,3,.5.5,2.5-2.5A1,1,0,0,1,24.707,8.293Z" style="fill:#759bff"/></g></svg>