<svg xmlns="http://www.w3.org/2000/svg" viewBox="0 0 48 48"><title>22-weight</title><g id="_22-weight" data-name="22-weight"><path d="M24,29V47H8L5,29c1.62,1,5.04,3,9,3a24.873,24.873,0,0,0,6.09-.65C22.05,30.86,23.46,30.07,24,29Z" style="fill:#ffbeaa"/><path d="M43,29,40,47H24V29c.54,1.07,1.95,1.86,3.91,2.35A24.873,24.873,0,0,0,34,32C37.96,32,41.38,30,43,29Z" style="fill:#ffbeaa"/><path d="M44.61,12.01A23.378,23.378,0,0,1,47,20c0,7-3,8-4,9-1.62,1-5.04,3-9,3a24.873,24.873,0,0,1-6.09-.65L28,31C28,21.18,34.86,12.24,44.61,12.01Z" style="fill:#ffbeaa"/><path d="M20.09,31.35A24.873,24.873,0,0,1,14,32c-3.96,0-7.38-2-9-3-1-1-4-2-4-9a23.378,23.378,0,0,1,2.39-7.99A15.493,15.493,0,0,1,10.67,14C16.38,17.21,20,23.87,20,31Z" style="fill:#ffbeaa"/><path d="M11,1H37s0,1,5,7a21.071,21.071,0,0,1,2.61,4.01C34.86,12.24,28,21.18,28,31l-.09.35C25.95,30.86,24.54,30.07,24,29c-.54,1.07-1.95,1.86-3.91,2.35L20,31c0-7.13-3.62-13.79-9.33-17a15.493,15.493,0,0,0-7.28-1.99A21.071,21.071,0,0,1,6,8C11,2,11,1,11,1Z" style="fill:#759bff"/><path d="M44.61,12.01a15.729,15.729,0,0,0-2.226.228A24.5,24.5,0,0,1,43,16c0,7-2.478,8-3.3,9-1.339,1-4.164,3-7.435,3a19.157,19.157,0,0,1-3.98-.378A21.151,21.151,0,0,0,28,31l-.09.35A24.873,24.873,0,0,0,34,32c3.96,0,7.38-2,9-3,1-1,4-2,4-9A23.378,23.378,0,0,0,44.61,12.01Z" style="fill:#ffdecf"/><path d="M19.718,27.623A19.218,19.218,0,0,1,15.739,28c-3.271,0-6.1-2-7.435-3C7.478,24,5,23,5,16a24.619,24.619,0,0,1,.619-3.775A15.63,15.63,0,0,0,3.39,12.01,23.378,23.378,0,0,0,1,20c0,7,3,8,4,9,1.62,1,5.04,3,9,3a24.873,24.873,0,0,0,6.09-.65L20,31A21.129,21.129,0,0,0,19.718,27.623Z" style="fill:#ffdecf"/><path d="M42.384,12.238a15.729,15.729,0,0,1,2.226-.228A21.071,21.071,0,0,0,42,8c-1.244-1.493-2.178-2.675-2.88-3.611A22.345,22.345,0,0,1,41.026,8.01,27.391,27.391,0,0,1,42.384,12.238Z" style="fill:#a6beff"/><path d="M6.974,8.01A22.345,22.345,0,0,1,8.88,4.389C8.178,5.325,7.244,6.507,6,8a21.071,21.071,0,0,0-2.61,4.01,15.63,15.63,0,0,1,2.229.215A27.386,27.386,0,0,1,6.974,8.01Z" style="fill:#a6beff"/><path d="M28.281,27.622c-.367-.078-.72-.168-1.051-.272A4.752,4.752,0,0,1,24,25a4.752,4.752,0,0,1-3.23,2.35c-.332.1-.685.194-1.052.273A21.129,21.129,0,0,1,20,31l.09.35c1.96-.49,3.37-1.28,3.91-2.35.54,1.07,1.95,1.86,3.91,2.35L28,31A21.151,21.151,0,0,1,28.281,27.622Z" style="fill:#6585db"/><path d="M16,29.5c-.347,0-.688-.009-1.027-.028a.5.5,0,0,1-.471-.528.481.481,0,0,1,.527-.47q.48.025.971.026a.5.5,0,0,1,0,1Zm-2.985-.249a.48.48,0,0,1-.085-.007c-.343-.058-.68-.127-1.01-.2a.5.5,0,0,1,.226-.975q.466.11.952.192a.5.5,0,0,1-.083.993Zm-2.9-.773a.477.477,0,0,1-.176-.033c-.328-.123-.646-.256-.956-.4a.5.5,0,0,1,.416-.91q.432.2.892.371a.5.5,0,0,1-.176.968Zm-2.667-1.36a.491.491,0,0,1-.28-.086q-.442-.3-.84-.628a.5.5,0,1,1,.639-.769c.239.2.494.388.761.569a.5.5,0,0,1-.28.914ZM5.268,25.085a.5.5,0,0,1-.4-.2,7.282,7.282,0,0,1-.582-.9.5.5,0,0,1,.879-.478,6.274,6.274,0,0,0,.5.776.5.5,0,0,1-.1.7A.493.493,0,0,1,5.268,25.085Zm-1.2-2.716a.5.5,0,0,1-.492-.421A5.885,5.885,0,0,1,3.5,21v-.125a.5.5,0,0,1,1,0V21a5.08,5.08,0,0,0,.062.79.5.5,0,0,1-.414.572A.425.425,0,0,1,4.068,22.369Zm.067-2.988a.389.389,0,0,1-.068,0,.5.5,0,0,1-.428-.562c.047-.355.106-.7.175-1.023a.51.51,0,0,1,.594-.385A.5.5,0,0,1,4.793,18c-.065.3-.119.619-.164.947A.5.5,0,0,1,4.135,19.381ZM4.9,16.49a.483.483,0,0,1-.2-.04.5.5,0,0,1-.265-.655,9.179,9.179,0,0,1,.467-.948.5.5,0,1,1,.869.494,8.3,8.3,0,0,0-.416.845A.5.5,0,0,1,4.9,16.49Z" style="fill:#d47f6c"/><path d="M32,29.5a.5.5,0,0,1,0-1q.49,0,.971-.026a.475.475,0,0,1,.527.47.5.5,0,0,1-.471.528C32.688,29.491,32.347,29.5,32,29.5Zm2.985-.249a.5.5,0,0,1-.083-.993q.486-.082.952-.192a.5.5,0,0,1,.226.975c-.33.076-.667.145-1.01.2A.48.48,0,0,1,34.985,29.251Zm2.9-.773a.5.5,0,0,1-.176-.968q.461-.173.892-.371a.5.5,0,0,1,.416.91c-.31.14-.628.273-.956.4A.477.477,0,0,1,37.88,28.478Zm2.667-1.36a.5.5,0,0,1-.28-.914c.267-.181.522-.37.761-.569a.5.5,0,0,1,.639.769q-.4.329-.84.628A.491.491,0,0,1,40.547,27.118Zm2.185-2.033a.493.493,0,0,1-.3-.1.5.5,0,0,1-.1-.7,6.274,6.274,0,0,0,.5-.776.5.5,0,0,1,.879.478,7.282,7.282,0,0,1-.582.9A.5.5,0,0,1,42.732,25.085Zm1.2-2.716a.425.425,0,0,1-.08-.007.5.5,0,0,1-.415-.572A4.961,4.961,0,0,0,43.5,21v-.125a.5.5,0,0,1,1,0V21a5.885,5.885,0,0,1-.076.948A.5.5,0,0,1,43.932,22.369Zm-.067-2.989a.5.5,0,0,1-.494-.434c-.045-.328-.1-.643-.164-.947a.5.5,0,0,1,.385-.594.51.51,0,0,1,.594.385c.069.327.128.668.175,1.023a.5.5,0,0,1-.428.562A.389.389,0,0,1,43.865,19.38ZM43.1,16.489a.5.5,0,0,1-.46-.3,8.194,8.194,0,0,0-.416-.845.5.5,0,1,1,.869-.494,9.179,9.179,0,0,1,.467.948.5.5,0,0,1-.265.655A.483.483,0,0,1,43.1,16.489Z" style="fill:#d47f6c"/><path d="M22,34.693V47h2V33A4.053,4.053,0,0,1,22,34.693Z" style="fill:#faa68e"/><path d="M5.741,33.445,8,47h2L8.654,34.886A22.02,22.02,0,0,1,5.741,33.445Z" style="fill:#ffdecf"/><path d="M38,47h2l2.259-13.555a22.02,22.02,0,0,1-2.913,1.441Z" style="fill:#ffdecf"/><path d="M24,33V47h2V34.693A4.053,4.053,0,0,1,24,33Z" style="fill:#fa997d"/><path d="M22,30.693v4A4.053,4.053,0,0,0,24,33V29A4.053,4.053,0,0,1,22,30.693Z" style="fill:#faa68e"/><path d="M20.09,31.35A24.873,24.873,0,0,1,14,32a14.747,14.747,0,0,1-5.813-1.316l.467,4.2A14.455,14.455,0,0,0,14,36a24.873,24.873,0,0,0,6.09-.65A10.675,10.675,0,0,0,22,34.693v-4A10.675,10.675,0,0,1,20.09,31.35Z" style="fill:#faa68e"/><path d="M8.187,30.684A24.877,24.877,0,0,1,5,29l.741,4.445a22.02,22.02,0,0,0,2.913,1.441Z" style="fill:#ffbeaa"/><path d="M27.91,31.35A10.675,10.675,0,0,1,26,30.693v4a10.675,10.675,0,0,0,1.91.657A24.873,24.873,0,0,0,34,36a14.455,14.455,0,0,0,5.346-1.114l.467-4.2A14.747,14.747,0,0,1,34,32,24.873,24.873,0,0,1,27.91,31.35Z" style="fill:#faa68e"/><path d="M39.813,30.684l-.467,4.2a22.02,22.02,0,0,0,2.913-1.441L43,29A24.877,24.877,0,0,1,39.813,30.684Z" style="fill:#ffbeaa"/><path d="M24,29v4a4.053,4.053,0,0,0,2,1.693v-4A4.053,4.053,0,0,1,24,29Z" style="fill:#fa997d"/><ellipse cx="36.012" cy="26" rx="1.148" ry="0.825" transform="translate(-7.839 33.065) rotate(-44.98)" style="fill:#f6fafd"/><ellipse cx="39.01" cy="22.987" rx="2.286" ry="1.642" transform="translate(-4.832 34.302) rotate(-44.98)" style="fill:#f6fafd"/><ellipse cx="8.746" cy="23.5" rx="0.413" ry="0.574" transform="translate(-14.059 13.075) rotate(-45.02)" style="fill:#f6fafd"/><path d="M33.293,3.293l-3,3,1.414,1.414L33,6.414V10h2V6.414l1.293,1.293,1.414-1.414-3-3A1,1,0,0,0,33.293,3.293Z" style="fill:#bccced"/><path d="M34.707,4.293l2.5,2.5.5-.5-3-3a1,1,0,0,0-1.414,0l-3,3,.5.5,2.5-2.5A1,1,0,0,1,34.707,4.293Z" style="fill:#e8eeff"/><path d="M13.293,3.293l-3,3,1.414,1.414L13,6.414V10h2V6.414l1.293,1.293,1.414-1.414-3-3A1,1,0,0,0,13.293,3.293Z" style="fill:#bccced"/><path d="M14.707,4.293l2.5,2.5.5-.5-3-3a1,1,0,0,0-1.414,0l-3,3,.5.5,2.5-2.5A1,1,0,0,1,14.707,4.293Z" style="fill:#e8eeff"/><path d="M23.293,3.293l-3,3,1.414,1.414L23,6.414V10h2V6.414l1.293,1.293,1.414-1.414-3-3A1,1,0,0,0,23.293,3.293Z" style="fill:#bccced"/><path d="M24.707,4.293l2.5,2.5.5-.5-3-3a1,1,0,0,0-1.414,0l-3,3,.5.5,2.5-2.5A1,1,0,0,1,24.707,4.293Z" style="fill:#e8eeff"/></g></svg>