<svg xmlns="http://www.w3.org/2000/svg" viewBox="0 0 48 48"><title>23-liposuction</title><g id="_23-liposuction" data-name="23-liposuction"><path d="M9.02,7.09l-4.79.87a1.874,1.874,0,0,1,.04-.91l1.32-4.6A1.992,1.992,0,0,1,7.51,1H9V7Z" style="fill:#ffcdbe"/><polygon points="12 1 15 1 15 6 9.02 7.09 9 7 9 1 12 1" style="fill:#ffcdbe"/><path d="M36,42l.62-.44a14.127,14.127,0,0,0,1.19,2.53A30.738,30.738,0,0,1,26,47a77.543,77.543,0,0,1-9-1,43.471,43.471,0,0,1-7.63-2.8V42Z" style="fill:#faa68e"/><path d="M36.62,41.56,36,42H9.37v1.2C5.25,41.22,1,38.16,1,34c0-6.91,3.73-18.29,4.75-21.27a2.017,2.017,0,0,0-.06-1.45L4.6,8.79a1.885,1.885,0,0,1-.37-.83l4.79-.87L15,6V1h1a2.006,2.006,0,0,1,2,2V8l-3.03,2.27a2.02,2.02,0,0,0-.77,1.93L16,29s12,0,15-1,3-6,13-6h3V47H40a15.007,15.007,0,0,1-2.19-2.91A14.127,14.127,0,0,1,36.62,41.56Z" style="fill:#ffbeaa"/><path d="M36,32v6a10.98,10.98,0,0,0,.62,3.56,14.127,14.127,0,0,0,1.19,2.53A15.007,15.007,0,0,0,40,47h2.914c-1.617-2.412-2.841-8.44-3.461-12.081A3.5,3.5,0,0,0,36,32Z" style="fill:#ffdecf"/><path d="M46,22V43.672c0,1.3-1.206,1.736-2.483,2.007a5.571,5.571,0,0,1-1.282.05A8.791,8.791,0,0,0,42.914,47H47V22Z" style="fill:#faa68e"/><path d="M38.584,45.286A13.668,13.668,0,0,0,40,47h2.914a8.791,8.791,0,0,1-.679-1.271A33.6,33.6,0,0,1,38.584,45.286Z" style="fill:#ffbeaa"/><path d="M44,22c-10,0-10,5-13,6s-15,1-15,1l-3.208,3.208a5.965,5.965,0,0,0,3.128.987c5.346.138,13.473.108,16.08-1.2,4-2,3-4,7-5l7-.875V22Z" style="fill:#ffdecf"/><path d="M14.2,12.2a2.016,2.016,0,0,1,.718-1.878C9.2,12.516,9.386,21.96,10.132,27.948a5.977,5.977,0,0,0,2.66,4.26L16,29Z" style="fill:#ffcdbe"/><path d="M3,33C2,27,8,12,8,12L7,9l8-2V6L9.02,7.09l-4.79.87a1.885,1.885,0,0,0,.37.83l1.09,2.49a2.017,2.017,0,0,1,.06,1.45C4.73,15.71,1,27.09,1,34c0,4.16,4.25,7.22,8.37,9.2V42H11S4,39,3,33Z" style="fill:#faa68e"/><path d="M5.27,7.05l1.32-4.6A1.992,1.992,0,0,1,8.51,1h-1A1.992,1.992,0,0,0,5.59,2.45L4.27,7.05a1.874,1.874,0,0,0-.04.91l.986-.179A1.847,1.847,0,0,1,5.27,7.05Z" style="fill:#faa68e"/><polygon points="12 1 12 6.547 13 6.365 13 1 12 1" style="fill:#faa68e"/><polygon points="9 1 9 7 9.02 7.09 10 6.911 10 1 9 1" style="fill:#faa68e"/><path d="M16,3V8l-3.03,2.27a2.02,2.02,0,0,0-.77,1.93L14,31s1-1,2-2.017L14.2,12.2a2.02,2.02,0,0,1,.77-1.93L18,8V3a2.006,2.006,0,0,0-2-2H15v.279A2,2,0,0,1,16,3Z" style="fill:#ffdecf"/><path d="M34.5,42.5h-1a.5.5,0,0,1,0-1h1a.5.5,0,0,1,0,1Zm-3,0h-1a.5.5,0,0,1,0-1h1a.5.5,0,0,1,0,1Zm-3,0h-1a.5.5,0,0,1,0-1h1a.5.5,0,0,1,0,1Zm-3,0h-1a.5.5,0,0,1,0-1h1a.5.5,0,0,1,0,1Zm-3,0h-1a.5.5,0,0,1,0-1h1a.5.5,0,0,1,0,1Zm-3,0h-1a.5.5,0,0,1,0-1h1a.5.5,0,0,1,0,1Zm-3,0h-1a.5.5,0,0,1,0-1h1a.5.5,0,0,1,0,1Zm-3,0h-1a.5.5,0,0,1,0-1h1a.5.5,0,0,1,0,1Zm-3,0h-1a.5.5,0,0,1,0-1h1a.5.5,0,0,1,0,1Z" style="fill:#d47f6c"/><path d="M18.293,26.293l1.414,1.414L21,26.414V30h2V26.414l1.293,1.293,1.414-1.414-3-3a1,1,0,0,0-1.414,0l-3,3" style="fill:#4f7fff"/><path d="M18.793,26.793l2.5-2.5a1,1,0,0,1,1.414,0l2.5,2.5.5-.5-3-3a1,1,0,0,0-1.414,0l-3,3" style="fill:#759bff"/><rect x="21" y="32" width="2" height="2" style="fill:#376dff"/><path d="M27.293,15.293l1.414,1.414L30,15.414V19h2V15.414l1.293,1.293,1.414-1.414-3-3a1,1,0,0,0-1.414,0l-3,3" style="fill:#4f7fff"/><path d="M27.793,15.793l2.5-2.5a1,1,0,0,1,1.414,0l2.5,2.5.5-.5-3-3a1,1,0,0,0-1.414,0l-3,3" style="fill:#759bff"/><rect x="30" y="21" width="2" height="2" style="fill:#376dff"/><ellipse cx="42" cy="43" rx="0.825" ry="1.148" transform="translate(-18.104 42.314) rotate(-45.02)" style="fill:#faa68e"/><ellipse cx="12" cy="26" rx="0.825" ry="1.148" transform="translate(-14.873 16.11) rotate(-45.02)" style="fill:#f6fafd"/><ellipse cx="11.746" cy="28.5" rx="0.413" ry="0.574" transform="translate(-16.716 16.663) rotate(-45.02)" style="fill:#f6fafd"/></g></svg>