<svg xmlns="http://www.w3.org/2000/svg" viewBox="0 0 48 48"><title>24-iposuction</title><g id="_24-iposuction" data-name="24-iposuction"><path d="M32.6,42V40H29a1,1,0,0,0-1,1v3.6h2V43.414l1.893,1.893,1.414-1.414L31.414,42Z" style="fill:#4f7fff"/><path d="M39.6,35V33H36a1,1,0,0,0-1,1v3.6h2V36.414l1.893,1.893,1.414-1.414L38.414,35Z" style="fill:#4f7fff"/><path d="M47.307,29.893,45.414,28H46.6V26H43a1,1,0,0,0-1,1v3.6h2V29.414l1.893,1.893Z" style="fill:#4f7fff"/><path d="M30,41h2.6V40H29a1,1,0,0,0-1,1v3.6h1V42A1,1,0,0,1,30,41Z" style="fill:#759bff"/><path d="M37,34h2.6V33H36a1,1,0,0,0-1,1v3.6h1V35A1,1,0,0,1,37,34Z" style="fill:#759bff"/><path d="M44,27h2.6V26H43a1,1,0,0,0-1,1v3.6h1V28A1,1,0,0,1,44,27Z" style="fill:#759bff"/><path d="M47,1V18H38.005s0,10-7,15a64.35,64.35,0,0,1-11.993,7v2c-1,3-5,2-8.995,3-1.939.49-2,2-5,2a7.642,7.642,0,0,1-3-1c-1.279-.57-1-2.6-1-4V41c0-1.73,1.219-1.12,2.928-1.44C7.222,38.95,12.4,37.62,15.018,35,18.3,31.72,24.932,12.32,27.211,5.43a3.985,3.985,0,0,1,3.358-2.71L42,1Z" style="fill:#ffbeaa"/><path d="M34,16.656V20c-1,8-10,13-12,15l-4.029,2.417A2,2,0,0,0,17,39.132v1.122a2,2,0,0,1-1.715,1.979C12.819,42.587,8.413,43.294,7,44a6.37,6.37,0,0,1-5.975.011c.059.876.278,1.667,1,1.989a7.642,7.642,0,0,0,3,1c3,0,3.058-1.51,5-2,4-1,7.995,0,8.995-3V40a64.35,64.35,0,0,0,11.993-7c7-5,7-15,7-15H47V14H36.656A2.656,2.656,0,0,0,34,16.656Z" style="fill:#faa68e"/><path d="M16.018,37C19.3,33.72,25.932,14.32,28.211,7.43a3.985,3.985,0,0,1,3.358-2.71L43,3h4V1H42L30.569,2.72a3.985,3.985,0,0,0-3.358,2.71C24.932,12.32,18.3,31.72,15.018,35c-2.618,2.62-7.8,3.95-11.064,4.56-1.709.32-2.928-.29-2.928,1.44v.9c1.089-.314,2.823-.135,3.928-.342C8.222,40.95,13.4,39.62,16.018,37Z" style="fill:#ffdecf"/><path d="M21.007,36.5a.5.5,0,0,1-.4-.8,5.659,5.659,0,0,1,.73-.758.519.519,0,0,1,.722.017.483.483,0,0,1-.016.692,5.382,5.382,0,0,0-.634.645A.5.5,0,0,1,21.007,36.5Zm2.215-2.021a.5.5,0,0,1-.306-.895l.784-.6a.509.509,0,0,1,.707.09.492.492,0,0,1-.088.7l-.792.606A.5.5,0,0,1,23.222,34.479ZM25.6,32.646a.5.5,0,0,1-.311-.891q.38-.3.774-.624a.5.5,0,1,1,.632.773q-.4.328-.785.634A.5.5,0,0,1,25.6,32.646Zm2.292-1.94a.5.5,0,0,1-.338-.869q.36-.329.718-.676a.5.5,0,0,1,.7.717q-.369.358-.739.7A.5.5,0,0,1,27.893,30.706ZM30,28.573a.5.5,0,0,1-.375-.831q.324-.366.635-.749a.5.5,0,0,1,.775.633q-.324.4-.66.778A.5.5,0,0,1,30,28.573Zm1.824-2.379a.493.493,0,0,1-.272-.081.5.5,0,0,1-.147-.691c.176-.272.345-.547.505-.828a.5.5,0,1,1,.869.494q-.255.448-.536.879A.5.5,0,0,1,31.828,26.194Zm1.387-2.652a.532.532,0,0,1-.186-.035.5.5,0,0,1-.279-.651q.178-.443.321-.9a.5.5,0,0,1,.955.3c-.1.332-.219.657-.346.979A.5.5,0,0,1,33.215,23.542Zm.773-2.89a.378.378,0,0,1-.067-.005.5.5,0,0,1-.429-.561l.018-.144,0-.788a.5.5,0,0,1,1,0l-.025,1.065A.5.5,0,0,1,33.988,20.652Zm.019-3a.5.5,0,0,1-.5-.5V16.66a3.1,3.1,0,0,1,.057-.6.5.5,0,0,1,.982.188,2.215,2.215,0,0,0-.039.409v.494A.5.5,0,0,1,34.007,17.654ZM35.1,15.009a.5.5,0,0,1-.295-.905,3.158,3.158,0,0,1,1.068-.5.5.5,0,0,1,.25.968,2.132,2.132,0,0,0-.728.345A.5.5,0,0,1,35.1,15.009Zm9.891-.509h-1a.5.5,0,0,1,0-1h1a.5.5,0,0,1,0,1Zm-3,0h-1a.5.5,0,0,1,0-1h1a.5.5,0,0,1,0,1Zm-3,0h-1a.5.5,0,0,1,0-1h1a.5.5,0,0,1,0,1Z" style="fill:#d47f6c"/><ellipse cx="36.012" cy="4" rx="1.148" ry="0.825" transform="translate(7.712 26.626) rotate(-44.98)" style="fill:#f6fafd"/><ellipse cx="32.01" cy="5.987" rx="2.286" ry="1.642" transform="translate(5.136 24.378) rotate(-44.98)" style="fill:#f6fafd"/><ellipse cx="2.746" cy="41.5" rx="0.413" ry="0.574" transform="translate(-28.55 14.108) rotate(-45.02)" style="fill:#f6fafd"/></g></svg>