<svg xmlns="http://www.w3.org/2000/svg" viewBox="0 0 48 48"><title>25-botox</title><g id="_25-botox" data-name="25-botox"><path d="M45,18s0,12.38-5,13.86l-.13-.02A12.65,12.65,0,0,0,40,30V22C40,12.1,29.82,1.22,18.35,1.01,18.81,1,19.36,1,20.01,1h4.66C39.98,1,45,10,45,18Z" style="fill:#5cafff"/><path d="M8.03,30.86C8.01,30.57,8,30.29,8,30V22.48c0-1.37,1.27-4.27,2-5.48,2.75-4.56,5.88-3.06,6.95-6.78A11.779,11.779,0,0,0,24,15c9.91,2.7,15.98,3.4,16,7v8a12.65,12.65,0,0,1-.13,1.84A18.146,18.146,0,0,1,35.3,41.6,15.389,15.389,0,0,1,23.99,47C15.46,47,8.5,38.87,8.03,30.86Z" style="fill:#ffcdbe"/><path d="M24,15a11.779,11.779,0,0,1-7.05-4.78C15.88,13.94,12.75,12.44,10,17c-.73,1.21-2,4.11-2,5.48v3c0-1.37,1.27-4.27,2-5.48,2.75-4.56,5.88-3.06,6.95-6.78A11.779,11.779,0,0,0,24,18c9.91,2.7,15.98,3.4,16,7V22C39.98,18.4,33.91,17.7,24,15Z" style="fill:#ffbeaa"/><path d="M16.95,10.22a11.483,11.483,0,0,1-1.66-3.98A11.3,11.3,0,0,1,15.02,3c.81-1.62,1.28-1.93,3.31-1.99h.02C29.82,1.22,40,12.1,40,22c-.02-3.6-6.09-4.3-16-7A11.779,11.779,0,0,1,16.95,10.22Z" style="fill:#8dc7ff"/><path d="M11.03,30.86c-.02-.29-.03-.57-.03-.86V22.48c0-1.37,1.27-4.27,2-5.48,2.032-3.369,4.268-3.434,5.731-4.736A10.5,10.5,0,0,1,16.95,10.22C15.88,13.94,12.75,12.44,10,17c-.73,1.21-2,4.11-2,5.48V30c0,.29.01.57.03.86C8.5,38.87,15.46,47,23.99,47a13.313,13.313,0,0,0,1.473-.09C17.643,46.015,11.472,38.386,11.03,30.86Z" style="fill:#ffbeaa"/><path d="M37,21.672V30a12.65,12.65,0,0,1-.13,1.84A18.146,18.146,0,0,1,32.3,41.6a15.739,15.739,0,0,1-9.837,5.31A13.55,13.55,0,0,0,23.99,47,15.389,15.389,0,0,0,35.3,41.6a18.146,18.146,0,0,0,4.57-9.76A12.65,12.65,0,0,0,40,30V25C39.992,23.508,38.93,22.516,37,21.672Z" style="fill:#ffeee5"/><path d="M37,18.672v3c1.93.844,2.992,1.836,3,3.328V22C39.992,20.508,38.93,19.516,37,18.672Z" style="fill:#ffcdbe"/><path d="M15.29,6.24a11.483,11.483,0,0,0,1.66,3.98C15.88,13.94,12.75,12.44,10,17c-.73,1.21-2,4.11-2,5.48V30c0,.29.01.57.03.86-4.17-1.1-4.88-9.22-5.01-11.96C4.68,10.78,12.82,7.17,15.29,6.24Z" style="fill:#5cafff"/><path d="M15,3h.02a11.3,11.3,0,0,0,.27,3.24C12.82,7.17,4.68,10.78,3.02,18.9,3,18.34,3,18,3,18,3,11,7.03,3,15,3Z" style="fill:#1985ed"/><path d="M13,11c-3,1-6,5-7,7-.67,1.341-.891,6.724-.964,10.129A5.011,5.011,0,0,0,8.03,30.86C8.01,30.57,8,30.29,8,30V22.48c0-1.37,1.27-4.27,2-5.48,2.75-4.56,5.88-3.06,6.95-6.78A10.667,10.667,0,0,1,16.1,8.66,6.3,6.3,0,0,1,13,11Z" style="fill:#40a1ff"/><path d="M3.014,18.7c0,.065,0,.124.006.2,1.66-8.12,9.8-11.73,12.27-12.66a12.34,12.34,0,0,1-.277-2.072C8.31,5.189,3.15,11.272,3.014,18.7Z" style="fill:#3161e3"/><path d="M12.95,10.21c.137.207.29.411.446.614A6.428,6.428,0,0,0,16.1,8.66h0A12.044,12.044,0,0,1,15.29,6.24,25.054,25.054,0,0,0,11.784,7.9,10.935,10.935,0,0,0,12.95,10.21Z" style="fill:#40a1ff"/><path d="M15.013,4.168A9.379,9.379,0,0,1,15.02,3H15a10.545,10.545,0,0,0-4,.762A12.048,12.048,0,0,0,11.139,5.4,13.213,13.213,0,0,1,15.013,4.168Z" style="fill:#1674cf"/><path d="M16.95,10.22a9.2,9.2,0,0,1-.5-.841c-.132-.241-.245-.479-.354-.718h0a6.428,6.428,0,0,1-2.7,2.164,10.624,10.624,0,0,0,1.825,1.83A4.01,4.01,0,0,0,16.95,10.22Z" style="fill:#1985ed"/><path d="M11.29,6.23A12.419,12.419,0,0,0,11.784,7.9,25.054,25.054,0,0,1,15.29,6.24c-.048-.217-.087-.426-.121-.628-.015-.09-.026-.174-.039-.262s-.03-.205-.042-.3c-.015-.121-.026-.233-.036-.345,0-.046-.009-.093-.013-.138-.011-.141-.02-.272-.026-.4A13.213,13.213,0,0,0,11.139,5.4C11.179,5.667,11.226,5.94,11.29,6.23Z" style="fill:#2a54c4"/><path d="M5.845,29.358a4.229,4.229,0,0,0,2.185,1.5C8.01,30.57,8,30.29,8,30V22.48a6.179,6.179,0,0,1,.321-1.629A14.891,14.891,0,0,0,5.845,29.358Z" style="fill:#1985ed"/><path d="M45,18c0-8-5.02-17-20.33-17H20.01c-.65,0-1.2,0-1.66.01.506.009,1.007.046,1.507.1C44.163,2.76,43.945,18.327,40.352,31.728,45,29.783,45,18,45,18Z" style="fill:#8dc7ff"/><path d="M18.95,6.21a11.483,11.483,0,0,1-1.66-3.98c-.089-.4-.148-.776-.193-1.125-1.044.185-1.465.66-2.077,1.885a11.3,11.3,0,0,0,.27,3.24,11.483,11.483,0,0,0,1.66,3.98A11.779,11.779,0,0,0,24,14.99c9.91,2.7,15.98,3.4,16,7A17.744,17.744,0,0,0,38.1,14.3c-2.766-1.024-6.9-1.892-12.1-3.309A11.779,11.779,0,0,1,18.95,6.21Z" style="fill:#5cafff"/><path d="M25,12.99a11.779,11.779,0,0,1-7.05-4.78,11.483,11.483,0,0,1-1.66-3.98A12.14,12.14,0,0,1,16,1.576,4.229,4.229,0,0,0,15.02,2.99a11.3,11.3,0,0,0,.27,3.24,11.483,11.483,0,0,0,1.66,3.98A11.779,11.779,0,0,0,24,14.99c9.91,2.7,15.98,3.4,16,7a16.281,16.281,0,0,0-.721-4.673C36.816,15.758,31.816,14.847,25,12.99Z" style="fill:#40a1ff"/><path d="M40,21.99C40,12.09,29.82,1.21,18.35,1h-.02c-1.546.046-2.187.241-2.763,1.045.229-.021.477-.037.763-.045h.02c9.889.181,18.812,8.293,21.086,16.87C39.083,19.671,39.992,20.618,40,21.99Z" style="fill:#b3daff"/><path d="M36.855,33.979a.5.5,0,0,1-.477-.652c.049-.154.1-.308.142-.466a.5.5,0,0,1,.96.278c-.047.165-.1.329-.148.491A.5.5,0,0,1,36.855,33.979Z" style="fill:#d47f6c"/><path d="M23.884,44.5h-.048l-.3,0a.5.5,0,0,1,.031-1l.268,0c.236,0,.467-.006.7-.02a.5.5,0,0,1,.061,1Q24.242,44.5,23.884,44.5Zm-2.33-.26a.533.533,0,0,1-.112-.012q-.516-.119-1.019-.285a.5.5,0,1,1,.314-.949c.305.1.615.187.928.259a.5.5,0,0,1-.111.987Zm5.009-.05a.5.5,0,0,1-.11-.987q.473-.108.935-.255a.5.5,0,1,1,.3.953q-.5.159-1.014.277A.469.469,0,0,1,26.563,44.19Zm-7.837-1.022a.49.49,0,0,1-.236-.06q-.46-.246-.9-.531a.5.5,0,0,1,.54-.842q.411.264.837.493a.5.5,0,0,1-.236.94Zm10.681-.01a.5.5,0,0,1-.226-.946q.432-.219.848-.472a.5.5,0,1,1,.521.854c-.3.182-.606.353-.918.51A.49.49,0,0,1,29.407,43.158Zm2.525-1.668a.5.5,0,0,1-.321-.884c.249-.208.492-.424.727-.651a.5.5,0,0,1,.693.721q-.38.363-.779.7A.5.5,0,0,1,31.932,41.49Zm-15.693-.045a.5.5,0,0,1-.327-.121q-.393-.339-.767-.708a.5.5,0,0,1,.7-.713q.351.346.718.663a.5.5,0,0,1,.052.706A.5.5,0,0,1,16.239,41.445Zm17.8-2.126a.5.5,0,0,1-.392-.81q.3-.383.583-.787a.5.5,0,0,1,.823.57c-.2.287-.406.565-.621.838A.5.5,0,0,1,34.042,39.319Zm-19.9-.063a.5.5,0,0,1-.391-.188q-.322-.4-.625-.829a.5.5,0,0,1,.815-.58c.19.268.388.53.591.784a.5.5,0,0,1-.39.813Zm21.544-2.478a.493.493,0,0,1-.231-.057.5.5,0,0,1-.211-.675c.151-.288.3-.581.429-.882a.5.5,0,0,1,.912.41q-.215.479-.455.937A.5.5,0,0,1,35.689,36.778Zm-23.233-.037a.5.5,0,0,1-.437-.255q-.252-.45-.484-.915a.5.5,0,1,1,.9-.445c.146.294.3.585.46.87a.5.5,0,0,1-.191.681A.489.489,0,0,1,12.456,36.741Z" style="fill:#d47f6c"/><path d="M11.169,33.971a.5.5,0,0,1-.469-.326q-.088-.24-.173-.482a.5.5,0,1,1,.946-.326c.052.153.108.307.165.46a.5.5,0,0,1-.295.642A.482.482,0,0,1,11.169,33.971Z" style="fill:#d47f6c"/><path d="M16,28a5.006,5.006,0,0,1-5-5h2a3,3,0,0,0,6,0h2A5.006,5.006,0,0,1,16,28Z" style="fill:#415372"/><path d="M32,28a5.006,5.006,0,0,1-5-5h2a3,3,0,0,0,6,0h2A5.006,5.006,0,0,1,32,28Z" style="fill:#415372"/><path d="M26,32a2,2,0,0,1-4,0c0-1.105.895-8,2-8S26,30.9,26,32Z" style="fill:#fc979e"/><ellipse cx="33" cy="12" rx="0.825" ry="1.148" transform="translate(1.185 26.86) rotate(-45.02)" style="fill:#f6fafd"/><ellipse cx="30.003" cy="8.987" rx="1.642" ry="2.286" transform="translate(2.438 23.857) rotate(-45.02)" style="fill:#f6fafd"/><ellipse cx="24.746" cy="31.5" rx="0.413" ry="0.574" transform="translate(-15.028 26.738) rotate(-45.02)" style="fill:#f6fafd"/><path d="M24,40.5A4.505,4.505,0,0,1,19.5,36a.5.5,0,0,1,1,0,3.5,3.5,0,0,0,7,0,.5.5,0,0,1,1,0A4.505,4.505,0,0,1,24,40.5Z" style="fill:#fc979e"/></g></svg>