<svg xmlns="http://www.w3.org/2000/svg" viewBox="0 0 48 48"><title>26-botox</title><g id="_26-botox" data-name="26-botox"><path d="M38.958,29.95l-.03-8C38.9,12.12,29.809,1.36,18.5,1.03c.409-.01.878-.01,1.417-.01L24.561,1C39.846.95,44.875,9.93,44.905,17.93c0,0,.05,14-5.957,14.02l-.109-.01A16.814,16.814,0,0,0,38.958,29.95Z" style="fill:#5cafff"/><path d="M24.6,1l-2.342.01c14.766.21,19.656,9.037,19.685,16.92,0,0,.028,8.809-2.959,12.46-.014.516-.045,1.036-.107,1.55l.11.01c6.006-.02,5.956-14.02,5.956-14.02C44.917,9.93,39.888.95,24.6,1Z" style="fill:#8dc7ff"/><path d="M16.948,10.34a11.473,11.473,0,0,1-1.726-4.06,11.655,11.655,0,0,1-.279-3.25c.838-1.69,1.307-1.95,3.552-2,11.314.33,20.4,11.09,20.433,20.92-.03-3.6-5.1-4.28-14.986-6.95A11.8,11.8,0,0,1,16.948,10.34Z" style="fill:#8dc7ff"/><path d="M18.948,6.34a11.455,11.455,0,0,1-1.726-4.06c-.089-.406-.149-.784-.194-1.136-1.051.185-1.474.653-2.085,1.886a11.655,11.655,0,0,0,.279,3.25,11.455,11.455,0,0,0,1.726,4.06A11.8,11.8,0,0,0,23.942,15c9.888,2.67,14.956,3.35,14.986,6.95A19.058,19.058,0,0,0,37.1,14.115C34.594,13.166,30.867,12.33,25.942,11A11.8,11.8,0,0,1,18.948,6.34Z" style="fill:#5cafff"/><path d="M17.948,8.34a11.455,11.455,0,0,1-1.726-4.06,12.6,12.6,0,0,1-.3-2.669,4.158,4.158,0,0,0-.981,1.419,11.655,11.655,0,0,0,.279,3.25,11.455,11.455,0,0,0,1.726,4.06A11.8,11.8,0,0,0,23.942,15c9.888,2.67,14.956,3.35,14.986,6.95a17.736,17.736,0,0,0-.7-4.8c-2.24-1.47-6.68-2.369-13.281-4.151A11.8,11.8,0,0,1,17.948,8.34Z" style="fill:#40a1ff"/><path d="M38.928,21.95C38.9,12.12,29.809,1.36,18.5,1.03c-2.245.05-2.714.31-3.552,2,0,0,0,.056-.008.135A9.23,9.23,0,0,1,16.5,3.03c9.232.269,16.98,7.483,19.537,15.469C37.943,19.366,38.915,20.38,38.928,21.95Z" style="fill:#b3daff"/><path d="M14.943,3.03a11.655,11.655,0,0,0,.279,3.25C12.768,7.21,4.686,10.83,3.03,18.92,3,18.39,3,18.07,3,18.07c-.02-7,3.971-15.01,11.923-15.04Z" style="fill:#1985ed"/><path d="M9.046,30.05c0,.33.01.67.04,1h-.03A3.9,3.9,0,0,1,6.033,29.6l-.02-4.54C6,20.94,8.707,19.53,9.655,19.17a8.592,8.592,0,0,0-.629,3.36Z" style="fill:#1985ed"/><path d="M9.141,21.061a7.769,7.769,0,0,1,.514-1.891c-.948.36-3.652,1.77-3.642,5.89l.02,4.54a4.581,4.581,0,0,0,1,.844l-.02-4.384A6.1,6.1,0,0,1,9.141,21.061Z" style="fill:#3161e3"/><path d="M9.655,19.17c-.948.36-3.652,1.77-3.642,5.89l.02,4.54c-2.414-2.71-2.9-8.48-3-10.67v-.01C4.686,10.83,12.768,7.21,15.222,6.28a11.473,11.473,0,0,0,1.726,4.06c-.169,4.65-4.609,3.68-7.024,8.24C9.825,18.77,9.735,18.97,9.655,19.17Z" style="fill:#40a1ff"/><path d="M5.03,20.92c1.45-7.081,7.821-10.737,11.034-12.163a12.015,12.015,0,0,1-.842-2.477C12.768,7.21,4.686,10.83,3.03,18.92v.01c.1,2.19.589,7.96,3,10.67l-.009-2.079A30.486,30.486,0,0,1,5.03,20.93Z" style="fill:#5cafff"/><path d="M3.017,18.63c0,.082.008.163.013.26C4.686,10.8,12.768,7.18,15.222,6.25a12.908,12.908,0,0,1-.28-2.071C8.3,5.229,3.185,11.259,3.017,18.63Z" style="fill:#3161e3"/><path d="M14.941,4.152a9.369,9.369,0,0,1,0-1.152h-.02A10.511,10.511,0,0,0,11,3.753a12.574,12.574,0,0,0,.136,1.62A13.217,13.217,0,0,1,14.941,4.152Z" style="fill:#1674cf"/><path d="M16.064,8.727h0a25.324,25.324,0,0,0-3.041,1.612A10.61,10.61,0,0,0,15.9,13.173a4.264,4.264,0,0,0,1.052-2.863A10.679,10.679,0,0,1,16.064,8.727Z" style="fill:#1985ed"/><path d="M13.018,10.332l0,.007a25.324,25.324,0,0,1,3.041-1.612h0a11.573,11.573,0,0,1-.5-1.248l-.014-.04c-.133-.409-.247-.81-.33-1.189a24.691,24.691,0,0,0-3.443,1.638A10.994,10.994,0,0,0,13.018,10.332Z" style="fill:#40a1ff"/><path d="M11.3,6.263a12.48,12.48,0,0,0,.476,1.61A25.127,25.127,0,0,1,15.22,6.237a12.8,12.8,0,0,1-.279-2.085,13.217,13.217,0,0,0-3.8,1.221C11.18,5.655,11.229,5.949,11.3,6.263Z" style="fill:#2a54c4"/><path d="M38.958,29.95l-.03-8c-.03-3.6-5.1-4.28-14.986-6.95a11.8,11.8,0,0,1-6.994-4.66c-.169,4.65-4.609,3.68-7.024,8.24-.1.19-.189.39-.269.59a8.592,8.592,0,0,0-.629,3.36l.02,7.52c0,.33.01.67.04,1H9.052C9.586,39,16.065,47,24,47c7.638,0,13.928-7.409,14.866-15.057l-.027,0A16.814,16.814,0,0,0,38.958,29.95Z" style="fill:#ffcdbe"/><path d="M38.928,21.95c-.03-3.6-5.1-4.28-14.986-6.95a13.226,13.226,0,0,1-4.7-2.252h0A11.153,11.153,0,0,1,17.965,11.6c-.026-.028-.05-.057-.076-.085-.16-.172-.313-.345-.456-.522-.172-.214-.336-.43-.485-.649-.169,4.65-4.609,3.68-7.024,8.24-.1.19-.189.39-.269.59a8.592,8.592,0,0,0-.629,3.36l.01,3.755h0l.01,3.765c0,.33.01.67.04,1H9.052C9.586,39,16.065,47,24,47a11.708,11.708,0,0,0,1.492-.1c-7.234-.929-12.94-8.408-13.44-15.852h.034c-.03-.33-.04-.67-.04-1l-.02-7.52a8.908,8.908,0,0,1,.451-2.86c2.055-1.505,4.158-2.048,4.434-4.955l.216-.135A11.876,11.876,0,0,0,23.942,19c9.888,2.67,14.956,3.35,14.986,6.95l.017,4.443c0-.147.013-.3.013-.443Z" style="fill:#ffbeaa"/><path d="M38.958,29.95l-.03-8c-.013-1.58-1-2.6-2.935-3.468L35.958,29.95a16.814,16.814,0,0,1-.119,1.99l.027,0C34.99,39.086,29.443,46.017,22.492,46.9A11.776,11.776,0,0,0,24,47c7.638,0,13.928-7.409,14.866-15.057l-.027,0A16.814,16.814,0,0,0,38.958,29.95Z" style="fill:#ffeee5"/><ellipse cx="32" cy="11" rx="0.825" ry="1.148" transform="translate(1.6 25.86) rotate(-45.02)" style="fill:#f6fafd"/><ellipse cx="29.003" cy="7.987" rx="1.642" ry="2.286" transform="translate(2.852 22.856) rotate(-45.02)" style="fill:#f6fafd"/><path d="M33.68,38.97a1.738,1.738,0,0,0-.449.87l-2.215-2.2,1.317-1.33,1.317-1.33,2.215,2.2a1.825,1.825,0,0,0-.868.46Z" style="fill:#ccd7f2"/><path d="M35.027,42.96l-.868-.87-.469-.46a1.942,1.942,0,0,1-.459-1.79,1.738,1.738,0,0,1,.449-.87L35,37.64a1.825,1.825,0,0,1,.868-.46,2,2,0,0,1,1.4.18,1.72,1.72,0,0,1,.389.28L47,46.93H46l-6.984.02Z" style="fill:#376dff"/><rect x="37.142" y="43.339" width="3.746" height="2" transform="translate(-19.925 40.574) rotate(-45)" style="fill:#a7bfe8"/><rect x="34.473" y="40.67" width="3.746" height="2" transform="translate(-18.82 37.905) rotate(-45)" style="fill:#a7bfe8"/><path d="M47,46.9,37.651,37.6a1.72,1.72,0,0,0-.389-.28,2,2,0,0,0-1.4-.18A1.825,1.825,0,0,0,35,37.6l-1.317,1.33a1.475,1.475,0,0,0-.123.172,1.838,1.838,0,0,1,.7.218,1.72,1.72,0,0,1,.389.28l1.159,1.151L36.963,39.6l1.414,1.414-1.149,1.148,1.26,1.251,1.144-1.145,1.414,1.415-1.14,1.14L42,46.906l4-.011Z" style="fill:#4f7fff"/><rect x="38.96" y="42.551" width="1.616" height="2" transform="translate(-19.147 40.876) rotate(-45)" style="fill:#dde4f7"/><rect x="36.281" y="39.886" width="1.627" height="2" transform="translate(-18.046 38.205) rotate(-45)" style="fill:#dde4f7"/><polygon points="31.629 37.044 29 33 29 33 33.043 35.63 31.629 37.044" style="fill:#e8eeff"/><path d="M31.016,37.64l.644-.65-.01-.01-1.317,1.33-1.317,1.33,2.215,2.2c-.014.063-.013.13-.022.195a18.421,18.421,0,0,0,1.828-2.388Z" style="fill:#ffbeaa"/><path d="M34.161,42.091h0l-.469-.46a1.942,1.942,0,0,1-.459-1.79l-.194-.193a18.421,18.421,0,0,1-1.828,2.388,1.9,1.9,0,0,0,.481,1.6l.4.393A16.907,16.907,0,0,0,34.161,42.091Z" style="fill:#ffcdbe"/><path d="M16,28a5.006,5.006,0,0,1-5-5h2a3,3,0,0,0,6,0h2A5.006,5.006,0,0,1,16,28Z" style="fill:#415372"/><path d="M32,28a5.006,5.006,0,0,1-5-5h2a3,3,0,0,0,6,0h2A5.006,5.006,0,0,1,32,28Z" style="fill:#415372"/><path d="M26,32a2,2,0,0,1-4,0c0-1.105.895-8,2-8S26,30.9,26,32Z" style="fill:#fc979e"/><ellipse cx="24.746" cy="31.5" rx="0.413" ry="0.574" transform="translate(-15.028 26.738) rotate(-45.02)" style="fill:#f6fafd"/><path d="M24,40.5A4.505,4.505,0,0,1,19.5,36a.5.5,0,0,1,1,0,3.5,3.5,0,0,0,7,0,.5.5,0,0,1,1,0A4.505,4.505,0,0,1,24,40.5Z" style="fill:#fc979e"/></g></svg>