<svg xmlns="http://www.w3.org/2000/svg" viewBox="0 0 48 48"><title>28-facial</title><g id="_28-facial" data-name="28-facial"><path d="M32.48,32.06A20.814,20.814,0,0,0,34,37V47H16V39.51l10.5-2.03a4.008,4.008,0,0,0,3.12-2.95L31,28l.03-.02A14.487,14.487,0,0,1,32.48,32.06Z" style="fill:#ffcdbe"/><path d="M10.66,8.46c2.08,5.49,7.75,8.78,16.07,14.63a12.658,12.658,0,0,1,1.22.97,13.783,13.783,0,0,1,3.08,3.92L31,28l-1.38,6.53a4.008,4.008,0,0,1-3.12,2.95L16,39.51l-2.13.41A4.007,4.007,0,0,1,9,36.01V32L5,31a1.987,1.987,0,0,1-2-2,6.143,6.143,0,0,1,1.09-1.97c.64-.91,1.45-1.97,2.18-2.89A8.006,8.006,0,0,0,8,19.17V14C8,12.01,9.4,10.14,10.66,8.46Z" style="fill:#ffcdbe"/><path d="M31,33a43.239,43.239,0,0,0,3,6.263V37a20.814,20.814,0,0,1-1.52-4.94,14.487,14.487,0,0,0-1.45-4.08L31,28l-1.38,6.53a4.008,4.008,0,0,1-3.12,2.95L16,39.51v3.344A86.3,86.3,0,0,0,27,39,7.1,7.1,0,0,0,31,33Z" style="fill:#faa68e"/><path d="M31.03,27.98a13.783,13.783,0,0,0-3.08-3.92,12.658,12.658,0,0,0-1.22-.97c-8.32-5.85-13.99-9.14-16.07-14.63a23.69,23.69,0,0,0-1.754,2.572c2.251,5.15,7.8,8.416,15.824,14.058a12.658,12.658,0,0,1,1.22.97,39.068,39.068,0,0,1,4.412,4.961L31,28Z" style="fill:#ffbeaa"/><path d="M31,47h3V39.263A43.239,43.239,0,0,1,31,33Z" style="fill:#fdddd7"/><path d="M32.48,32.06a14.487,14.487,0,0,0-1.45-4.08,13.783,13.783,0,0,0-3.08-3.92L28,24s10.49,5.72,10.98,10.65A7.707,7.707,0,0,1,34,37,20.814,20.814,0,0,1,32.48,32.06Z" style="fill:#3161e3"/><path d="M38.127,35.359c.287-.219.572-.451.853-.709C38.49,29.72,28,24,28,24l-.05.06a13.783,13.783,0,0,1,3.08,3.92c.223.417.418.848.6,1.285C33.935,30.85,36.736,33.083,38.127,35.359Z" style="fill:#2a54c4"/><path d="M10.66,8.46A13.446,13.446,0,0,1,10,6a4.985,4.985,0,0,1,5-5h1s3.14,10.43,10,15c9,6,15,10,15,16l.17.12a16.141,16.141,0,0,1-2.19,2.53C38.49,29.72,28,24,28,24l-.05.06a12.658,12.658,0,0,0-1.22-.97C18.41,17.24,12.74,13.95,10.66,8.46Z" style="fill:#8dc7ff"/><path d="M23.027,17.337c9.519,6.5,15.879,10.841,15.955,17.311A16.16,16.16,0,0,0,41.17,32.12L41,32c0-6-6-10-15-16C19.14,11.43,16,1,16,1H15a4.969,4.969,0,0,0-2.409.642C13.416,4.1,16.763,13.066,23.027,17.337Z" style="fill:#b3daff"/><path d="M44.82,17A24.184,24.184,0,0,1,45,20a21.641,21.641,0,0,1-2,8.93C42.9,23.92,32.52,15.52,29,12,26,9,26,1,26,1,35.6,1,43.53,6.72,44.82,17Z" style="fill:#8dc7ff"/><path d="M32,10c-1.993-1.993-2.659-6.185-2.884-8.78A23.087,23.087,0,0,0,26,1s0,8,3,11c3.52,3.52,13.9,11.92,14,16.93a22.248,22.248,0,0,0,1.712-5.563C41.806,18.579,34.774,12.774,32,10Z" style="fill:#5cafff"/><path d="M43,28.93a21.777,21.777,0,0,1-1.83,3.19L41,32c0-6-6-10-15-16C19.14,11.43,16,1,16,1H26s0,8,3,11C32.52,15.52,42.9,23.92,43,28.93Z" style="fill:#5cafff"/><path d="M29,12C26,9,26,1,26,1H20.2c.629,2.938,2.855,11.526,7.8,14,5.2,2.6,13.416,9.72,14.2,15.478.283-.5.554-1.014.8-1.548C42.9,23.92,32.52,15.52,29,12Z" style="fill:#40a1ff"/><path d="M13.471,4c-.407-1-.7-1.834-.88-2.358a5.069,5.069,0,0,0-1.131.818A5.066,5.066,0,0,0,10.422,4h3.049Z" style="fill:#b3daff"/><path d="M41,32a8.9,8.9,0,0,0-1.449-4.8A22.267,22.267,0,0,1,38.3,31.223c-.1.238-.2.476-.3.707-.021.045-.046.085-.067.13a5.857,5.857,0,0,1,1.047,2.59l0,0c.022-.02.042-.046.063-.066a14.757,14.757,0,0,0,1.065-1.1q.549-.636,1.06-1.358Z" style="fill:#d6ebff"/><path d="M17.122,4C16.367,2.217,16,1,16,1H15a4.94,4.94,0,0,0-.839.085c-.115.02-.23.042-.342.071s-.225.068-.336.1a5.382,5.382,0,0,0-.892.382h0c.176.524.473,1.353.88,2.358Z" style="fill:#d6ebff"/><path d="M29.918,5.91a16.942,16.942,0,0,1,9.218,10.835,38.245,38.245,0,0,1,5.576,6.622A20.437,20.437,0,0,0,45,20a24.184,24.184,0,0,0-.18-3C43.6,7.294,36.463,1.66,27.59,1.06c.515.037,1.023.092,1.526.16A26.519,26.519,0,0,0,29.918,5.91Z" style="fill:#d6ebff"/><path d="M29.918,5.91a26.519,26.519,0,0,1-.8-4.69c-.5-.068-1.011-.123-1.526-.16S26.536,1,26,1a31.337,31.337,0,0,0,.267,3.617A19.435,19.435,0,0,1,29.918,5.91Z" style="fill:#8dc7ff"/><path d="M43.964,26.424q.051-.156.1-.312c.123-.408.239-.821.34-1.24,0-.019.01-.038.014-.057q.171-.714.3-1.448h0a38.245,38.245,0,0,0-5.576-6.622A20.712,20.712,0,0,1,39.82,20,24.358,24.358,0,0,1,40,22.961c1.74,2.165,2.967,4.263,3,5.969.179-.391.346-.793.505-1.2.042-.108.081-.218.121-.328C43.745,27.08,43.859,26.754,43.964,26.424Z" style="fill:#8dc7ff"/><path d="M39.869,25.247c-.074.66-.184,1.31-.318,1.952A8.9,8.9,0,0,1,41,32l.17.12A21.777,21.777,0,0,0,43,28.93c-.251.534-.522,1.049-.8,1.548A12.509,12.509,0,0,0,39.869,25.247Z" style="fill:#8dc7ff"/><path d="M20.963,4c-.361-1.222-.612-2.281-.766-3H16s.367,1.217,1.122,3Z" style="fill:#8dc7ff"/><path d="M40,23a19.946,19.946,0,0,1-.131,2.247A12.509,12.509,0,0,1,42.2,30.478c.283-.5.554-1.014.8-1.548-.034-1.706-1.261-3.8-3-5.969Z" style="fill:#5cafff"/><path d="M21,4a22.273,22.273,0,0,1,5.267.617A31.337,31.337,0,0,1,26,1H20.2c.154.719.405,1.778.766,3Z" style="fill:#5cafff"/><path d="M13.5,23A3.779,3.779,0,0,1,10,19h2c0,1.084.687,2,1.5,2s1.5-.916,1.5-2h2A3.779,3.779,0,0,1,13.5,23Z" style="fill:#415372"/><path d="M9,33h4a4.333,4.333,0,0,1-4,2Z" style="fill:#fc979e"/><path d="M8,19.17a7.96,7.96,0,0,1-1.716,4.952c-.734.924-1.55,1.992-2.194,2.908A6.143,6.143,0,0,0,3,29a1.987,1.987,0,0,0,2,2H5a2.989,2.989,0,0,0,3.706-3.113L8,18Z" style="fill:#ffa8ad"/><path d="M10.605,44.454h-.032a6.458,6.458,0,0,1-1.07-.16.5.5,0,0,1-.371-.6.493.493,0,0,1,.6-.371,5.3,5.3,0,0,0,.9.135.5.5,0,0,1-.033,1Zm1.988-.168a.5.5,0,0,1-.078-.994l.987-.158a.5.5,0,0,1,.158.988l-.987.158A.549.549,0,0,1,12.593,44.286Zm2.962-.474a.5.5,0,0,1-.078-.995l.987-.158a.506.506,0,0,1,.573.415.5.5,0,0,1-.415.573l-.987.159A.549.549,0,0,1,15.555,43.812Zm-7.771-.28a.49.49,0,0,1-.269-.079,6.732,6.732,0,0,1-.86-.653.5.5,0,1,1,.668-.744,5.783,5.783,0,0,0,.731.555.5.5,0,0,1-.27.921Zm10.733-.195a.5.5,0,0,1-.079-.994l.988-.157a.5.5,0,1,1,.158.988l-.987.157A.559.559,0,0,1,18.517,43.337Zm2.962-.474a.5.5,0,0,1-.078-.994l.988-.158a.508.508,0,0,1,.573.415.5.5,0,0,1-.415.573l-.987.158A.552.552,0,0,1,21.479,42.863Zm2.962-.473a.5.5,0,0,1-.078-.994l.988-.159a.5.5,0,0,1,.158.989l-.988.158A.529.529,0,0,1,24.441,42.39Zm2.962-.475a.5.5,0,0,1-.077-.994l.988-.157a.507.507,0,0,1,.573.416.5.5,0,0,1-.416.572l-.989.157A.516.516,0,0,1,27.4,41.915ZM5.748,41.372a.5.5,0,0,1-.437-.258,6.286,6.286,0,0,1-.444-.988.5.5,0,1,1,.944-.33,5.4,5.4,0,0,0,.375.834.5.5,0,0,1-.438.742ZM5,38.48A.483.483,0,0,1,4.5,38V37a.5.5,0,0,1,1,0v.96A.518.518,0,0,1,5,38.48ZM5,35.5a.5.5,0,0,1-.5-.5V34a.5.5,0,0,1,1,0v1A.5.5,0,0,1,5,35.5Z" style="fill:#a7bfe8"/><ellipse cx="40" cy="10" rx="0.825" ry="1.148" transform="translate(4.652 31.225) rotate(-45.02)" style="fill:#f6fafd"/><ellipse cx="37.003" cy="6.987" rx="1.642" ry="2.286" transform="translate(5.905 28.222) rotate(-45.02)" style="fill:#f6fafd"/><ellipse cx="37.746" cy="11.5" rx="0.413" ry="0.574" transform="translate(2.93 30.071) rotate(-45.02)" style="fill:#f6fafd"/><ellipse cx="6.746" cy="28.5" rx="0.413" ry="0.574" transform="translate(-18.182 13.126) rotate(-45.02)" style="fill:#f6fafd"/></g></svg>