
<svg width="50" height="50" viewBox="0 0 50 50" fill="none" xmlns="http://www.w3.org/2000/svg">
<path d="M16.3784 22.7451C16.2816 22.7451 16.1854 22.7502 16.0893 22.7599C15.9931 22.7696 15.898 22.7843 15.8033 22.8038C15.7085 22.8229 15.6149 22.847 15.5226 22.8758C15.4303 22.9046 15.3395 22.9377 15.2504 22.9755C15.1613 23.0132 15.0739 23.0553 14.9887 23.1021C14.9038 23.1486 14.821 23.1993 14.7407 23.254C14.6604 23.3091 14.583 23.3677 14.5083 23.4304C14.4336 23.493 14.3621 23.5588 14.2942 23.6287C14.2258 23.6985 14.161 23.7715 14.0998 23.8478C14.0385 23.9241 13.9811 24.0033 13.9272 24.0854C13.8737 24.1674 13.824 24.2517 13.7786 24.3387C13.7328 24.4258 13.6916 24.5147 13.6546 24.6062C13.6176 24.6972 13.5852 24.7901 13.557 24.8844C13.5289 24.9786 13.5053 25.0744 13.4866 25.1712C13.4676 25.2676 13.4535 25.3652 13.4436 25.4634C13.4341 25.5617 13.4296 25.6599 13.4292 25.7586V30.7223C13.4292 30.7806 13.4348 30.8382 13.4461 30.895C13.457 30.9523 13.4736 31.0077 13.4954 31.0613C13.5172 31.1153 13.5437 31.1664 13.5754 31.2146C13.6071 31.2632 13.643 31.3078 13.6835 31.3489C13.7236 31.3902 13.7673 31.427 13.8148 31.4593C13.862 31.4914 13.912 31.5187 13.9649 31.541C14.0174 31.5634 14.0716 31.5803 14.1276 31.5914C14.1832 31.6029 14.2396 31.6087 14.2966 31.6087C14.3537 31.6087 14.41 31.6029 14.4657 31.5914C14.5217 31.5803 14.5759 31.5634 14.6284 31.541C14.6812 31.5187 14.7312 31.4914 14.7784 31.4593C14.826 31.427 14.8696 31.3902 14.9098 31.3489C14.9503 31.3078 14.9862 31.2632 15.0179 31.2146C15.0496 31.1664 15.076 31.1153 15.0979 31.0613C15.1197 31.0077 15.1362 30.9523 15.1472 30.895C15.1584 30.8382 15.1641 30.7806 15.1641 30.7223V28.7723H17.5927V30.7223C17.5927 30.7806 17.598 30.8382 17.6093 30.895C17.6202 30.9523 17.6368 31.0077 17.6586 31.0613C17.6804 31.1153 17.7072 31.1664 17.7389 31.2146C17.7702 31.2632 17.8062 31.3078 17.8467 31.3489C17.8868 31.3902 17.9308 31.427 17.978 31.4593C18.0252 31.4914 18.0752 31.5187 18.1281 31.541C18.1805 31.5634 18.2348 31.5803 18.2908 31.5914C18.3464 31.6029 18.4031 31.6087 18.4598 31.6087C18.5169 31.6087 18.5732 31.6029 18.6292 31.5914C18.6849 31.5803 18.7391 31.5634 18.7919 31.541C18.8444 31.5187 18.8944 31.4914 18.942 31.4593C18.9892 31.427 19.0328 31.3902 19.0733 31.3489C19.1135 31.3078 19.1494 31.2632 19.1811 31.2146C19.2128 31.1664 19.2396 31.1153 19.2614 31.0613C19.2829 31.0077 19.2994 30.9523 19.3107 30.895C19.3216 30.8382 19.3273 30.7806 19.3273 30.7223V25.7586C19.3273 25.6599 19.3223 25.5617 19.3128 25.4634C19.3033 25.3652 19.2889 25.2676 19.2702 25.1712C19.2512 25.0744 19.2276 24.9786 19.1994 24.8844C19.1716 24.7901 19.1388 24.6972 19.1019 24.6062C19.0649 24.5147 19.0237 24.4258 18.9782 24.3387C18.9325 24.2517 18.8828 24.1674 18.8293 24.0854C18.7757 24.0033 18.718 23.9241 18.6567 23.8478C18.5958 23.7715 18.531 23.6985 18.4626 23.6287C18.3943 23.5588 18.3228 23.493 18.2482 23.4304C18.1735 23.3677 18.096 23.3091 18.0157 23.254C17.9358 23.1993 17.853 23.1486 17.7678 23.1021C17.6826 23.0553 17.5956 23.0132 17.5065 22.9755C17.417 22.9377 17.3265 22.9046 17.2339 22.8758C17.1416 22.847 17.0479 22.8229 16.9535 22.8038C16.8588 22.7843 16.7633 22.7696 16.6672 22.7599C16.5711 22.7502 16.4749 22.7451 16.3784 22.7451ZM15.1641 26.9995V25.7586C15.1641 25.6772 15.1718 25.5966 15.1873 25.5167C15.2032 25.4368 15.2261 25.3594 15.2567 25.2842C15.2873 25.209 15.3247 25.1374 15.369 25.0697C15.4131 25.002 15.4634 24.9394 15.5198 24.8818C15.5765 24.8243 15.6378 24.7728 15.704 24.7278C15.7702 24.6825 15.8403 24.6443 15.9139 24.613C15.9875 24.582 16.0632 24.5583 16.1414 24.5425C16.2196 24.5266 16.2985 24.5187 16.3784 24.5187C16.458 24.5187 16.5369 24.5266 16.6151 24.5425C16.6933 24.5583 16.769 24.582 16.8429 24.613C16.9165 24.6443 16.9863 24.6825 17.0525 24.7278C17.1191 24.7728 17.1803 24.8243 17.2367 24.8818C17.293 24.9394 17.3434 25.002 17.3878 25.0697C17.4318 25.1374 17.4695 25.209 17.4998 25.2842C17.5304 25.3594 17.5537 25.4368 17.5692 25.5167C17.5846 25.5966 17.5924 25.6772 17.5927 25.7586V26.9995H15.1641Z" fill="#F54A79"/>
<path d="M34.0721 28.0633C34.1292 28.0633 34.1855 28.0576 34.2415 28.0461C34.2972 28.0349 34.3514 28.018 34.4042 27.9957C34.4567 27.9734 34.5067 27.946 34.5539 27.914C34.6015 27.8816 34.6451 27.8449 34.6853 27.8035C34.7258 27.7625 34.7617 27.7178 34.7934 27.6693C34.8251 27.621 34.8515 27.5699 34.8734 27.5159C34.8952 27.4623 34.9117 27.4069 34.9227 27.3497C34.9339 27.2928 34.9396 27.2352 34.9396 27.1769C34.9396 27.1186 34.9339 27.061 34.9227 27.0038C34.9117 26.9469 34.8952 26.8915 34.8734 26.8375C34.8515 26.7839 34.8251 26.7328 34.7934 26.6846C34.7617 26.636 34.7258 26.5914 34.6853 26.55C34.6451 26.5089 34.6015 26.4722 34.5539 26.4398C34.5067 26.4074 34.4567 26.3801 34.4042 26.3581C34.3514 26.3358 34.2972 26.3189 34.2415 26.3074C34.1855 26.2962 34.1292 26.2905 34.0721 26.2905H30.7764V25.0495C30.7764 25.0146 30.7795 24.9801 30.7862 24.9459C30.7929 24.9117 30.8028 24.8786 30.8162 24.8462C30.8292 24.8138 30.8451 24.7832 30.8641 24.7544C30.8831 24.7253 30.9046 24.6986 30.9289 24.6738C30.9528 24.649 30.9792 24.627 31.0078 24.6076C31.0359 24.5882 31.0659 24.572 31.0976 24.5586C31.1293 24.545 31.1617 24.5349 31.1951 24.5281C31.2286 24.5212 31.2624 24.518 31.2966 24.518H34.0721C34.1292 24.518 34.1855 24.5122 34.2415 24.5007C34.2972 24.4895 34.3514 24.4726 34.4042 24.4503C34.4567 24.428 34.5067 24.4007 34.5539 24.3686C34.6015 24.3362 34.6451 24.2995 34.6853 24.2581C34.7258 24.2171 34.7617 24.1725 34.7934 24.1239C34.8251 24.0757 34.8515 24.0246 34.8734 23.9706C34.8952 23.9169 34.9117 23.8615 34.923 23.8043C34.9339 23.7474 34.9396 23.6899 34.9396 23.6315C34.9396 23.5732 34.9339 23.5157 34.9227 23.4584C34.9117 23.4016 34.8952 23.3461 34.8734 23.2922C34.8515 23.2385 34.8251 23.1874 34.7934 23.1392C34.7617 23.0906 34.7258 23.046 34.6853 23.0046C34.6451 22.9636 34.6015 22.9269 34.5539 22.8945C34.5067 22.8621 34.4567 22.8347 34.4042 22.8128C34.3514 22.7905 34.2972 22.7735 34.2415 22.762C34.1855 22.7509 34.1292 22.7451 34.0721 22.7451H31.2966C31.2229 22.7451 31.149 22.7491 31.0757 22.7566C31.0021 22.7638 30.9292 22.775 30.857 22.7897C30.7845 22.8045 30.713 22.8229 30.6422 22.8448C30.5718 22.8668 30.5024 22.8923 30.434 22.9211C30.3657 22.9503 30.2992 22.9823 30.234 23.0179C30.1689 23.0536 30.1058 23.0924 30.0442 23.1342C29.9829 23.1763 29.9237 23.2213 29.8667 23.2691C29.8096 23.317 29.755 23.3674 29.7029 23.421C29.6504 23.4743 29.6011 23.5301 29.5543 23.5884C29.5074 23.6467 29.4634 23.7071 29.4222 23.7701C29.3814 23.8327 29.3433 23.8972 29.3085 23.9637C29.2736 24.0303 29.2423 24.0983 29.2137 24.1682C29.1855 24.238 29.1605 24.3089 29.1391 24.3809C29.1176 24.4532 29.0996 24.5263 29.0852 24.6004C29.0707 24.6742 29.0598 24.7487 29.0524 24.8239C29.0454 24.8988 29.0415 24.9743 29.0415 25.0495V29.3043C29.0415 29.3795 29.0454 29.4547 29.0524 29.5299C29.0598 29.6051 29.0707 29.6796 29.0852 29.7534C29.0996 29.8276 29.1176 29.9006 29.1391 29.9726C29.1605 30.0449 29.1855 30.1158 29.2137 30.1857C29.2423 30.2551 29.2736 30.3235 29.3085 30.3901C29.3433 30.4563 29.3814 30.5211 29.4222 30.5837C29.4634 30.6467 29.5074 30.7072 29.5543 30.7655C29.6011 30.8238 29.6504 30.8796 29.7029 30.9328C29.755 30.9861 29.8096 31.0368 29.8667 31.0847C29.9237 31.1326 29.9829 31.1775 30.0442 31.2193C30.1058 31.2614 30.1689 31.3003 30.234 31.3359C30.2992 31.3712 30.3657 31.4036 30.434 31.4324C30.5024 31.4615 30.5718 31.4867 30.6422 31.5087C30.713 31.5306 30.7845 31.549 30.8567 31.5641C30.9292 31.5788 31.0021 31.5896 31.0757 31.5972C31.149 31.6047 31.2229 31.6083 31.2966 31.6087H34.0721C34.1292 31.6087 34.1855 31.6029 34.2415 31.5914C34.2972 31.5803 34.3514 31.5634 34.4042 31.541C34.4567 31.5187 34.5067 31.4914 34.5539 31.4593C34.6015 31.427 34.6451 31.3902 34.6853 31.3489C34.7258 31.3078 34.7617 31.2632 34.7934 31.2146C34.8251 31.1664 34.8515 31.1153 34.8734 31.0613C34.8952 31.0077 34.9117 30.9523 34.9227 30.895C34.9339 30.8382 34.9396 30.7806 34.9396 30.7223C34.9396 30.664 34.9339 30.6064 34.9227 30.5492C34.9117 30.4923 34.8952 30.4369 34.8734 30.3829C34.8515 30.3293 34.8251 30.2782 34.7934 30.2299C34.7617 30.1813 34.7258 30.1367 34.6853 30.0957C34.6451 30.0543 34.6015 30.0176 34.5539 29.9852C34.5067 29.9528 34.4567 29.9258 34.4042 29.9035C34.3514 29.8812 34.2972 29.8643 34.2415 29.8531C34.1855 29.8416 34.1292 29.8358 34.0721 29.8358H31.2966C31.2624 29.8358 31.2286 29.8322 31.1951 29.8254C31.1617 29.8186 31.1293 29.8085 31.0976 29.7952C31.0659 29.7819 31.0359 29.7653 31.0078 29.7462C30.9792 29.7268 30.9532 29.7045 30.9289 29.68C30.9046 29.6552 30.8831 29.6285 30.8641 29.5994C30.8451 29.5702 30.8292 29.5396 30.8162 29.5076C30.8028 29.4752 30.7929 29.4421 30.7862 29.4079C30.7795 29.3737 30.7764 29.3392 30.7764 29.3043V28.0633H34.0721Z" fill="#F54A79"/>
<path d="M25.8324 26.2905H24.8784C24.8213 26.2905 24.765 26.2963 24.709 26.3074C24.6533 26.3189 24.5991 26.3359 24.5463 26.3582C24.4938 26.3801 24.4438 26.4075 24.3966 26.4399C24.349 26.4723 24.3054 26.509 24.2649 26.55C24.2247 26.5914 24.1888 26.636 24.1571 26.6846C24.1254 26.7328 24.0986 26.7839 24.0768 26.8376C24.0553 26.8915 24.0388 26.947 24.0275 27.0038C24.0166 27.0611 24.0109 27.1186 24.0109 27.1769C24.0109 27.2353 24.0166 27.2928 24.0275 27.3497C24.0388 27.4069 24.0553 27.4623 24.0768 27.516C24.0986 27.57 24.1254 27.6211 24.1571 27.6693C24.1888 27.7179 24.2247 27.7625 24.2649 27.8035C24.3054 27.8449 24.349 27.8816 24.3966 27.914C24.4438 27.9461 24.4938 27.9734 24.5463 27.9957C24.5991 28.018 24.6533 28.0349 24.709 28.0461C24.765 28.0576 24.8213 28.0634 24.8784 28.0634H25.3985V28.595C25.3989 28.6766 25.3912 28.7573 25.3757 28.8372C25.3602 28.9174 25.3369 28.9948 25.3066 29.0704C25.276 29.1456 25.2387 29.2172 25.1946 29.2849C25.1503 29.3529 25.0999 29.4155 25.0435 29.4735C24.9872 29.531 24.9256 29.5825 24.8594 29.6279C24.7931 29.6732 24.7231 29.7114 24.6494 29.7427C24.5755 29.774 24.4998 29.7974 24.4216 29.8132C24.343 29.829 24.2642 29.8373 24.1846 29.8373C24.1046 29.8373 24.0257 29.829 23.9472 29.8132C23.869 29.7974 23.7933 29.774 23.7193 29.7427C23.6457 29.7114 23.5756 29.6732 23.5094 29.6279C23.4432 29.5825 23.3816 29.531 23.3252 29.4735C23.2689 29.4155 23.2185 29.3529 23.1745 29.2849C23.1301 29.2172 23.0928 29.1456 23.0621 29.0704C23.0319 28.9948 23.0086 28.9174 22.9931 28.8372C22.9776 28.7573 22.9699 28.6766 22.9702 28.595V25.7586C22.9702 25.6963 22.9748 25.6341 22.984 25.5725C22.9931 25.5106 23.0068 25.4502 23.0248 25.3904C23.0431 25.3307 23.0657 25.2727 23.0921 25.2166C23.1188 25.1604 23.1495 25.1068 23.1844 25.0553C23.2189 25.0039 23.2573 24.9553 23.2992 24.9099C23.3407 24.8642 23.3858 24.8221 23.4337 24.7836C23.4819 24.7451 23.5327 24.7102 23.5855 24.6796C23.6387 24.6487 23.694 24.622 23.751 24.6001C23.8081 24.5778 23.8665 24.5598 23.9264 24.5464C23.9859 24.5331 24.0465 24.5245 24.1074 24.5205C24.1684 24.5166 24.2293 24.5177 24.2902 24.5231C24.3511 24.5285 24.411 24.5385 24.4705 24.5533C24.5301 24.568 24.5878 24.5871 24.6445 24.6109C24.7012 24.6343 24.7555 24.6623 24.8079 24.6944C24.8604 24.7264 24.9101 24.7624 24.9573 24.802C25.0045 24.8419 25.0485 24.8851 25.0893 24.9315C25.1274 24.9747 25.1689 25.0136 25.2147 25.0485C25.2601 25.0831 25.3087 25.1129 25.3598 25.1381C25.4112 25.1633 25.4644 25.1827 25.5193 25.1971C25.5746 25.2115 25.6306 25.2202 25.6873 25.2234C25.744 25.2267 25.8007 25.2238 25.8567 25.2159C25.9131 25.2076 25.968 25.1935 26.0216 25.1745C26.0754 25.155 26.1265 25.1306 26.1755 25.1011C26.2244 25.0715 26.2702 25.0374 26.3125 24.9985C26.3547 24.9596 26.3931 24.9171 26.4273 24.8707C26.4614 24.8243 26.4907 24.7746 26.5153 24.7224C26.54 24.6699 26.5594 24.6155 26.5734 24.5594C26.5879 24.5033 26.5963 24.446 26.5995 24.3881C26.603 24.3301 26.6006 24.2722 26.5925 24.2146C26.5847 24.157 26.5713 24.1009 26.5527 24.0462C26.5336 23.9915 26.51 23.9389 26.4812 23.8889C26.4523 23.8385 26.4192 23.7921 26.3811 23.7486C26.2822 23.6355 26.1755 23.5308 26.061 23.4344C25.9465 23.3379 25.8254 23.2508 25.6983 23.1727C25.5708 23.095 25.4383 23.0273 25.301 22.9701C25.1636 22.9125 25.0228 22.8661 24.8787 22.8301C24.7343 22.7945 24.5885 22.77 24.4406 22.757C24.2927 22.7437 24.1448 22.7419 23.9965 22.7516C23.8486 22.7613 23.7017 22.7822 23.557 22.8146C23.4119 22.8466 23.2699 22.8902 23.1315 22.9442C22.9928 22.9982 22.8589 23.0629 22.7297 23.1378C22.6008 23.2123 22.4779 23.2969 22.3613 23.3905C22.2444 23.4844 22.1355 23.5866 22.0338 23.6971C21.9323 23.8076 21.8394 23.9253 21.7552 24.0501C21.671 24.1754 21.5967 24.306 21.5319 24.4424C21.4671 24.5788 21.4125 24.7192 21.3685 24.8642C21.3245 25.0089 21.291 25.1565 21.2688 25.3062C21.2466 25.4563 21.2354 25.6071 21.2354 25.7586V28.595C21.2354 28.6939 21.2399 28.7922 21.2494 28.8904C21.2589 28.9887 21.273 29.0866 21.2917 29.1834C21.3104 29.2802 21.334 29.3759 21.3618 29.4702C21.39 29.5649 21.4224 29.6577 21.4593 29.7488C21.4963 29.8402 21.5375 29.9295 21.583 30.0166C21.6284 30.1036 21.678 30.1882 21.7316 30.2703C21.7855 30.3523 21.8429 30.4315 21.9042 30.5082C21.9654 30.5845 22.0302 30.6575 22.0986 30.7274C22.1669 30.7972 22.2384 30.8634 22.313 30.926C22.3877 30.9886 22.4652 31.0477 22.5455 31.1024C22.6258 31.1574 22.7085 31.2082 22.7938 31.2546C22.879 31.301 22.966 31.3435 23.0555 31.3813C23.1446 31.4191 23.2354 31.4522 23.328 31.481C23.4203 31.5094 23.514 31.5335 23.6087 31.5526C23.7035 31.572 23.7989 31.5864 23.8951 31.5961C23.9912 31.6059 24.0877 31.6109 24.1846 31.6109C24.2811 31.6109 24.3776 31.6059 24.4737 31.5961C24.5699 31.5864 24.6653 31.572 24.76 31.5526C24.8548 31.5335 24.9485 31.5094 25.0407 31.481C25.1334 31.4522 25.2242 31.4191 25.3133 31.3813C25.4028 31.3435 25.4898 31.301 25.575 31.2546C25.6602 31.2082 25.743 31.1574 25.8233 31.1024C25.9036 31.0477 25.9811 30.9886 26.0561 30.926C26.1307 30.8634 26.2022 30.7972 26.2702 30.7274C26.3385 30.6575 26.4033 30.5845 26.4646 30.5082C26.5259 30.4315 26.5833 30.3523 26.6372 30.2703C26.6907 30.1882 26.7404 30.1036 26.7858 30.0166C26.8312 29.9295 26.8724 29.8402 26.9094 29.7488C26.9464 29.6577 26.9788 29.5649 27.007 29.4702C27.0348 29.3759 27.0584 29.2802 27.0771 29.1834C27.0957 29.0866 27.1098 28.9887 27.1193 28.8904C27.1288 28.7922 27.1334 28.6939 27.1334 28.595V27.62C27.1334 27.5329 27.125 27.4465 27.1081 27.3609C27.0915 27.2752 27.0669 27.1921 27.0341 27.1114C27.0013 27.0308 26.9612 26.9542 26.9137 26.8818C26.8661 26.8091 26.8122 26.7422 26.752 26.6803C26.6914 26.6187 26.6259 26.5637 26.5548 26.5151C26.484 26.4665 26.409 26.4255 26.3301 26.392C26.2512 26.3585 26.1698 26.3333 26.086 26.3164C26.0022 26.2992 25.9177 26.2905 25.8324 26.2905Z" fill="#F54A79"/>
<path d="M38.9295 13.734H37.3391V12.1091C37.3391 12.0508 37.3338 11.9932 37.3225 11.936C37.3116 11.8791 37.295 11.8237 37.2732 11.7697C37.2514 11.7161 37.2246 11.665 37.1929 11.6167C37.1615 11.5682 37.1253 11.5235 37.0851 11.4821C37.045 11.4411 37.001 11.4044 36.9538 11.372C36.9062 11.3396 36.8566 11.3123 36.8037 11.2903C36.7513 11.268 36.697 11.2511 36.641 11.2396C36.5854 11.2284 36.5287 11.2227 36.472 11.2227H35.6045C35.5475 11.2227 35.4911 11.2284 35.4351 11.2396C35.3795 11.2511 35.3252 11.268 35.2724 11.2903C35.2199 11.3123 35.1699 11.3396 35.1227 11.372C35.0752 11.4044 35.0315 11.4411 34.9914 11.4821C34.9509 11.5235 34.915 11.5682 34.8833 11.6167C34.8516 11.665 34.8251 11.7161 34.8033 11.7697C34.7815 11.8237 34.7649 11.8791 34.754 11.936C34.7427 11.9932 34.7371 12.0508 34.7371 12.1091V13.734H33.147C33.0899 13.734 33.0336 13.7398 32.9779 13.7509C32.9219 13.7625 32.8677 13.7794 32.8152 13.8013C32.7624 13.8236 32.7124 13.851 32.6652 13.8834C32.6176 13.9158 32.574 13.9525 32.5338 13.9935C32.4933 14.0349 32.4574 14.0795 32.4257 14.1278C32.3944 14.1763 32.3676 14.2275 32.3458 14.2811C32.3239 14.3351 32.3074 14.3905 32.2964 14.4473C32.2852 14.5046 32.2795 14.5622 32.2795 14.6205V15.5065C32.2795 15.5648 32.2852 15.6224 32.2964 15.6796C32.3074 15.7369 32.3239 15.7923 32.3458 15.8459C32.3676 15.8995 32.3944 15.9506 32.4257 15.9992C32.4574 16.0475 32.4933 16.0924 32.5338 16.1335C32.574 16.1745 32.6176 16.2112 32.6652 16.2436C32.7124 16.276 32.7624 16.3033 32.8152 16.3257C32.8677 16.348 32.9219 16.3645 32.9779 16.376C33.0336 16.3872 33.0899 16.393 33.147 16.393H34.7371V18.0179C34.7371 18.0762 34.7427 18.1338 34.7537 18.191C34.7649 18.2479 34.7815 18.3033 34.8033 18.3573C34.8251 18.4109 34.8516 18.462 34.8833 18.5106C34.915 18.5588 34.9509 18.6035 34.9914 18.6449C35.0315 18.6859 35.0752 18.7226 35.1227 18.755C35.1699 18.7874 35.2199 18.8147 35.2724 18.837C35.3252 18.859 35.3795 18.8759 35.4351 18.8874C35.4911 18.8986 35.5475 18.9043 35.6045 18.9043H36.472C36.5287 18.9043 36.5854 18.8986 36.641 18.8874C36.697 18.8759 36.7513 18.859 36.8037 18.837C36.8566 18.8147 36.9062 18.7874 36.9538 18.755C37.001 18.7226 37.045 18.6859 37.0851 18.6449C37.1253 18.6035 37.1615 18.5588 37.1929 18.5106C37.2246 18.462 37.2514 18.4109 37.2732 18.3573C37.295 18.3033 37.3116 18.2479 37.3225 18.191C37.3338 18.1338 37.3391 18.0762 37.3391 18.0179V16.393H38.9295C38.9862 16.393 39.0426 16.3872 39.0986 16.376C39.1546 16.3645 39.2088 16.348 39.2613 16.3257C39.3138 16.3033 39.3638 16.276 39.4113 16.2436C39.4585 16.2112 39.5025 16.1745 39.5427 16.1335C39.5828 16.0924 39.6188 16.0475 39.6505 15.9992C39.6821 15.9506 39.7089 15.8995 39.7307 15.8459C39.7526 15.7923 39.7688 15.7369 39.7801 15.6796C39.7913 15.6224 39.7966 15.5648 39.7966 15.5065V14.6205C39.7966 14.5622 39.7913 14.5046 39.7801 14.4473C39.7688 14.3905 39.7526 14.3351 39.7307 14.2811C39.7089 14.2275 39.6821 14.1763 39.6505 14.1278C39.6188 14.0795 39.5828 14.0349 39.5427 13.9935C39.5025 13.9525 39.4585 13.9158 39.4113 13.8834C39.3638 13.851 39.3138 13.8236 39.2613 13.8013C39.2088 13.7794 39.1546 13.7625 39.0986 13.7509C39.0426 13.7398 38.9862 13.734 38.9295 13.734Z" fill="#2196F3"/>
<path d="M41.4519 21.726C41.4343 21.6687 41.4114 21.614 41.3829 21.5615C41.3544 21.5089 41.3209 21.46 41.2829 21.4143C41.2445 21.3689 41.2022 21.3279 41.1561 21.2908C41.1096 21.2541 41.0603 21.2225 41.0075 21.1962C40.955 21.1696 40.9001 21.1487 40.8434 21.1336C40.7867 21.1185 40.7289 21.1091 40.6704 21.1059C40.6116 21.1026 40.5535 21.1055 40.4954 21.1145C40.4373 21.1235 40.3806 21.1382 40.3256 21.1588L38.9416 21.6734C38.8901 21.6929 38.8405 21.7166 38.7936 21.7454C38.7464 21.7742 38.7024 21.8073 38.6616 21.8447C38.6204 21.8822 38.5834 21.9232 38.5499 21.9678C38.5168 22.0124 38.4879 22.0599 38.4633 22.11C38.439 22.1604 38.4193 22.2125 38.4045 22.2665C38.3897 22.3205 38.3802 22.3756 38.3756 22.4314C38.371 22.4875 38.3717 22.5433 38.3777 22.5991C38.3837 22.6549 38.3946 22.7096 38.4105 22.7632C38.8482 24.2406 39.0609 25.7511 39.0483 27.2943C38.9873 35.441 32.5244 42.1639 24.5544 42.3615C15.9624 42.5749 8.97366 35.3388 9.33394 26.5259C9.66746 18.362 16.3984 11.8766 24.3941 11.9889C25.9085 12.0087 27.3853 12.2603 28.8239 12.7432C28.8768 12.7612 28.9303 12.7738 28.9856 12.7814C29.0405 12.7886 29.0958 12.7908 29.1511 12.7872C29.2064 12.7836 29.261 12.7746 29.3149 12.7605C29.3684 12.7461 29.4205 12.7271 29.4706 12.7026C29.5206 12.6781 29.5678 12.649 29.6125 12.6151C29.6572 12.5817 29.6981 12.5439 29.7358 12.5021C29.7731 12.4604 29.8065 12.415 29.8354 12.3668C29.8643 12.3186 29.8886 12.2678 29.9083 12.2146L30.4232 10.8063C30.4436 10.7505 30.4584 10.6933 30.4676 10.6346C30.4768 10.5756 30.4803 10.5166 30.4778 10.4572C30.4753 10.3974 30.4669 10.3391 30.4532 10.2812C30.4391 10.2232 30.4193 10.1674 30.3943 10.1138C30.3693 10.0602 30.3394 10.0095 30.3045 9.96159C30.2697 9.91408 30.2302 9.87053 30.1865 9.83094C30.1432 9.79136 30.096 9.7568 30.0457 9.72693C29.9953 9.69706 29.9425 9.67259 29.8872 9.65351C28.807 9.28606 27.7022 9.02549 26.5738 8.87181C25.4451 8.71814 24.3124 8.67423 23.1756 8.73937C14.1385 9.24323 6.7827 16.6449 6.15898 25.8716C5.40284 37.0501 14.4438 46.3215 25.3722 45.6035C34.3318 45.0147 41.5868 37.6472 42.2095 28.4946C42.2894 27.3523 42.2658 26.2121 42.1383 25.0741C42.0112 23.9365 41.7823 22.8204 41.4519 21.726Z" fill="#2196F3"/>
</svg>
