           <svg
                  width   = "50"
                  height  = "50"
                  viewBox = "0 0 55 50"
                  fill    = "none"
                  xmlns   = "http://www.w3.org/2000/svg"
                >
                  <path
                    d    = "M8.4035 11.1986L11.8223 7.14756C11.962 6.98198 12.1136 6.83465 12.277 6.70555C12.4405 6.57646 12.6134 6.46701 12.7957 6.3772C12.9769 6.2874 13.164 6.22004 13.357 6.17514C13.5501 6.13024 13.7455 6.10638 13.942 6.10638C14.1386 6.10638 14.334 6.13024 14.527 6.17514C14.7201 6.22004 14.9072 6.2874 15.0895 6.3772C15.2707 6.46701 15.4436 6.57646 15.607 6.70555C15.7705 6.83465 15.922 6.98198 16.0618 7.14756L36.1247 30.9206C36.2632 31.0848 36.3876 31.2644 36.4977 31.458C36.6066 31.6531 36.699 31.8565 36.7748 32.0726C36.8494 32.2887 36.9062 32.5104 36.9453 32.7391C36.9832 32.9679 37.0022 33.198 37.0022 33.4323C37.0022 33.6652 36.9832 33.8954 36.9453 34.1241C36.9062 34.3528 36.8494 34.5759 36.7748 34.7906C36.699 35.0067 36.6066 35.2102 36.4977 35.4052C36.3876 35.5989 36.2632 35.7785 36.1247 35.9426L32.7058 39.9937C32.5661 40.1593 32.4157 40.3066 32.2511 40.4357C32.0877 40.5648 31.9148 40.6742 31.7336 40.764C31.5512 40.8524 31.3641 40.9198 31.1711 40.9661C30.9781 41.011 30.7827 41.0334 30.5861 41.0334C30.3895 41.0334 30.1953 41.011 30.0023 40.9661C29.8093 40.9198 29.621 40.8524 29.4398 40.764C29.2574 40.6742 29.0845 40.5648 28.9211 40.4357C28.7577 40.3066 28.6061 40.1593 28.4676 39.9937L8.4035 16.2207C8.26495 16.0551 8.14061 15.8755 8.03166 15.6818C7.92153 15.4882 7.82916 15.2833 7.75455 15.0686C7.67876 14.8525 7.62192 14.6308 7.58403 14.4021C7.54495 14.1734 7.526 13.9419 7.526 13.7089C7.526 13.476 7.54495 13.2445 7.58403 13.0171C7.62192 12.7884 7.67876 12.5653 7.75455 12.3506C7.82916 12.1345 7.92153 11.9297 8.03166 11.736C8.14061 11.5424 8.26495 11.3628 8.4035 11.1986Z"
                    fill = "#43B3FF"
                  />
                  <path
                    d    = "M32.7911 7.24718L36.0406 11.0976C36.1851 11.2688 36.3141 11.4554 36.4278 11.6574C36.5415 11.8595 36.6374 12.0714 36.7156 12.2959C36.7937 12.5204 36.853 12.7505 36.8932 12.9891C36.9335 13.2262 36.9536 13.4662 36.9536 13.7089C36.9536 13.9517 36.9335 14.1916 36.8932 14.4302C36.853 14.6673 36.7937 14.8988 36.7156 15.1219C36.6374 15.3465 36.5415 15.5597 36.4278 15.7604C36.3141 15.9625 36.1851 16.1491 36.0406 16.3203L16.1471 39.8926C16.0014 40.0652 15.8439 40.2182 15.6746 40.3529C15.504 40.4876 15.324 40.6013 15.1357 40.6939C14.9463 40.7865 14.7509 40.8566 14.5507 40.9043C14.3494 40.9521 14.1469 40.9745 13.9421 40.9745C13.7384 40.9745 13.5347 40.9521 13.3346 40.9043C13.1332 40.8566 12.939 40.7865 12.7496 40.6939C12.5613 40.6013 12.3813 40.4876 12.2107 40.3529C12.0402 40.2182 11.8827 40.0652 11.7382 39.8926L8.48877 36.0437C8.3443 35.8711 8.21522 35.6844 8.10153 35.4838C7.98785 35.2817 7.89193 35.0684 7.81377 34.8453C7.73561 34.6208 7.6764 34.3893 7.63614 34.1521C7.59588 33.9136 7.57574 33.6737 7.57574 33.4309C7.57574 33.1896 7.59588 32.9482 7.63614 32.7111C7.6764 32.4725 7.73561 32.2424 7.81377 32.0179C7.89193 31.7948 7.98785 31.5815 8.10153 31.3794C8.21522 31.1774 8.3443 30.9907 8.48877 30.8195L28.3835 7.24718C28.528 7.07599 28.6855 6.92304 28.8548 6.78833C29.0253 6.65363 29.2053 6.53997 29.3936 6.44736C29.5831 6.35334 29.7785 6.28318 29.9786 6.23688C30.1799 6.18917 30.3824 6.16531 30.5873 6.16531C30.7922 6.16531 30.9947 6.18917 31.1948 6.23688C31.3961 6.28318 31.5903 6.35334 31.7798 6.44736C31.9693 6.53997 32.1481 6.65363 32.3186 6.78833C32.4891 6.92304 32.6466 7.07599 32.7911 7.24718Z"
                    fill = "#FF4D8C"
                  />
                  <path
                    d    = "M26.2815 16.6486L28.1063 18.811C28.2508 18.9821 28.3799 19.1688 28.4936 19.3708C28.6072 19.5715 28.7043 19.7848 28.7825 20.0093C28.8607 20.2324 28.9199 20.4639 28.959 20.7025C28.9992 20.9396 29.0193 21.1796 29.0193 21.4223C29.0193 21.6651 28.9992 21.905 28.959 22.1436C28.9199 22.3807 28.8607 22.6122 28.7825 22.8353C28.7043 23.0598 28.6072 23.2731 28.4936 23.4738C28.3799 23.6759 28.2508 23.8625 28.1063 24.0337L22.6554 30.4926C22.5109 30.6652 22.3534 30.8181 22.1829 30.9529C22.0124 31.0876 21.8336 31.2012 21.6441 31.2938C21.4546 31.3864 21.2604 31.4566 21.0591 31.5043C20.859 31.5506 20.6565 31.5745 20.4516 31.5745C20.2467 31.5745 20.0442 31.5506 19.8429 31.5043C19.6428 31.4566 19.4474 31.3864 19.2591 31.2938C19.0696 31.2012 18.8896 31.0876 18.7203 30.9529C18.5498 30.8181 18.3923 30.6652 18.2478 30.4926L16.4229 28.3303C16.2773 28.1591 16.1482 27.9725 16.0345 27.7718C15.9208 27.5697 15.8249 27.3564 15.7467 27.1333C15.6686 26.9088 15.6094 26.6773 15.5691 26.4402C15.53 26.2016 15.5099 25.9617 15.5099 25.7189C15.5099 25.4762 15.53 25.2362 15.5691 24.9991C15.6094 24.7605 15.6686 24.5304 15.7467 24.3059C15.8249 24.0814 15.9208 23.8695 16.0345 23.6674C16.1482 23.4654 16.2773 23.2787 16.4229 23.1076L21.8738 16.6486C22.0183 16.4774 22.1758 16.3245 22.3463 16.1898C22.5157 16.0551 22.6957 15.9414 22.8851 15.8474C23.0734 15.7548 23.2688 15.6846 23.4701 15.6383C23.6703 15.5906 23.8728 15.5668 24.0776 15.5668C24.2825 15.5668 24.485 15.5906 24.6863 15.6383C24.8865 15.6846 25.0819 15.7548 25.2701 15.8474C25.4596 15.9414 25.6396 16.0551 25.809 16.1898C25.9795 16.3245 26.137 16.4774 26.2815 16.6486Z"
                    fill = "white"
                  />
                  <path
                    d="M31.2966 8.44132C31.2966 8.51007 31.2765 8.5676 31.2362 8.61531C31.1948 8.66302 31.1462 8.68688 31.0894 8.68688C31.0325 8.68688 30.984 8.66302 30.9425 8.61531C30.9023 8.5676 30.8821 8.51007 30.8821 8.44132C30.8821 8.37396 30.9023 8.31643 30.9425 8.26872C30.984 8.22101 31.0325 8.19716 31.0894 8.19716C31.1462 8.19716 31.1948 8.22101 31.2362 8.26872C31.2765 8.31643 31.2966 8.37396 31.2966 8.44132Z"
                    fill="#1C2629"
                  />
                  <path
                    d="M33.2861 10.7566C33.2861 10.8239 33.266 10.8815 33.2257 10.9292C33.1855 10.9783 33.1357 11.0022 33.0789 11.0022C33.022 11.0022 32.9735 10.9783 32.932 10.9292C32.8918 10.8815 32.8716 10.8239 32.8716 10.7566C32.8716 10.6892 32.8918 10.6303 32.932 10.5826C32.9735 10.5349 33.022 10.511 33.0789 10.511C33.1357 10.511 33.1855 10.5349 33.2257 10.5826C33.266 10.6303 33.2861 10.6892 33.2861 10.7566Z"
                    fill="#1C2629"
                  />
                  <path
                    d="M35.2756 13.0719C35.2756 13.1392 35.2554 13.1968 35.2152 13.2445C35.1749 13.2922 35.1252 13.3174 35.0683 13.3174C35.0115 13.3174 34.9629 13.2922 34.9215 13.2445C34.8812 13.1968 34.8611 13.1392 34.8611 13.0719C34.8611 13.0031 34.8812 12.9456 34.9215 12.8979C34.9629 12.8502 35.0115 12.8263 35.0683 12.8263C35.1252 12.8263 35.1749 12.8502 35.2152 12.8979C35.2554 12.9456 35.2756 13.0031 35.2756 13.0719Z"
                    fill="#1C2629"
                  />
                  <path
                    d="M26.6119 13.9924C26.6119 14.0597 26.5918 14.1173 26.5515 14.165C26.5112 14.2127 26.4627 14.2365 26.4047 14.2365C26.3478 14.2365 26.2993 14.2127 26.259 14.165C26.2187 14.1173 26.1986 14.0597 26.1986 13.9924C26.1986 13.9236 26.2187 13.8661 26.259 13.8184C26.2993 13.7707 26.3478 13.7468 26.4047 13.7468C26.4627 13.7468 26.5112 13.7707 26.5515 13.8184C26.5918 13.8661 26.6119 13.9236 26.6119 13.9924Z"
                    fill="#1C2629"
                  />
                  <path
                    d="M28.6013 16.3076C28.6013 16.375 28.5812 16.4325 28.5409 16.4802C28.5007 16.528 28.4521 16.5518 28.3941 16.5518C28.3373 16.5518 28.2887 16.528 28.2484 16.4802C28.2082 16.4325 28.188 16.375 28.188 16.3076C28.188 16.2389 28.2082 16.1814 28.2484 16.1337C28.2887 16.0859 28.3373 16.0621 28.3941 16.0621C28.4521 16.0621 28.5007 16.0859 28.5409 16.1337C28.5812 16.1814 28.6013 16.2389 28.6013 16.3076Z"
                    fill="#1C2629"
                  />
                  <path
                    d="M30.5908 18.6215C30.5908 18.6889 30.5707 18.7464 30.5304 18.7955C30.4902 18.8432 30.4416 18.8671 30.3836 18.8671C30.3268 18.8671 30.2782 18.8432 30.2379 18.7955C30.1977 18.7464 30.1776 18.6889 30.1776 18.6215C30.1776 18.5542 30.1977 18.4952 30.2379 18.4475C30.2782 18.3998 30.3268 18.376 30.3836 18.376C30.4416 18.376 30.4902 18.3998 30.5304 18.4475C30.5707 18.4952 30.5908 18.5542 30.5908 18.6215Z"
                    fill="#1C2629"
                  />
                  <path
                    d="M31.1154 10.9923C31.1154 11.0597 31.0953 11.1172 31.055 11.1649C31.0148 11.2126 30.9662 11.2365 30.9082 11.2365C30.8514 11.2365 30.8028 11.2126 30.7625 11.1649C30.7223 11.1172 30.7021 11.0597 30.7021 10.9923C30.7021 10.9236 30.7223 10.866 30.7625 10.8183C30.8028 10.7706 30.8514 10.7468 30.9082 10.7468C30.9662 10.7468 31.0148 10.7706 31.055 10.8183C31.0953 10.866 31.1154 10.9236 31.1154 10.9923Z"
                    fill="#1C2629"
                  />
                  <path
                    d="M33.1049 13.3062C33.1049 13.3736 33.0848 13.4311 33.0445 13.4802C33.0043 13.5279 32.9557 13.5518 32.8977 13.5518C32.8409 13.5518 32.7923 13.5279 32.752 13.4802C32.7118 13.4311 32.6917 13.3736 32.6917 13.3062C32.6917 13.2388 32.7118 13.1813 32.752 13.1322C32.7923 13.0845 32.8409 13.0606 32.8977 13.0606C32.9557 13.0606 33.0043 13.0845 33.0445 13.1322C33.0848 13.1813 33.1049 13.2388 33.1049 13.3062Z"
                    fill="#1C2629"
                  />
                  <path
                    d="M28.946 11.2267C28.946 11.294 28.9258 11.3529 28.8856 11.4007C28.8453 11.4484 28.7956 11.4722 28.7387 11.4722C28.6819 11.4722 28.6333 11.4484 28.5931 11.4007C28.5516 11.3529 28.5315 11.294 28.5315 11.2267C28.5315 11.1593 28.5516 11.1018 28.5931 11.0541C28.6333 11.0049 28.6819 10.9811 28.7387 10.9811C28.7956 10.9811 28.8453 11.0049 28.8856 11.0541C28.9258 11.1018 28.946 11.1593 28.946 11.2267Z"
                    fill="#1C2629"
                  />
                  <path
                    d="M30.9355 13.5419C30.9355 13.6093 30.9153 13.6668 30.8751 13.7145C30.8348 13.7622 30.7863 13.7875 30.7282 13.7875C30.6714 13.7875 30.6228 13.7622 30.5826 13.7145C30.5411 13.6668 30.521 13.6093 30.521 13.5419C30.521 13.4732 30.5411 13.4157 30.5826 13.3679C30.6228 13.3202 30.6714 13.2964 30.7282 13.2964C30.7863 13.2964 30.8348 13.3202 30.8751 13.3679C30.9153 13.4157 30.9355 13.4732 30.9355 13.5419Z"
                    fill="#1C2629"
                  />
                  <path
                    d="M32.9249 15.8572C32.9249 15.9246 32.9048 15.9821 32.8645 16.0298C32.8243 16.0775 32.7757 16.1014 32.7177 16.1014C32.6608 16.1014 32.6123 16.0775 32.572 16.0298C32.5318 15.9821 32.5104 15.9246 32.5104 15.8572C32.5104 15.7885 32.5318 15.7309 32.572 15.6832C32.6123 15.6355 32.6608 15.6117 32.7177 15.6117C32.7757 15.6117 32.8243 15.6355 32.8645 15.6832C32.9048 15.7309 32.9249 15.7885 32.9249 15.8572Z"
                    fill="#1C2629"
                  />
                  <path
                    d="M28.7648 13.7763C28.7648 13.845 28.7447 13.9026 28.7044 13.9503C28.6641 13.998 28.6156 14.0218 28.5587 14.0218C28.5007 14.0218 28.4522 13.998 28.4119 13.9503C28.3716 13.9026 28.3515 13.845 28.3515 13.7763C28.3515 13.7089 28.3716 13.6514 28.4119 13.6037C28.4522 13.556 28.5007 13.5307 28.5587 13.5307C28.6156 13.5307 28.6641 13.556 28.7044 13.6037C28.7447 13.6514 28.7648 13.7089 28.7648 13.7763Z"
                    fill="#1C2629"
                  />
                  <path
                    d="M30.7554 16.0916C30.7554 16.1589 30.7341 16.2178 30.6938 16.2656C30.6536 16.3133 30.605 16.3371 30.5482 16.3371C30.4902 16.3371 30.4416 16.3133 30.4013 16.2656C30.3611 16.2178 30.3409 16.1589 30.3409 16.0916C30.3409 16.0242 30.3611 15.9667 30.4013 15.919C30.4416 15.8698 30.4902 15.846 30.5482 15.846C30.605 15.846 30.6536 15.8698 30.6938 15.919C30.7341 15.9667 30.7554 16.0242 30.7554 16.0916Z"
                    fill="#1C2629"
                  />
                  <path
                    d="M14.3411 28.5309C14.3411 28.5997 14.321 28.6572 14.2807 28.7049C14.2404 28.7526 14.1919 28.7765 14.135 28.7765C14.077 28.7765 14.0285 28.7526 13.9882 28.7049C13.9479 28.6572 13.9278 28.5997 13.9278 28.5309C13.9278 28.4636 13.9479 28.406 13.9882 28.3583C14.0285 28.3106 14.077 28.2868 14.135 28.2868C14.1919 28.2868 14.2404 28.3106 14.2807 28.3583C14.321 28.406 14.3411 28.4636 14.3411 28.5309Z"
                    fill="#1C2629"
                  />
                  <path
                    d="M16.3318 30.8462C16.3318 30.9136 16.3105 30.9725 16.2702 31.0202C16.2299 31.0679 16.1814 31.0918 16.1245 31.0918C16.0665 31.0918 16.018 31.0679 15.9777 31.0202C15.9374 30.9725 15.9173 30.9136 15.9173 30.8462C15.9173 30.7789 15.9374 30.7213 15.9777 30.6736C16.018 30.6245 16.0665 30.6007 16.1245 30.6007C16.1814 30.6007 16.2299 30.6245 16.2702 30.6736C16.3105 30.7213 16.3318 30.7789 16.3318 30.8462Z"
                    fill="#1C2629"
                  />
                  <path
                    d="M18.3212 33.1615C18.3212 33.2288 18.3011 33.2864 18.2596 33.3341C18.2194 33.3818 18.1708 33.407 18.114 33.407C18.0559 33.407 18.0074 33.3818 17.9671 33.3341C17.9269 33.2864 17.9067 33.2288 17.9067 33.1615C17.9067 33.0927 17.9269 33.0352 17.9671 32.9875C18.0074 32.9398 18.0559 32.9159 18.114 32.9159C18.1708 32.9159 18.2194 32.9398 18.2596 32.9875C18.3011 33.0352 18.3212 33.0927 18.3212 33.1615Z"
                    fill="#1C2629"
                  />
                  <path
                    d="M9.65758 34.082C9.65758 34.1493 9.63744 34.2069 9.59718 34.256C9.55573 34.3037 9.50718 34.3275 9.45034 34.3275C9.3935 34.3275 9.34495 34.3037 9.3035 34.256C9.26323 34.2069 9.2431 34.1493 9.2431 34.082C9.2431 34.0146 9.26323 33.9571 9.3035 33.908C9.34495 33.8603 9.3935 33.8364 9.45034 33.8364C9.50718 33.8364 9.55573 33.8603 9.59718 33.908C9.63744 33.9571 9.65758 34.0146 9.65758 34.082Z"
                    fill="#1C2629"
                  />
                  <path
                    d="M11.647 36.3973C11.647 36.4646 11.6269 36.5222 11.5866 36.5699C11.5464 36.619 11.4966 36.6428 11.4398 36.6428C11.3829 36.6428 11.3344 36.619 11.2929 36.5699C11.2527 36.5222 11.2325 36.4646 11.2325 36.3973C11.2325 36.3299 11.2527 36.271 11.2929 36.2233C11.3344 36.1756 11.3829 36.1517 11.4398 36.1517C11.4966 36.1517 11.5464 36.1756 11.5866 36.2233C11.6269 36.271 11.647 36.3299 11.647 36.3973Z"
                    fill="#1C2629"
                  />
                  <path
                    d="M13.6365 38.7112C13.6365 38.7799 13.6164 38.8374 13.5761 38.8851C13.5359 38.9329 13.4861 38.9567 13.4293 38.9567C13.3724 38.9567 13.3239 38.9329 13.2824 38.8851C13.2422 38.8374 13.222 38.7799 13.222 38.7112C13.222 38.6438 13.2422 38.5863 13.2824 38.5386C13.3239 38.4908 13.3724 38.4656 13.4293 38.4656C13.4861 38.4656 13.5359 38.4908 13.5761 38.5386C13.6164 38.5863 13.6365 38.6438 13.6365 38.7112Z"
                    fill="#1C2629"
                  />
                  <path
                    d="M14.1611 31.082C14.1611 31.1493 14.141 31.2068 14.1007 31.2545C14.0605 31.3037 14.0107 31.3275 13.9539 31.3275C13.897 31.3275 13.8485 31.3037 13.807 31.256C13.7668 31.2068 13.7466 31.1493 13.7466 31.082C13.7466 31.0146 13.7668 30.9557 13.807 30.908C13.8485 30.8602 13.897 30.8364 13.9539 30.8364C14.0107 30.8364 14.0605 30.8602 14.1007 30.908C14.141 30.9557 14.1611 31.0146 14.1611 31.082Z"
                    fill="#1C2629"
                  />
                  <path
                    d="M16.1506 33.3958C16.1506 33.4646 16.1305 33.5221 16.0902 33.5698C16.0499 33.6175 16.0014 33.6414 15.9445 33.6414C15.8865 33.6414 15.838 33.6175 15.7977 33.5698C15.7574 33.5221 15.7373 33.4646 15.7373 33.3958C15.7373 33.3285 15.7574 33.2709 15.7977 33.2232C15.838 33.1755 15.8865 33.1517 15.9445 33.1517C16.0014 33.1517 16.0499 33.1755 16.0902 33.2232C16.1305 33.2709 16.1506 33.3285 16.1506 33.3958Z"
                    fill="#1C2629"
                  />
                  <path
                    d="M11.9916 31.3163C11.9916 31.3836 11.9715 31.4426 11.93 31.4903C11.8898 31.538 11.8412 31.5618 11.7844 31.5618C11.7275 31.5618 11.6778 31.538 11.6375 31.4903C11.5973 31.4426 11.5771 31.3836 11.5771 31.3163C11.5771 31.2489 11.5973 31.1914 11.6375 31.1437C11.6778 31.0946 11.7275 31.0707 11.7844 31.0707C11.8412 31.0707 11.8898 31.0946 11.93 31.1437C11.9715 31.1914 11.9916 31.2489 11.9916 31.3163Z"
                    fill="#1C2629"
                  />
                  <path
                    d="M13.9811 33.6316C13.9811 33.6989 13.961 33.7578 13.9207 33.8056C13.8793 33.8533 13.8307 33.8771 13.7739 33.8771C13.717 33.8771 13.6673 33.8533 13.627 33.8056C13.5868 33.7578 13.5667 33.6989 13.5667 33.6316C13.5667 33.5642 13.5868 33.5067 13.627 33.4576C13.6673 33.4099 13.717 33.386 13.7739 33.386C13.8307 33.386 13.8793 33.4099 13.9207 33.4576C13.961 33.5067 13.9811 33.5642 13.9811 33.6316Z"
                    fill="#1C2629"
                  />
                  <path
                    d="M15.9706 35.9468C15.9706 36.0142 15.9504 36.0717 15.9102 36.1194C15.8687 36.1685 15.8202 36.1924 15.7633 36.1924C15.7065 36.1924 15.6567 36.1685 15.6165 36.1194C15.5762 36.0717 15.5561 36.0142 15.5561 35.9468C15.5561 35.8795 15.5762 35.8206 15.6165 35.7728C15.6567 35.7251 15.7065 35.7013 15.7633 35.7013C15.8202 35.7013 15.8687 35.7251 15.9102 35.7728C15.9504 35.8206 15.9706 35.8795 15.9706 35.9468Z"
                    fill="#1C2629"
                  />
                  <path
                    d="M11.8105 33.8673C11.8105 33.9347 11.7903 33.9922 11.7501 34.0399C11.7098 34.0876 11.6613 34.1129 11.6032 34.1129C11.5464 34.1129 11.4978 34.0876 11.4576 34.0399C11.4173 33.9922 11.396 33.9347 11.396 33.8673C11.396 33.7985 11.4173 33.741 11.4576 33.6933C11.4978 33.6456 11.5464 33.6217 11.6032 33.6217C11.6613 33.6217 11.7098 33.6456 11.7501 33.6933C11.7903 33.741 11.8105 33.7985 11.8105 33.8673Z"
                    fill="#1C2629"
                  />
                  <path
                    d="M13.8011 36.1812C13.8011 36.2485 13.7798 36.3075 13.7396 36.3552C13.6993 36.4029 13.6507 36.4267 13.5939 36.4267C13.5359 36.4267 13.4873 36.4029 13.4471 36.3552C13.4068 36.3075 13.3867 36.2485 13.3867 36.1812C13.3867 36.1138 13.4068 36.0563 13.4471 36.0086C13.4873 35.9595 13.5359 35.9356 13.5939 35.9356C13.6507 35.9356 13.6993 35.9595 13.7396 36.0086C13.7798 36.0563 13.8011 36.1138 13.8011 36.1812Z"
                    fill="#1C2629"
                  />
                  <path
                    d="M31.2966 28.5309C31.2966 28.5997 31.2765 28.6572 31.2362 28.7049C31.1948 28.7526 31.1462 28.7765 31.0894 28.7765C31.0325 28.7765 30.984 28.7526 30.9425 28.7049C30.9023 28.6572 30.8821 28.5997 30.8821 28.5309C30.8821 28.4636 30.9023 28.406 30.9425 28.3583C30.984 28.3106 31.0325 28.2868 31.0894 28.2868C31.1462 28.2868 31.1948 28.3106 31.2362 28.3583C31.2765 28.406 31.2966 28.4636 31.2966 28.5309Z"
                    fill="#1C2629"
                  />
                  <path
                    d="M33.2861 30.8462C33.2861 30.9136 33.266 30.9725 33.2257 31.0202C33.1855 31.0679 33.1357 31.0918 33.0789 31.0918C33.022 31.0918 32.9735 31.0679 32.932 31.0202C32.8918 30.9725 32.8716 30.9136 32.8716 30.8462C32.8716 30.7789 32.8918 30.7213 32.932 30.6736C32.9735 30.6245 33.022 30.6007 33.0789 30.6007C33.1357 30.6007 33.1855 30.6245 33.2257 30.6736C33.266 30.7213 33.2861 30.7789 33.2861 30.8462Z"
                    fill="#1C2629"
                  />
                  <path
                    d="M35.2756 33.1615C35.2756 33.2288 35.2554 33.2864 35.2152 33.3341C35.1749 33.3818 35.1252 33.407 35.0683 33.407C35.0115 33.407 34.9629 33.3818 34.9215 33.3341C34.8812 33.2864 34.8611 33.2288 34.8611 33.1615C34.8611 33.0927 34.8812 33.0352 34.9215 32.9875C34.9629 32.9398 35.0115 32.9159 35.0683 32.9159C35.1252 32.9159 35.1749 32.9398 35.2152 32.9875C35.2554 33.0352 35.2756 33.0927 35.2756 33.1615Z"
                    fill="#1C2629"
                  />
                  <path
                    d="M26.6119 34.082C26.6119 34.1493 26.5918 34.2069 26.5515 34.256C26.5112 34.3037 26.4627 34.3275 26.4047 34.3275C26.3478 34.3275 26.2993 34.3037 26.259 34.256C26.2187 34.2069 26.1986 34.1493 26.1986 34.082C26.1986 34.0146 26.2187 33.9571 26.259 33.908C26.2993 33.8603 26.3478 33.8364 26.4047 33.8364C26.4627 33.8364 26.5112 33.8603 26.5515 33.908C26.5918 33.9571 26.6119 34.0146 26.6119 34.082Z"
                    fill="#1C2629"
                  />
                  <path
                    d="M28.6013 36.3973C28.6013 36.4646 28.5812 36.5222 28.5409 36.5699C28.5007 36.619 28.4521 36.6428 28.3941 36.6428C28.3373 36.6428 28.2887 36.619 28.2484 36.5699C28.2082 36.5222 28.188 36.4646 28.188 36.3973C28.188 36.3299 28.2082 36.271 28.2484 36.2233C28.2887 36.1756 28.3373 36.1517 28.3941 36.1517C28.4521 36.1517 28.5007 36.1756 28.5409 36.2233C28.5812 36.271 28.6013 36.3299 28.6013 36.3973Z"
                    fill="#1C2629"
                  />
                  <path
                    d="M30.5908 38.7112C30.5908 38.7799 30.5707 38.8374 30.5304 38.8851C30.4902 38.9329 30.4416 38.9567 30.3836 38.9567C30.3268 38.9567 30.2782 38.9329 30.2379 38.8851C30.1977 38.8374 30.1776 38.7799 30.1776 38.7112C30.1776 38.6438 30.1977 38.5863 30.2379 38.5386C30.2782 38.4908 30.3268 38.4656 30.3836 38.4656C30.4416 38.4656 30.4902 38.4908 30.5304 38.5386C30.5707 38.5863 30.5908 38.6438 30.5908 38.7112Z"
                    fill="#1C2629"
                  />
                  <path
                    d="M31.1154 31.082C31.1154 31.1493 31.0953 31.2068 31.055 31.2545C31.0148 31.3037 30.9662 31.3275 30.9082 31.3275C30.8514 31.3275 30.8028 31.3037 30.7625 31.256C30.7223 31.2068 30.7021 31.1493 30.7021 31.082C30.7021 31.0146 30.7223 30.9557 30.7625 30.908C30.8028 30.8602 30.8514 30.8364 30.9082 30.8364C30.9662 30.8364 31.0148 30.8602 31.055 30.908C31.0953 30.9557 31.1154 31.0146 31.1154 31.082Z"
                    fill="#1C2629"
                  />
                  <path
                    d="M33.1049 33.3958C33.1049 33.4646 33.0848 33.5221 33.0445 33.5698C33.0043 33.6175 32.9557 33.6414 32.8977 33.6414C32.8409 33.6414 32.7923 33.6175 32.752 33.5698C32.7118 33.5221 32.6917 33.4646 32.6917 33.3958C32.6917 33.3285 32.7118 33.2709 32.752 33.2232C32.7923 33.1755 32.8409 33.1517 32.8977 33.1517C32.9557 33.1517 33.0043 33.1755 33.0445 33.2232C33.0848 33.2709 33.1049 33.3285 33.1049 33.3958Z"
                    fill="#1C2629"
                  />
                  <path
                    d="M28.946 31.3163C28.946 31.3836 28.9258 31.4426 28.8856 31.4903C28.8453 31.538 28.7956 31.5618 28.7387 31.5618C28.6819 31.5618 28.6333 31.538 28.5931 31.4903C28.5516 31.4426 28.5315 31.3836 28.5315 31.3163C28.5315 31.2489 28.5516 31.1914 28.5931 31.1437C28.6333 31.0946 28.6819 31.0707 28.7387 31.0707C28.7956 31.0707 28.8453 31.0946 28.8856 31.1437C28.9258 31.1914 28.946 31.2489 28.946 31.3163Z"
                    fill="#1C2629"
                  />
                  <path
                    d="M30.9355 33.6316C30.9355 33.6989 30.9153 33.7578 30.8751 33.8056C30.8348 33.8533 30.7863 33.8771 30.7282 33.8771C30.6714 33.8771 30.6228 33.8533 30.5826 33.8056C30.5411 33.7578 30.521 33.6989 30.521 33.6316C30.521 33.5642 30.5411 33.5067 30.5826 33.4576C30.6228 33.4099 30.6714 33.386 30.7282 33.386C30.7863 33.386 30.8348 33.4099 30.8751 33.4576C30.9153 33.5067 30.9355 33.5642 30.9355 33.6316Z"
                    fill="#1C2629"
                  />
                  <path
                    d="M32.9249 35.9468C32.9249 36.0142 32.9048 36.0717 32.8645 36.1194C32.8243 36.1685 32.7757 36.1924 32.7177 36.1924C32.6608 36.1924 32.6123 36.1685 32.572 36.1194C32.5318 36.0717 32.5104 36.0142 32.5104 35.9468C32.5104 35.8795 32.5318 35.8206 32.572 35.7728C32.6123 35.7251 32.6608 35.7013 32.7177 35.7013C32.7757 35.7013 32.8243 35.7251 32.8645 35.7728C32.9048 35.8206 32.9249 35.8795 32.9249 35.9468Z"
                    fill="#1C2629"
                  />
                  <path
                    d="M28.7648 33.8673C28.7648 33.9347 28.7447 33.9922 28.7044 34.0399C28.6641 34.0876 28.6156 34.1129 28.5587 34.1129C28.5007 34.1129 28.4522 34.0876 28.4119 34.0399C28.3716 33.9922 28.3515 33.9347 28.3515 33.8673C28.3515 33.7985 28.3716 33.741 28.4119 33.6933C28.4522 33.6456 28.5007 33.6217 28.5587 33.6217C28.6156 33.6217 28.6641 33.6456 28.7044 33.6933C28.7447 33.741 28.7648 33.7985 28.7648 33.8673Z"
                    fill="#1C2629"
                  />
                  <path
                    d="M30.7554 36.1812C30.7554 36.2485 30.7341 36.3075 30.6938 36.3552C30.6536 36.4029 30.605 36.4267 30.5482 36.4267C30.4902 36.4267 30.4416 36.4029 30.4013 36.3552C30.3611 36.3075 30.3409 36.2485 30.3409 36.1812C30.3409 36.1138 30.3611 36.0563 30.4013 36.0086C30.4416 35.9595 30.4902 35.9356 30.5482 35.9356C30.605 35.9356 30.6536 35.9595 30.6938 36.0086C30.7341 36.0563 30.7554 36.1138 30.7554 36.1812Z"
                    fill="#1C2629"
                  />
                  <path
                    d="M14.3411 8.44132C14.3411 8.51007 14.321 8.5676 14.2807 8.61531C14.2404 8.66302 14.1919 8.68688 14.135 8.68688C14.077 8.68688 14.0285 8.66302 13.9882 8.61531C13.9479 8.5676 13.9278 8.51007 13.9278 8.44132C13.9278 8.37396 13.9479 8.31643 13.9882 8.26872C14.0285 8.22101 14.077 8.19716 14.135 8.19716C14.1919 8.19716 14.2404 8.22101 14.2807 8.26872C14.321 8.31643 14.3411 8.37396 14.3411 8.44132Z"
                    fill="#1C2629"
                  />
                  <path
                    d="M16.3318 10.7566C16.3318 10.8239 16.3105 10.8815 16.2702 10.9292C16.2299 10.9783 16.1814 11.0022 16.1245 11.0022C16.0665 11.0022 16.018 10.9783 15.9777 10.9292C15.9374 10.8815 15.9173 10.8239 15.9173 10.7566C15.9173 10.6892 15.9374 10.6303 15.9777 10.5826C16.018 10.5349 16.0665 10.511 16.1245 10.511C16.1814 10.511 16.2299 10.5349 16.2702 10.5826C16.3105 10.6303 16.3318 10.6892 16.3318 10.7566Z"
                    fill="#1C2629"
                  />
                  <path
                    d="M18.3212 13.0719C18.3212 13.1392 18.3011 13.1968 18.2596 13.2445C18.2194 13.2922 18.1708 13.3174 18.114 13.3174C18.0559 13.3174 18.0074 13.2922 17.9671 13.2445C17.9269 13.1968 17.9067 13.1392 17.9067 13.0719C17.9067 13.0031 17.9269 12.9456 17.9671 12.8979C18.0074 12.8502 18.0559 12.8263 18.114 12.8263C18.1708 12.8263 18.2194 12.8502 18.2596 12.8979C18.3011 12.9456 18.3212 13.0031 18.3212 13.0719Z"
                    fill="#1C2629"
                  />
                  <path
                    d="M9.65758 13.9924C9.65758 14.0597 9.63744 14.1173 9.59718 14.165C9.55573 14.2127 9.50718 14.2365 9.45034 14.2365C9.3935 14.2365 9.34495 14.2127 9.3035 14.165C9.26323 14.1173 9.2431 14.0597 9.2431 13.9924C9.2431 13.9236 9.26323 13.8661 9.3035 13.8184C9.34495 13.7707 9.3935 13.7468 9.45034 13.7468C9.50718 13.7468 9.55573 13.7707 9.59718 13.8184C9.63744 13.8661 9.65758 13.9236 9.65758 13.9924Z"
                    fill="#1C2629"
                  />
                  <path
                    d="M11.647 16.3076C11.647 16.375 11.6269 16.4325 11.5866 16.4802C11.5464 16.528 11.4966 16.5518 11.4398 16.5518C11.3829 16.5518 11.3344 16.528 11.2929 16.4802C11.2527 16.4325 11.2325 16.375 11.2325 16.3076C11.2325 16.2389 11.2527 16.1814 11.2929 16.1337C11.3344 16.0859 11.3829 16.0621 11.4398 16.0621C11.4966 16.0621 11.5464 16.0859 11.5866 16.1337C11.6269 16.1814 11.647 16.2389 11.647 16.3076Z"
                    fill="#1C2629"
                  />
                  <path
                    d="M13.6365 18.6215C13.6365 18.6889 13.6164 18.7464 13.5761 18.7955C13.5359 18.8432 13.4861 18.8671 13.4293 18.8671C13.3724 18.8671 13.3239 18.8432 13.2824 18.7955C13.2422 18.7464 13.222 18.6889 13.222 18.6215C13.222 18.5542 13.2422 18.4952 13.2824 18.4475C13.3239 18.3998 13.3724 18.376 13.4293 18.376C13.4861 18.376 13.5359 18.3998 13.5761 18.4475C13.6164 18.4952 13.6365 18.5542 13.6365 18.6215Z"
                    fill="#1C2629"
                  />
                  <path
                    d="M14.1611 10.9923C14.1611 11.0597 14.141 11.1172 14.1007 11.1649C14.0605 11.2126 14.0107 11.2365 13.9539 11.2365C13.897 11.2365 13.8485 11.2126 13.807 11.1649C13.7668 11.1172 13.7466 11.0597 13.7466 10.9923C13.7466 10.9236 13.7668 10.866 13.807 10.8183C13.8485 10.7706 13.897 10.7468 13.9539 10.7468C14.0107 10.7468 14.0605 10.7706 14.1007 10.8183C14.141 10.866 14.1611 10.9236 14.1611 10.9923Z"
                    fill="#1C2629"
                  />
                  <path
                    d="M16.1506 13.3062C16.1506 13.3736 16.1305 13.4311 16.0902 13.4802C16.0499 13.5279 16.0014 13.5518 15.9445 13.5518C15.8865 13.5518 15.838 13.5279 15.7977 13.4802C15.7574 13.4311 15.7373 13.3736 15.7373 13.3062C15.7373 13.2388 15.7574 13.1813 15.7977 13.1322C15.838 13.0845 15.8865 13.0606 15.9445 13.0606C16.0014 13.0606 16.0499 13.0845 16.0902 13.1322C16.1305 13.1813 16.1506 13.2388 16.1506 13.3062Z"
                    fill="#1C2629"
                  />
                  <path
                    d="M11.9916 11.2267C11.9916 11.294 11.9715 11.3529 11.93 11.4007C11.8898 11.4484 11.8412 11.4722 11.7844 11.4722C11.7275 11.4722 11.6778 11.4484 11.6375 11.4007C11.5973 11.3529 11.5771 11.294 11.5771 11.2267C11.5771 11.1593 11.5973 11.1018 11.6375 11.0541C11.6778 11.0049 11.7275 10.9811 11.7844 10.9811C11.8412 10.9811 11.8898 11.0049 11.93 11.0541C11.9715 11.1018 11.9916 11.1593 11.9916 11.2267Z"
                    fill="#1C2629"
                  />
                  <path
                    d="M13.9811 13.5419C13.9811 13.6093 13.961 13.6668 13.9207 13.7145C13.8793 13.7622 13.8307 13.7875 13.7739 13.7875C13.717 13.7875 13.6673 13.7622 13.627 13.7145C13.5868 13.6668 13.5667 13.6093 13.5667 13.5419C13.5667 13.4732 13.5868 13.4157 13.627 13.3679C13.6673 13.3202 13.717 13.2964 13.7739 13.2964C13.8307 13.2964 13.8793 13.3202 13.9207 13.3679C13.961 13.4157 13.9811 13.4732 13.9811 13.5419Z"
                    fill="#1C2629"
                  />
                  <path
                    d="M15.9706 15.8572C15.9706 15.9246 15.9504 15.9821 15.9102 16.0298C15.8687 16.0775 15.8202 16.1014 15.7633 16.1014C15.7065 16.1014 15.6567 16.0775 15.6165 16.0298C15.5762 15.9821 15.5561 15.9246 15.5561 15.8572C15.5561 15.7885 15.5762 15.7309 15.6165 15.6832C15.6567 15.6355 15.7065 15.6117 15.7633 15.6117C15.8202 15.6117 15.8687 15.6355 15.9102 15.6832C15.9504 15.7309 15.9706 15.7885 15.9706 15.8572Z"
                    fill="#1C2629"
                  />
                  <path
                    d="M11.8105 13.7763C11.8105 13.845 11.7903 13.9026 11.7501 13.9503C11.7098 13.998 11.6613 14.0218 11.6032 14.0218C11.5464 14.0218 11.4978 13.998 11.4576 13.9503C11.4173 13.9026 11.396 13.845 11.396 13.7763C11.396 13.7089 11.4173 13.6514 11.4576 13.6037C11.4978 13.556 11.5464 13.5307 11.6032 13.5307C11.6613 13.5307 11.7098 13.556 11.7501 13.6037C11.7903 13.6514 11.8105 13.7089 11.8105 13.7763Z"
                    fill="#1C2629"
                  />
                  <path
                    d="M13.8011 16.0916C13.8011 16.1589 13.7798 16.2178 13.7396 16.2656C13.6993 16.3133 13.6507 16.3371 13.5939 16.3371C13.5359 16.3371 13.4873 16.3133 13.4471 16.2656C13.4068 16.2178 13.3867 16.1589 13.3867 16.0916C13.3867 16.0242 13.4068 15.9667 13.4471 15.919C13.4873 15.8698 13.5359 15.846 13.5939 15.846C13.6507 15.846 13.6993 15.8698 13.7396 15.919C13.7798 15.9667 13.8011 16.0242 13.8011 16.0916Z"
                    fill="#1C2629"
                  />
                  <path
                    d="M24.3121 22.1758V25.9869H21.097C18.1933 25.9869 18.1933 22.1758 21.097 22.1758C21.097 18.7647 24.3121 18.7647 24.3121 22.1758Z"
                    fill="#43B3FF"
                  />
                </svg>