
<svg  width = "54" height                                             = "50" viewBox                    = "0 0 54 50" fill   = "none" xmlns = "http://www.w3.org/2000/svg">
<mask id    = "mask0_912_327" style                                   = "mask-type:luminance" maskUnits = "userSpaceOnUse" x = "20" y       = "8" width = "24" height = "27">
<path d     = "M20.3712 8.72947H43.7142V34.292H20.3712V8.72947Z" fill = "white"/>
</mask>
<g    mask = "url(#mask0_912_327)">
<path d    = "M41.6883 8.74851C41.7019 8.74851 41.7174 8.74851 41.733 8.74851C41.7447 8.74851 41.7583 8.74851 41.7719 8.74851C42.2755 8.74428 42.7712 8.94524 43.1445 9.35352C43.514 9.75544 43.6967 10.2928 43.6967 10.8364C43.6967 10.8512 43.6967 10.866 43.6967 10.883C43.6967 10.8978 43.6967 10.9147 43.6967 10.9295C43.6967 10.9464 43.6967 10.9655 43.6967 10.9824L43.7123 20.4213C43.7142 21.6504 42.8335 22.6594 41.7544 22.6615C40.6753 22.6636 39.7907 21.6588 39.7887 20.4277L39.7809 16.034L36.4912 19.6153C36.7595 20.0786 36.989 20.5673 37.1776 21.0813C37.5995 22.2131 37.8114 23.4104 37.8114 24.6373C37.8094 25.8643 37.5956 27.0616 37.1737 28.1933C36.7362 29.3674 36.0946 30.4208 35.2663 31.322C34.4381 32.2232 33.4718 32.9212 32.3946 33.3951C31.3544 33.8541 30.2559 34.0868 29.1321 34.0847C28.0064 34.0847 26.9079 33.8499 25.8696 33.3909C24.7925 32.9128 23.8262 32.2126 22.9999 31.3114C22.1736 30.4081 21.5339 29.3547 21.0984 28.1806C20.6765 27.0468 20.4645 25.8516 20.4645 24.6225C20.4665 23.3956 20.6804 22.2004 21.1023 21.0665C21.5397 19.8946 22.1813 18.8411 23.0096 17.9399C23.8379 17.0388 24.8042 16.3407 25.8813 15.8668C26.9215 15.4078 28.0181 15.1751 29.1438 15.1772C30.2695 15.1772 31.3681 15.412 32.4063 15.8711C32.8632 16.0742 33.2987 16.3153 33.7129 16.5967L36.9851 13.0343L32.9896 13.0407C31.86 13.0428 30.9345 12.0824 30.9325 10.9062C30.9306 9.73006 31.8541 8.76755 32.9818 8.76543L41.6416 8.74851C41.6572 8.74851 41.6727 8.74851 41.6883 8.74851ZM25.4749 20.6329C23.4529 22.8329 23.451 26.4185 25.4691 28.6227C27.4892 30.827 30.777 30.8312 32.801 28.6291C34.823 26.4269 34.825 22.8435 32.8049 20.6392C30.7867 18.4328 27.4989 18.4307 25.4749 20.6329Z" fill = "#25A9F4"/>
</g>
<path d  = "M36.7614 12.6782L33.5242 16.3079C33.1193 16.0234 32.6935 15.7796 32.2468 15.5742C31.2317 15.1101 30.1577 14.8727 29.057 14.8727C27.9564 14.8705 26.8843 15.1058 25.8673 15.57C24.8142 16.0491 23.8695 16.7549 23.0597 17.6661C22.2499 18.5772 21.6226 19.6402 21.1949 20.8273C20.7824 21.9738 20.5733 23.1822 20.5714 24.4228C20.5714 25.6633 20.7786 26.8739 21.1911 28.0204C21.3869 28.5658 21.6245 29.0855 21.9039 29.5775C21.7975 29.3422 21.7005 29.1026 21.6131 28.8567C21.2025 27.7102 20.9934 26.5018 20.9953 25.2591C20.9953 24.0185 21.2044 22.8101 21.6169 21.6636C22.0465 20.4787 22.6738 19.4135 23.4817 18.5024C24.2915 17.5912 25.2362 16.8854 26.2893 16.4063C27.3063 15.9421 28.3803 15.7068 29.4809 15.709C30.5816 15.709 31.6537 15.9464 32.6707 16.4105C33.1155 16.6159 33.5413 16.8597 33.9462 17.1442L37.9286 12.6761L36.7614 12.6782Z" fill = "#169DD8"/>
<mask id = "mask1_912_327" style                                                                                                                                                                                                                                                                                                                                                                                                                                                                                                                                                                                                                                                                                                                                                                                                                                               = "mask-type:luminance" maskUnits = "userSpaceOnUse" x = "41" y = "14" width = "3" height = "9">
<path d  = "M41.2762 14.2549H43.7143V22.3781H41.2762V14.2549Z" fill                                                                                                                                                                                                                                                                                                                                                                                                                                                                                                                                                                                                                                                                                                                                                                                                            = "white"/>
</mask>
<g    mask = "url(#mask1_912_327)">
<path d    = "M41.3967 22.0988C41.3967 22.2532 41.5114 22.3781 41.6534 22.3781C42.6333 22.3759 43.4285 21.5065 43.4266 20.4382L43.4168 14.6061C43.4168 14.4516 43.3021 14.3268 43.1602 14.3268C43.0183 14.3268 42.9035 14.4516 42.9035 14.6061L42.9133 20.4403C42.9152 21.1998 42.3494 21.8175 41.6534 21.8196C41.5114 21.8196 41.3967 21.9444 41.3967 22.0988Z" fill = "#86D1F2"/>
</g>
<path d  = "M36 27.013C36 27.2033 36.1199 27.3808 36.3093 27.4429C36.5429 27.5199 36.7933 27.3873 36.867 27.1498C37.1468 26.2622 37.2857 25.3361 37.2857 24.3971C37.2836 24.1469 37.0858 23.9437 36.8396 23.9437C36.5934 23.9458 36.3956 24.149 36.3956 24.3971C36.3977 25.2441 36.2715 26.0761 36.021 26.8739C36.0063 26.921 36 26.9659 36 27.013Z" fill = "#86D1F2"/>
<path d  = "M28.9286 33.3303C28.9286 33.5923 29.1156 33.805 29.344 33.8028C32.3737 33.7983 35.1494 31.9061 36.5924 28.8673C36.7026 28.6389 36.6259 28.3501 36.4251 28.2269C36.2223 28.1015 35.9703 28.1866 35.862 28.4172C34.5647 31.1492 32.0666 32.8511 29.344 32.8556C29.1136 32.8556 28.9286 33.0683 28.9286 33.3303Z" fill                           = "#86D1F2"/>
<mask id = "mask2_912_327" style                                                                                                                                                                                                                                                                                                                          = "mask-type:luminance" maskUnits = "userSpaceOnUse" x = "30" y = "8" width = "14" height = "5">
<path d  = "M30.8237 8.72947H43.7143V12.6303H30.8237V8.72947Z" fill                                                                                                                                                                                                                                                                                       = "white"/>
</mask>
<g    mask = "url(#mask2_912_327)">
<path d    = "M41.6884 8.74851C41.6728 8.74851 41.6573 8.74851 41.6417 8.74851L32.9819 8.76332C31.8542 8.76755 30.9307 9.73006 30.9326 10.9062C30.9346 11.4435 31.127 11.9343 31.442 12.3087C31.3934 12.1268 31.3662 11.9322 31.3662 11.7333C31.3643 10.5572 32.2858 9.59467 33.4155 9.59044L42.0733 9.57563C42.0889 9.57563 42.1044 9.57563 42.12 9.57563C42.1356 9.57563 42.1492 9.57563 42.1647 9.57563C42.1783 9.57563 42.1919 9.57563 42.2036 9.57563C42.7072 9.57352 43.203 9.77237 43.5763 10.1806C43.5899 10.1954 43.6035 10.2103 43.6171 10.2251C43.5315 9.90352 43.3741 9.60313 43.1446 9.35352C42.7713 8.94524 42.2755 8.7464 41.772 8.74851C41.7584 8.74851 41.7448 8.74851 41.7311 8.74851C41.7175 8.74851 41.702 8.74851 41.6884 8.74851Z" fill = "#169DD8"/>
</g>
<path d  = "M32.8216 28.8478C30.7702 31.0243 27.438 31.0202 25.3906 28.8415C25.2783 28.7202 25.1719 28.5969 25.0714 28.4673C25.2626 28.7809 25.4892 29.0757 25.7453 29.3496C27.7927 31.5282 31.1249 31.5324 33.1743 29.3559C35.1114 27.3006 35.2217 24.0243 33.5014 21.831C34.8414 23.9971 34.6128 26.9451 32.8216 28.8478Z" fill = "#169DD8"/>
<path d  = "M31.5 10.832C31.5018 11.85 32.2578 12.6781 33.187 12.6761C33.3216 12.6761 33.4304 12.5569 33.4285 12.4094C33.4285 12.262 33.3198 12.1428 33.1852 12.1428C32.5251 12.1428 31.9867 11.5551 31.9867 10.83C31.9867 10.6825 31.878 10.5634 31.7434 10.5634C31.6088 10.5634 31.5 10.6846 31.5 10.832Z" fill                 = "#86D1F2"/>
<mask id = "mask3_912_327" style                                                                                                                                                                                                                                                                                                  = "mask-type:luminance" maskUnits = "userSpaceOnUse" x = "12" y = "14" width = "19" height = "33">
<path d  = "M12.3784 14.7964H30.326V46.4789H12.3784V14.7964Z" fill                                                                                                                                                                                                                                                                = "white"/>
</mask>
<g    mask = "url(#mask3_912_327)">
<path d    = "M24.5184 33.4755C25.5586 32.9974 26.4938 32.3099 27.2949 31.4362C28.0978 30.5605 28.7278 29.5429 29.1672 28.4091C29.6241 27.2329 29.8555 25.9848 29.8555 24.6987C29.8555 23.4146 29.6241 22.1665 29.1672 20.9904C28.7278 19.8565 28.0978 18.8369 27.2949 17.9632C26.4938 17.0896 25.5586 16.402 24.5184 15.9218C23.4393 15.4247 22.2942 15.173 21.1159 15.173C19.9377 15.173 18.7925 15.4247 17.7134 15.9218C16.6733 16.402 15.7381 17.0896 14.937 17.9632C14.134 18.8369 13.5041 19.8565 13.0647 20.9904C12.6078 22.1665 12.3764 23.4146 12.3764 24.6987C12.3764 25.9848 12.6078 27.2329 13.0647 28.407C13.5041 29.5429 14.134 30.5605 14.937 31.4362C15.7381 32.3099 16.6733 32.9974 17.7134 33.4755C18.1704 33.687 18.6389 33.8541 19.1172 33.9747V36.6888H15.9655C14.8281 36.6888 13.8988 37.6598 13.8988 38.8444C13.8988 40.029 14.8281 41 15.9655 41H19.1172V44.209C19.1172 45.4487 20.0077 46.462 21.0945 46.462C22.1814 46.462 23.0699 45.4487 23.0699 44.209V41H26.2216C27.359 41 28.2903 40.029 28.2903 38.8444C28.2903 37.6598 27.359 36.6888 26.2216 36.6888H23.0699V33.9874C23.5638 33.8647 24.0479 33.6934 24.5184 33.4755ZM15.8936 24.6987C15.8936 21.5594 18.2365 19.0061 21.1159 19.0061C23.9954 19.0061 26.3383 21.5594 26.3383 24.6987C26.3383 27.8379 23.9954 30.3933 21.1159 30.3933C18.2365 30.3933 15.8936 27.8379 15.8936 24.6987Z" fill = "#F9437C"/>
</g>
<path d  = "M14.3865 39.4366C14.2528 39.4366 14.1429 39.2791 14.1429 39.0815C14.1429 37.7251 14.8993 36.6197 15.8279 36.6197C15.9634 36.6197 16.0715 36.7799 16.0715 36.9748C16.0715 37.1724 15.9634 37.3326 15.8279 37.3326C15.1685 37.3326 14.6301 38.1176 14.6301 39.0815C14.6301 39.2791 14.5202 39.4366 14.3865 39.4366Z" fill                                                                                                                                                                                                                                                                                                                                                                                                                                                                                                           = "#F79CBD"/>
<path d  = "M18.9742 16.9014C18.8343 16.9014 18.7038 16.7694 18.6588 16.5647C18.6029 16.3098 18.6992 16.0345 18.8732 15.9526C19.521 15.6477 20.1968 15.493 20.8834 15.493C21.0667 15.493 21.2143 15.7091 21.2143 15.9776C21.2143 16.2461 21.0652 16.4623 20.8834 16.4623C20.2651 16.4623 19.6577 16.6033 19.0751 16.8764C19.041 16.8923 19.0068 16.9014 18.9742 16.9014Z" fill                                                                                                                                                                                                                                                                                                                                                                                                                                                                = "#F79CBD"/>
<path d  = "M13.291 25.3521C13.0527 25.3521 12.8571 25.1472 12.8571 24.8976C12.8571 21.5833 14.5824 18.5401 17.3607 16.9566C17.5705 16.8371 17.8333 16.9182 17.9473 17.138C18.0614 17.3599 17.984 17.6352 17.7742 17.7569C15.277 19.1803 13.7248 21.9162 13.7248 24.8976C13.7248 25.1472 13.5313 25.3521 13.291 25.3521Z" fill                                                                                                                                                                                                                                                                                                                                                                                                                                                                                                                = "#F79CBD"/>
<path d  = "M30.2143 24.4987C30.2143 25.7987 29.9857 27.0602 29.5343 28.249C29.1001 29.395 28.4777 30.4234 27.6843 31.3086C26.8928 32.1917 25.9688 32.8866 24.941 33.3698C24.4761 33.59 23.9978 33.7632 23.5098 33.8872V36.6197H23.1429V33.2073C23.2658 33.1645 23.3888 33.1196 23.5098 33.0704C23.6616 33.0106 23.8095 32.9464 23.9574 32.8759C24.9871 32.3905 25.9092 31.6956 26.7026 30.8126C27.496 29.9295 28.1165 28.899 28.5526 27.7529C29.004 26.5641 29.2307 25.3027 29.2307 24.0048C29.2307 22.7048 29.004 21.4433 28.5526 20.2567C28.1165 19.1085 27.496 18.0801 26.7026 17.1949C26.0898 16.5107 25.3982 15.942 24.6394 15.493C24.7412 15.5357 24.8411 15.5806 24.941 15.6298C25.9688 16.113 26.8928 16.8079 27.6843 17.6909C28.4777 18.5761 29.1001 19.6046 29.5343 20.7506C29.9857 21.9394 30.2143 23.2009 30.2143 24.4987Z" fill = "#EA0F5E"/>
<path d  = "M15.8791 24.6924C15.8791 26.3846 16.6384 27.8941 17.8232 28.8732C16.3853 27.9239 15.4286 26.2555 15.4286 24.3607C15.4286 21.4133 17.7388 19.0141 20.5782 19.0141C21.7899 19.0141 22.9057 19.451 23.7857 20.1799C22.9882 19.6536 22.0411 19.3478 21.0288 19.3478C18.1894 19.3478 15.8791 21.745 15.8791 24.6924Z" fill                                                                                                                                                                                                                                                                                                                                                                                                                                                                                                             = "#EA0F5E"/>
<mask id = "mask4_912_327" style                                                                                                                                                                                                                                                                                                                                                                                                                                                                                                                                                                                                                                                                                                                                                                                                              = "mask-type:luminance" maskUnits = "userSpaceOnUse" x = "19" y = "36" width = "10" height = "11">
<path d  = "M19.3758 36.9997H28.335V46.4789H19.3758V36.9997Z" fill                                                                                                                                                                                                                                                                                                                                                                                                                                                                                                                                                                                                                                                                                                                                                                            = "white"/>
</mask>
<g    mask = "url(#mask4_912_327)">
<path d    = "M28.2903 38.8444C28.2903 40.029 27.359 41 26.2216 41H23.0699V44.209C23.0699 45.4487 22.1814 46.4619 21.0945 46.4619C20.4743 46.4619 19.9182 46.1319 19.5566 45.62C19.8832 45.895 20.2876 46.0579 20.7212 46.0579C21.8081 46.0579 22.6985 45.0425 22.6985 43.8029V40.5938H25.8502C26.9876 40.5938 27.917 39.625 27.917 38.4382C27.917 37.9644 27.7692 37.5244 27.5165 37.1669C27.987 37.5624 28.2903 38.1696 28.2903 38.8444Z" fill = "#EA0F5E"/>
</g>
<path d = "M18.6429 40.5216V40.8451H15.8292C15.1405 40.8451 14.5246 40.5671 14.1429 40.1408C14.501 40.3784 14.9575 40.5216 15.4533 40.5216H18.6429Z" fill                                                                                                                                                                                                                                                                                                                                                                                                                    = "#EA0F5E"/>
<path d = "M20.9707 45.7746C20.0421 45.7746 19.2857 45.2233 19.2857 44.5438C19.2857 44.4463 19.3956 44.3662 19.5293 44.3662C19.6648 44.3662 19.7729 44.4463 19.7729 44.5438C19.7729 45.027 20.3113 45.4195 20.9707 45.4195C21.1062 45.4195 21.2143 45.4996 21.2143 45.5971C21.2143 45.6959 21.1062 45.7746 20.9707 45.7746Z" fill                                                                                                                                                                                                                                            = "#F79CBD"/>
<path d = "M22.276 30.2817C23.4818 30.0117 24.5357 29.2869 25.2838 28.2772C23.5675 26.0474 23.6708 22.7038 25.5915 20.6079C26.3552 19.7746 27.298 19.256 28.2857 19.0519C27.4909 17.8637 26.4506 16.8816 25.2487 16.1972C24.4656 16.6414 23.7526 17.2132 23.1214 17.9041C22.2916 18.8096 21.6487 19.866 21.2104 21.0458C20.7857 22.183 20.5714 23.3861 20.5714 24.619C20.5695 25.8519 20.7838 27.055 21.2045 28.1943C21.4812 28.9404 21.8396 29.6397 22.276 30.2817Z" fill                                                                                                   = "#25A9F4"/>
<path d = "M22.9253 17.8834C22.1592 18.7779 21.5658 19.8215 21.1594 20.987C20.7692 22.1104 20.5714 23.2989 20.5714 24.5168C20.5696 25.7347 20.7674 26.9232 21.1558 28.0488C21.3411 28.5842 21.5658 29.0945 21.8302 29.5775C21.7313 29.3465 21.6396 29.1092 21.555 28.8698C21.1666 27.7443 20.9688 26.5558 20.9706 25.3379C20.9706 24.1199 21.1702 22.9314 21.5604 21.808C21.965 20.6426 22.5584 19.599 23.3245 18.7044C24.0222 17.8897 24.8242 17.2429 25.7143 16.7767C25.4499 16.5647 25.1748 16.3715 24.8871 16.1972C24.166 16.6361 23.5079 17.2009 22.9253 17.8834Z" fill = "#169DD8"/>
</svg>
