
<svg width="51" height="45" viewBox="0 0 51 45" fill="none" xmlns="http://www.w3.org/2000/svg">
<mask id="mask0_915_469" style="mask-type:luminance" maskUnits="userSpaceOnUse" x="9" y="6" width="41" height="37">
<path d="M9.61401 6.6263H49.812V42.5343H9.61401V6.6263Z" fill="white"/>
</mask>
<g mask="url(#mask0_915_469)">
<path fill-rule="evenodd" clip-rule="evenodd" d="M28.7455 6.62444C31.801 6.62444 34.6889 7.30195 37.2506 8.50102C37.3722 8.5582 37.4496 8.6587 37.4717 8.78346C37.4939 8.90995 37.4533 9.02605 37.3575 9.11788L34.4125 11.8851C34.1839 12.1017 33.8633 12.1675 33.5574 12.0636C32.0554 11.5524 30.4354 11.2734 28.7455 11.2734C20.9314 11.2734 14.5991 17.2289 14.5991 24.5759C14.5991 31.921 20.9314 37.8766 28.7455 37.8766C36.5576 37.8766 42.8918 31.921 42.8918 24.5759H41.0028C40.8461 24.5759 40.7116 24.4979 40.6397 24.3679C40.5679 24.2362 40.5789 24.089 40.6692 23.9694L44.8582 18.4072C44.9374 18.3015 45.0554 18.2443 45.1918 18.2443C45.3282 18.2443 45.4461 18.3015 45.5235 18.4072L49.7143 23.9694C49.8046 24.089 49.8157 24.2362 49.7438 24.3679C49.6719 24.4979 49.5374 24.5759 49.3808 24.5759H47.8364C47.8364 34.489 39.2889 42.5256 28.7455 42.5256C18.2021 42.5256 9.65454 34.489 9.65454 24.5759C9.65454 14.661 18.2021 6.62444 28.7455 6.62444Z" fill="#FF4D8C"/>
</g>
<mask id="mask1_915_469" style="mask-type:luminance" maskUnits="userSpaceOnUse" x="12" y="6" width="38" height="37">
<path d="M12.5406 6.6263H49.8121V42.5343H12.5406V6.6263Z" fill="white"/>
</mask>
<g mask="url(#mask1_915_469)">
<path fill-rule="evenodd" clip-rule="evenodd" d="M28.7455 6.62444C31.8011 6.62444 34.6889 7.30195 37.2506 8.50102C37.3723 8.5582 37.4497 8.6587 37.4718 8.78346C37.4939 8.90995 37.4533 9.02605 37.3575 9.11788L34.4125 11.8851C34.184 12.1017 33.8633 12.1675 33.5574 12.0636C33.3178 11.9821 33.0745 11.9076 32.8294 11.8383L35.7228 9.11788C35.8187 9.02605 35.8592 8.90995 35.8371 8.78346C35.8168 8.6587 35.7376 8.5582 35.6178 8.50102C33.2902 7.41111 30.6916 6.75266 27.9438 6.64176C28.2092 6.63137 28.4764 6.62444 28.7455 6.62444ZM27.9346 11.296C20.4984 11.691 14.5992 17.4854 14.5992 24.5759C14.5992 31.6629 20.4947 37.4555 27.9272 37.854C27.6582 37.8679 27.3854 37.8766 27.1108 37.8766C19.2986 37.8766 12.9645 31.921 12.9645 24.5759C12.9645 17.2289 19.2986 11.2734 27.1108 11.2734C27.3873 11.2734 27.6619 11.2821 27.9346 11.296ZM44.3735 19.0483L48.0797 23.9694C48.17 24.089 48.181 24.2362 48.1092 24.3679C48.0373 24.4979 47.9028 24.5759 47.7461 24.5759H46.2017C46.2017 34.2308 38.0928 42.1045 27.9291 42.5082C28.2 42.5186 28.4709 42.5256 28.7455 42.5256C39.2889 42.5256 47.8364 34.489 47.8364 24.5759H49.3808C49.5374 24.5759 49.672 24.4979 49.7438 24.3679C49.8157 24.2362 49.8047 24.089 49.7144 23.9694L45.5254 18.4072C45.4461 18.3015 45.3282 18.2443 45.1918 18.2443C45.0554 18.2443 44.9375 18.3015 44.8582 18.4072L44.3735 19.0483Z" fill="#FC7891"/>
</g>
<path fill-rule="evenodd" clip-rule="evenodd" d="M20.5555 24.8168C19.7777 24.0856 19.7777 22.9021 20.5555 22.1726C21.3313 21.4414 22.5901 21.4414 23.3678 22.1726L27.284 25.8548L34.1286 19.3274C34.9008 18.5979 36.1559 18.5945 36.9336 19.3205C37.7095 20.0465 37.7131 21.2265 36.941 21.9578C33.1427 25.5637 32.5087 26.2377 28.6938 29.8245C27.918 30.5557 26.6574 30.5557 25.8815 29.8245L20.5555 24.8168Z" fill="#43B3FF"/>
<path fill-rule="evenodd" clip-rule="evenodd" d="M21.1433 21.7897C21.8768 21.4796 22.7669 21.6078 23.3677 22.1727L27.284 25.8548L26.4731 26.6293L21.733 22.1727C21.558 22.0081 21.3571 21.8798 21.1433 21.7897ZM34.7183 18.9428C34.9284 19.0329 35.1256 19.1577 35.2989 19.3205C36.0766 20.0466 36.0803 21.2266 35.3062 21.9578C31.5098 25.5637 30.8758 26.2377 27.061 29.8245C26.884 29.9909 26.685 30.1174 26.4712 30.2075C27.2029 30.5177 28.093 30.3912 28.6938 29.8245C32.5105 26.2377 33.1426 25.5637 36.9409 21.9578C37.7131 21.2266 37.7094 20.0466 36.9335 19.3205C36.3327 18.7591 35.4463 18.6326 34.7183 18.9428Z" fill="#8AC9FE"/>
</svg>
